<svg width="155" height="155" viewBox="0 0 155 155" fill="none" xmlns="http://www.w3.org/2000/svg">
<g clip-path="url(#clip0_205_1216)">
<path d="M139.981 66.8385C138.32 66.8385 136.835 65.6696 136.517 63.9694C130.686 33.1536 103.687 11.2283 72.3758 12.2201C58.5226 12.5743 45.4469 17.3206 34.5976 25.9278C33.078 27.1321 30.8516 26.8842 29.6501 25.3611C28.4485 23.838 28.6959 21.6065 30.2155 20.4022C42.2663 10.8387 56.791 5.59646 72.1637 5.17141C106.973 4.42758 136.941 28.4427 143.444 62.6943C143.797 64.607 142.56 66.4843 140.617 66.8385C140.405 66.8739 140.157 66.9093 139.945 66.9093L139.981 66.8385Z" fill="#26403E"/>
<path d="M65.414 111.433C64.4598 111.433 63.5763 111.043 62.9049 110.406L35.2339 82.6714C33.8556 81.29 33.8556 79.0585 35.2339 77.6771L45.8711 66.9093C47.214 65.5279 49.4051 65.4925 50.8187 66.8385L65.2373 80.4399L98.4566 44.1339C99.0928 43.4255 99.9762 43.0359 100.93 43.0005C101.92 42.9651 102.803 43.3193 103.475 43.9568L114.996 54.9372C116.409 56.2832 116.48 58.5146 115.137 59.9315L67.9585 110.37C67.287 111.079 66.4035 111.468 65.4493 111.504H65.3787L65.414 111.433ZM42.7259 80.1565L65.308 102.79L107.574 57.5937L101.213 51.5368L67.9938 87.8428C67.3577 88.5512 66.4742 88.9408 65.52 88.9763C64.6012 89.0825 63.647 88.6575 62.9756 88.0199L48.4509 74.3122L42.7259 80.1211V80.1565Z" fill="#BD202F"/>
<path d="M3.67592 59.1521C3.2165 59.1521 2.72175 59.0458 2.26233 58.8687C1.02544 58.3374 0.212628 57.1685 0.141948 55.8226C-0.988923 36.3767 4.24136 19.552 14.5252 9.66968C22.0879 2.37306 31.9477 -0.885626 43.0444 0.212409C44.988 0.389512 46.4016 2.12511 46.2249 4.07324C46.0482 6.02137 44.3519 7.43819 42.3729 7.26108C33.3966 6.37557 25.4805 8.96127 19.4728 14.7702C11.7334 22.2439 7.35125 34.6057 7.10387 49.3406C12.4402 46.7549 18.6953 45.5152 24.8091 44.2755C42.0195 40.8043 56.8975 37.7935 56.1907 10.2718C56.1554 8.3237 57.675 6.69436 59.6187 6.62352C61.6331 6.55267 63.188 8.11117 63.2587 10.0593C64.1422 43.5671 43.115 47.7821 26.2227 51.1825C18.3066 52.7764 10.8499 54.2995 5.973 58.302C5.33689 58.8333 4.52407 59.1167 3.71126 59.1167L3.67592 59.1521Z" fill="#26403E"/>
<path d="M122.876 134.669C117.469 134.669 113.405 133.677 113.016 133.571C111.108 133.075 109.977 131.162 110.472 129.249C110.967 127.372 112.875 126.203 114.748 126.699C114.996 126.77 132.948 131.056 141.642 119.615C149.346 109.485 148.286 93.8997 146.943 85.3988C143.197 88.2324 138.885 90.2514 134.644 92.1995C123.83 97.2292 114.501 101.621 114.96 118.198C115.031 120.146 113.476 121.776 111.532 121.846C109.659 121.846 107.963 120.359 107.892 118.411C107.291 97.1584 120.226 91.1369 131.641 85.7884C137.401 83.0965 142.879 80.5462 146.342 76.2249C147.19 75.1977 148.533 74.7372 149.805 74.9852C151.113 75.2685 152.138 76.2249 152.491 77.5C152.809 78.6689 160.336 106.651 147.225 123.901C140.511 132.756 130.333 134.633 122.806 134.633L122.876 134.669Z" fill="#26403E"/>
<path d="M74.0017 146.747C35.8702 146.747 4.38247 116.215 3.39296 77.7834C3.32228 75.5873 3.39296 73.4267 3.53432 71.266C3.67568 69.3179 5.33665 67.9011 7.28033 67.9719C9.22402 68.1136 10.7083 69.7783 10.5669 71.7265C10.4256 73.6392 10.3902 75.6227 10.4609 77.5708C11.3797 112.708 40.747 140.655 75.7334 139.628C96.8312 139.061 116.233 128.116 127.647 110.299C128.708 108.635 130.899 108.174 132.524 109.237C134.15 110.299 134.645 112.495 133.584 114.125C120.898 133.925 99.3403 146.109 75.9101 146.712C75.2739 146.712 74.6732 146.712 74.0371 146.712L74.0017 146.747Z" fill="#26403E"/>
<path d="M144.716 155C144.222 155 143.727 154.894 143.267 154.681C138.426 152.521 132.913 152.237 127.577 151.989C117.717 151.493 106.514 150.962 101.637 136.829C101.001 134.987 101.991 132.968 103.828 132.331C105.666 131.693 107.68 132.685 108.317 134.527C111.497 143.665 117.505 144.409 127.93 144.941C132.348 145.153 137.224 145.401 141.995 146.747C142.349 144.161 142.631 140.69 142.066 137.609C141.713 135.696 142.985 133.854 144.893 133.5C146.837 133.146 148.639 134.421 148.993 136.333C150.335 143.63 148.144 151.989 148.074 152.343C147.826 153.335 147.12 154.185 146.201 154.646C145.706 154.894 145.211 155 144.681 155H144.716Z" fill="#505050"/>
</g>
<defs>
<clipPath id="clip0_205_1216">
<rect width="155" height="155" fill="white"/>
</clipPath>
</defs>
</svg>
