<svg width="125" height="158" viewBox="0 0 125 158" fill="none" xmlns="http://www.w3.org/2000/svg">
<g clip-path="url(#clip0_205_1225)">
<path d="M54.7359 158C53.155 158 51.7146 156.947 51.3281 155.332C50.8714 153.436 51.9956 151.54 53.8927 151.083L67.9456 147.572C69.8427 147.08 71.7398 148.239 72.1966 150.135C72.6533 152.031 71.5291 153.927 69.6319 154.384L55.5791 157.895C55.298 157.965 55.017 158 54.7359 158Z" fill="#505050"/>
<path d="M68.7886 154.489C66.8563 154.489 65.2754 152.909 65.2754 150.978V136.933C65.2754 135.002 66.8563 133.422 68.7886 133.422C70.7209 133.422 72.3018 135.002 72.3018 136.933V150.978C72.3018 152.909 70.7209 154.489 68.7886 154.489Z" fill="#505050"/>
<path d="M75.8153 158C75.2883 158 74.7613 157.895 74.2343 157.614L67.2079 154.103C65.4864 153.225 64.7838 151.118 65.627 149.398C66.5053 147.677 68.6132 146.975 70.3347 147.818L77.3611 151.329C79.0825 152.207 79.7852 154.313 78.942 156.034C78.3096 157.263 77.08 157.965 75.7801 157.965L75.8153 158Z" fill="#505050"/>
<path d="M65.2756 112.356C63.3433 112.356 61.7624 110.776 61.7624 108.844C61.7624 106.913 63.3433 105.333 65.2756 105.333C91.976 105.333 102.586 87.8128 103.815 70.2222H65.2756C64.1162 70.2222 58.0735 70.4328 54.3846 74.9271C53.155 76.4368 50.9417 76.6475 49.431 75.4186C47.9203 74.1897 47.7095 71.9777 48.9392 70.4679C54.49 63.7266 62.8515 63.2 65.2756 63.2H107.434C109.366 63.2 110.947 64.78 110.947 66.7111C110.947 94.4488 93.0299 112.356 65.2756 112.356Z" fill="#26403E"/>
<path d="M52.839 27.7026C52.2769 27.7026 51.7148 27.5622 51.1878 27.2813C49.4663 26.3684 48.834 24.2267 49.7474 22.5413C50.6608 20.8209 51.2229 18.9249 51.2229 17.5555C51.2229 11.7622 46.2693 7.05732 40.1563 7.05732C36.2215 7.05732 32.6732 9.02354 30.6355 12.2889C29.7572 13.6582 28.0709 14.2902 26.5251 13.7635C25.6116 13.4475 24.7333 13.3071 23.9253 13.3071C19.9554 13.3071 16.6178 16.116 16.126 19.8026C16.0908 20.0835 16.0557 20.3995 16.0557 20.6804C16.0557 22.6115 14.4748 24.1915 12.5425 24.1915C10.6102 24.1915 9.0293 22.6115 9.0293 20.6804C9.0293 20.0835 9.06443 19.4866 9.13469 18.9249C10.1184 10.9898 17.8475 5.12621 26.1738 6.46043C29.5816 2.38754 34.6406 0.0350952 40.1212 0.0350952C50.0987 0.0350952 58.2142 7.89998 58.2142 17.5555C58.2142 20.1186 57.4062 23.068 55.8955 25.8769C55.2631 27.0706 54.0335 27.7378 52.8039 27.7378L52.839 27.7026Z" fill="#BD202F"/>
<path d="M68.7889 140.444C58.706 140.444 49.7473 133.844 47.9907 125.698C27.4033 120.185 16.0556 106.457 15.9502 86.8649C15.9502 84.9338 17.496 83.3538 19.4283 83.3187C21.3605 83.3187 22.9415 84.8636 22.9415 86.7947C23.082 108.318 38.7861 116.428 51.9606 119.448C53.5415 119.799 54.7009 121.239 54.7009 122.854C54.7009 127.734 60.849 133.387 68.7537 133.387C76.6585 133.387 82.8066 127.734 82.8066 122.854C82.8066 121.414 83.6849 120.115 85.0199 119.588C100.864 113.339 117.939 93.9925 117.939 73.6982V45.7849C107.504 46.9084 97.808 52.8773 93.1705 58.776C91.9761 60.2858 89.7627 60.5667 88.2169 59.3729C86.7062 58.1791 86.4252 55.9671 87.6197 54.4222C94.9974 45.0827 108.91 38.552 121.417 38.552C123.349 38.552 124.93 40.132 124.93 42.0631V73.6631C124.93 96.38 107.294 117.236 89.5871 125.241C88.0764 133.563 78.9772 140.374 68.7186 140.374L68.7889 140.444Z" fill="#26403E"/>
<path d="M19.6039 79C12.8234 79 7.30762 73.1364 7.30762 65.9386C7.30762 55.3702 17.1797 48.348 17.6013 48.032C18.7958 47.1893 20.4119 47.1893 21.6415 48.032C22.0631 48.3129 31.9352 55.3351 31.9352 65.9386C31.9352 73.1364 26.4195 79 19.639 79H19.6039ZM19.6039 55.5106C17.4608 57.5822 14.334 61.4093 14.334 65.9035C14.334 69.2391 16.6879 71.9426 19.6039 71.9426C22.5198 71.9426 24.8737 69.2391 24.8737 65.9035C24.8737 61.3742 21.7469 57.5822 19.6039 55.5106Z" fill="#BD202F"/>
<path d="M65.2758 70.2222C64.011 70.2222 62.8166 69.5551 62.1842 68.3613C57.4413 59.5835 44.4776 35.9538 41.2806 31.7755C41.2103 31.7053 41.1752 31.6351 41.1049 31.5298C38.5403 28.44 34.8163 26.6493 30.7761 26.6493C24.1361 26.6493 18.5852 31.3893 17.5664 37.9551C17.461 38.5871 17.18 39.184 16.7935 39.6755L10.7157 46.8733L19.7446 47.3298C21.6769 47.4351 23.1875 49.0853 23.0822 51.0164C22.9768 52.9475 21.2201 54.4222 19.3933 54.352L3.30278 53.5093C1.96776 53.4391 0.808404 52.6315 0.246291 51.4026C-0.280691 50.1738 -0.0698981 48.7693 0.773272 47.7511L10.7859 35.8484C12.7182 26.3684 20.9742 19.592 30.7409 19.592C37.0647 19.592 42.8967 22.436 46.7963 27.4218C46.9017 27.5622 46.972 27.6675 47.0774 27.808C51.6445 34.0929 67.6297 63.6915 68.3323 64.9555C69.2457 66.676 68.6133 68.7826 66.8919 69.6955C66.3649 69.9764 65.8028 70.1169 65.2407 70.1169L65.2758 70.2222Z" fill="#26403E"/>
<path d="M34.8164 81.3875C34.8164 80.4395 35.2731 79.9831 36.2216 79.9831H37.8728C38.8214 79.9831 39.2781 80.4395 39.2781 81.3875V91.5346C39.2781 92.5178 39.5592 93.22 40.1213 93.7115C40.6834 94.2031 41.4563 94.4489 42.44 94.4489C43.4237 94.4489 44.1966 94.2031 44.7587 93.7115C45.3209 93.22 45.6019 92.4826 45.6019 91.5346V81.3875C45.6019 80.4395 46.0586 79.9831 47.0072 79.9831H48.6584C49.607 79.9831 50.0637 80.4395 50.0637 81.3875V91.5346C50.0637 92.5529 49.888 93.5009 49.5016 94.3435C49.1503 95.1862 48.6233 95.9586 47.9558 96.5555C47.2882 97.1875 46.4802 97.6791 45.5668 98.0302C44.6182 98.3813 43.5994 98.5569 42.44 98.5569C41.2807 98.5569 40.2267 98.3813 39.2781 98.0302C38.3296 97.6791 37.5215 97.1875 36.854 96.5555C36.1865 95.9235 35.6595 95.1862 35.3082 94.3435C34.9569 93.4658 34.7461 92.5529 34.7461 91.5346V81.3875H34.8164Z" fill="#BD202F"/>
<path d="M42.475 98.8026C41.2805 98.8026 40.1914 98.6271 39.2429 98.276C38.2592 97.9249 37.416 97.3982 36.7485 96.7662C36.0459 96.1342 35.5189 95.3618 35.1324 94.4489C34.746 93.5711 34.5703 92.588 34.5703 91.5346V81.3875C34.5703 80.2991 35.1676 79.7022 36.2567 79.7022H37.9079C38.997 79.7022 39.5942 80.2991 39.5942 81.3875V91.5346C39.5942 92.4475 39.8401 93.0795 40.3671 93.536C40.8941 93.9924 41.5967 94.2031 42.5102 94.2031C43.4236 94.2031 44.1262 93.9924 44.6532 93.536C45.1802 93.0795 45.4261 92.4475 45.4261 91.5346V81.3875C45.4261 80.2991 46.0234 79.7022 47.1125 79.7022H48.7637C49.8528 79.7022 50.45 80.2991 50.45 81.3875V91.5346C50.45 92.588 50.2744 93.5711 49.8879 94.4489C49.5015 95.3266 48.9745 96.0991 48.2718 96.7662C47.6043 97.3982 46.7611 97.9249 45.7774 98.276C44.8289 98.6271 43.7398 98.8026 42.5804 98.8026H42.475ZM36.2215 80.264C35.4486 80.264 35.0973 80.6151 35.0973 81.4227V91.5698C35.0973 92.5529 35.273 93.4658 35.6243 94.2733C35.9756 95.0809 36.4674 95.8182 37.0998 96.4151C37.7322 97.012 38.5051 97.4684 39.4185 97.8195C40.332 98.1707 41.3508 98.3111 42.475 98.3111C43.5993 98.3111 44.583 98.1355 45.4964 97.8195C46.4098 97.4684 47.1827 97.012 47.8151 96.4151C48.4475 95.8182 48.9393 95.116 49.2907 94.2733C49.642 93.4307 49.8176 92.5178 49.8176 91.5698V81.4227C49.8176 80.6502 49.4663 80.264 48.6934 80.264H47.0422C46.2693 80.264 45.918 80.6151 45.918 81.4227V91.5698C45.918 92.6231 45.6018 93.4307 44.9694 93.9573C44.337 94.484 43.529 94.7649 42.475 94.7649C41.4211 94.7649 40.613 94.484 39.9807 93.9573C39.3483 93.4307 39.0321 92.6231 39.0321 91.5698V81.4227C39.0321 80.6502 38.6808 80.264 37.9079 80.264H36.2567H36.2215Z" fill="white"/>
<path d="M53.0855 96.7311C53.0855 96.7311 52.8396 96.5204 52.7342 96.38C52.6288 96.2395 52.5586 96.0991 52.5234 95.9587C52.4883 95.8182 52.4883 95.6075 52.5234 95.432C52.5586 95.2564 52.6639 95.0458 52.8396 94.8L53.6476 93.6413C53.8936 93.2551 54.1746 93.0444 54.4908 93.0093C54.807 92.9742 55.1583 93.0795 55.5799 93.2902C55.7204 93.3604 55.9312 93.4658 56.142 93.6062C56.3528 93.7115 56.5987 93.852 56.8798 93.9924C57.1609 94.1329 57.477 94.2382 57.8284 94.3084C58.1797 94.3787 58.531 94.4489 58.9175 94.4489C59.585 94.4489 60.0768 94.3084 60.393 94.0627C60.7092 93.8169 60.8497 93.5009 60.8497 93.1498C60.8497 92.7284 60.6389 92.3773 60.2525 92.0613C59.866 91.7453 59.339 91.4644 58.7418 91.2186C58.1446 90.9378 57.5122 90.6569 56.8095 90.376C56.1069 90.0951 55.4745 89.7089 54.8773 89.2524C54.28 88.796 53.7882 88.2693 53.3666 87.6373C52.945 87.0053 52.7693 86.1978 52.7693 85.2498C52.7693 84.4071 52.945 83.6346 53.2612 82.9675C53.5774 82.2653 54.0341 81.7035 54.6313 81.212C55.2286 80.7204 55.8961 80.3342 56.7041 80.0884C57.5122 79.8075 58.3554 79.7022 59.2688 79.7022C60.3579 79.7022 61.3064 79.8427 62.2199 80.1587C63.0982 80.4395 63.7657 80.7555 64.2224 81.0715C64.6089 81.3524 64.8196 81.6333 64.8548 81.9493C64.8899 82.2653 64.8548 82.6164 64.644 82.9675L64.0116 84.1613C63.7657 84.6529 63.4495 84.8987 63.1333 84.8987C62.8171 84.8987 62.4658 84.8284 62.1145 84.6178C61.6929 84.4071 61.2362 84.2315 60.8146 84.056C60.3579 83.8804 59.8309 83.7751 59.2337 83.7751C58.531 83.7751 58.004 83.9155 57.6878 84.1613C57.3716 84.4071 57.2311 84.7231 57.2311 85.0742C57.2311 85.5306 57.4419 85.8818 57.8284 86.1627C58.2148 86.4435 58.7418 86.7244 59.339 86.9702C59.9363 87.216 60.5687 87.4969 61.2713 87.7778C61.974 88.0587 62.6063 88.4098 63.2036 88.8662C63.8008 89.2875 64.2927 89.8493 64.7143 90.4813C65.1007 91.1133 65.3115 91.9209 65.3115 92.8689C65.3115 93.6413 65.171 94.3786 64.8899 95.0458C64.6089 95.7129 64.1873 96.3449 63.6603 96.8715C63.0982 97.3982 62.4307 97.8195 61.6578 98.1004C60.8497 98.4164 59.9363 98.5569 58.9175 98.5569C58.2851 98.5569 57.6527 98.4867 57.0555 98.3813C56.4582 98.276 55.9312 98.1004 55.4043 97.9249C54.9124 97.7493 54.4557 97.5386 54.0341 97.328C53.6125 97.1173 53.3315 96.9066 53.0855 96.7311Z" fill="#BD202F"/>
<path d="M58.8821 98.8027C58.2146 98.8027 57.5822 98.7325 56.985 98.6271C56.3877 98.4867 55.8256 98.3462 55.2986 98.1707C54.7717 97.9951 54.3149 97.7845 53.8934 97.5738C53.5069 97.3631 53.1556 97.1525 52.9097 96.9418C52.7691 96.8365 52.6286 96.696 52.5232 96.5556C52.3827 96.4151 52.3124 96.2396 52.2422 96.0289C52.1719 95.8182 52.1719 95.6076 52.2422 95.3618C52.2773 95.1511 52.4178 94.9053 52.5935 94.6245L53.4015 93.4658C53.6826 93.0445 54.0339 92.7987 54.4203 92.7284C54.8068 92.6933 55.1932 92.7987 55.6851 93.0444L56.2472 93.3605C56.458 93.4658 56.7039 93.6062 56.985 93.7116C57.266 93.852 57.5471 93.9222 57.8633 94.0276C58.1795 94.0978 58.5308 94.168 58.8821 94.168C59.4794 94.168 59.9361 94.0627 60.182 93.852C60.4279 93.6413 60.5685 93.4307 60.5685 93.1498C60.5685 92.7987 60.3928 92.5178 60.0766 92.272C59.6902 91.9911 59.1983 91.7102 58.6362 91.4644C58.0389 91.1836 57.4066 90.9378 56.7039 90.6218C56.0013 90.3058 55.3338 89.9196 54.7014 89.4631C54.069 89.0067 53.542 88.4449 53.1556 87.7778C52.734 87.1107 52.5232 86.2329 52.5232 85.2498C52.5232 84.372 52.6989 83.5645 53.0502 82.8622C53.4015 82.16 53.8582 81.528 54.4906 81.0013C55.0879 80.4747 55.8256 80.0884 56.6337 79.8076C57.4417 79.5267 58.3551 79.3862 59.3037 79.3862C60.3928 79.3862 61.4116 79.5267 62.3251 79.8427C63.2385 80.1587 63.9411 80.4747 64.3979 80.7907C64.8194 81.1067 65.1005 81.4578 65.1356 81.844C65.2059 82.1951 65.1356 82.6164 64.9248 83.0378L64.2925 84.2316C64.0114 84.8284 63.625 85.1093 63.2034 85.1445H63.1682C62.8169 85.1445 62.4305 85.0391 62.044 84.8636C61.6224 84.6529 61.2008 84.4773 60.7441 84.3018C60.3225 84.1262 59.8307 84.056 59.2686 84.056C58.6011 84.056 58.1443 84.1613 57.8984 84.372C57.6525 84.5827 57.5471 84.7933 57.5471 85.0742C57.5471 85.4253 57.7228 85.7062 58.0389 85.952C58.4254 86.2329 58.8821 86.4787 59.4794 86.7596C60.0766 87.0053 60.709 87.2862 61.4116 87.5671C62.1143 87.848 62.7818 88.2342 63.4142 88.6556C64.0465 89.112 64.5735 89.6738 64.9951 90.3409C65.4167 91.008 65.6275 91.8858 65.6275 92.8689C65.6275 93.6765 65.4869 94.4489 65.1708 95.1511C64.8897 95.8885 64.433 96.5204 63.8709 97.0471C63.3088 97.5738 62.6061 98.0302 61.7629 98.3462C60.9549 98.6622 60.0063 98.8378 58.9524 98.8378L58.8821 98.8027ZM54.596 93.2902C54.596 93.2902 54.5257 93.2902 54.4906 93.2902C54.2798 93.2902 54.0339 93.5009 53.8231 93.8169L53.0151 94.9756C52.8745 95.1862 52.7691 95.3618 52.734 95.5373C52.734 95.6778 52.734 95.8182 52.734 95.9236C52.734 96.064 52.8394 96.1693 52.9097 96.2747C53.0151 96.38 53.1205 96.4853 53.2258 96.5907C53.4718 96.7662 53.7528 96.9769 54.1393 97.1525C54.5257 97.3631 54.9825 97.5387 55.4743 97.7142C55.9662 97.8898 56.4931 98.0302 57.0904 98.1356C57.6525 98.2409 58.2497 98.3111 58.8821 98.3111C59.8658 98.3111 60.7441 98.1707 61.517 97.8547C62.2899 97.5738 62.9223 97.1525 63.4493 96.6609C63.9763 96.1693 64.3627 95.6076 64.6086 94.9405C64.8897 94.2733 64.9951 93.5711 64.9951 92.8689C64.9951 91.9911 64.8194 91.2187 64.433 90.6218C64.0465 90.0249 63.5547 89.4982 62.9926 89.0769C62.4305 88.6556 61.7981 88.3044 61.0954 88.0236C60.3928 87.7427 59.7604 87.4618 59.1632 87.216C58.5308 86.9351 58.0389 86.6542 57.6174 86.3733C57.1606 86.0222 56.9147 85.6009 56.9147 85.0742C56.9147 84.6529 57.0904 84.2667 57.4768 83.9507C57.8282 83.6698 58.3903 83.5293 59.1632 83.5293C59.7956 83.5293 60.3577 83.6347 60.8144 83.8102C61.2711 83.9858 61.7278 84.1965 62.1494 84.4071C62.4656 84.5827 62.7467 84.6529 63.0277 84.6529C63.2385 84.6529 63.4844 84.4422 63.6952 84.056L64.3276 82.8622C64.5033 82.5462 64.5384 82.2653 64.5033 81.9845C64.4681 81.7387 64.2925 81.4929 63.9763 81.2822C63.5547 81.0013 62.9223 80.6853 62.044 80.4044C61.2008 80.1236 60.2171 79.9831 59.1983 79.9831C58.32 79.9831 57.4768 80.1236 56.7039 80.3693C55.931 80.6151 55.2635 81.0013 54.7365 81.4578C54.1744 81.9142 53.7528 82.5111 53.4366 83.1431C53.1205 83.8102 52.9799 84.5124 52.9799 85.32C52.9799 86.2329 53.1556 86.9702 53.542 87.5671C53.9285 88.164 54.4203 88.6907 54.9825 89.112C55.5446 89.5333 56.2121 89.9196 56.8796 90.2005C57.5822 90.4813 58.2146 90.7973 58.8119 91.0431C59.4091 91.324 59.9361 91.6049 60.3577 91.9209C60.8144 92.272 61.0603 92.6933 61.0603 93.22C61.0603 93.6764 60.8495 94.0276 60.4982 94.3436C60.1469 94.6245 59.5848 94.7649 58.8821 94.7649C58.4605 94.7649 58.0741 94.7298 57.7228 94.6245C57.3714 94.5542 57.0552 94.4138 56.7391 94.3085C56.458 94.168 56.2121 94.0627 55.9662 93.9222L55.404 93.6062C55.0879 93.4307 54.8068 93.3253 54.5609 93.3253L54.596 93.2902Z" fill="white"/>
<path d="M71.7748 81.1418C72.0207 80.3693 72.5477 79.9831 73.3558 79.9831H75.6393C76.4474 79.9831 76.9744 80.3693 77.2203 81.1418L82.4901 96.6258C82.6658 97.1173 82.6306 97.5035 82.4198 97.7844C82.209 98.0653 81.8577 98.2058 81.3307 98.2058H79.6444C78.8364 98.2058 78.3094 97.8195 78.0635 97.0471L77.2906 94.3786H71.5992L70.8262 97.0471C70.6155 97.8195 70.0885 98.2058 69.2804 98.2058H67.5941C67.1022 98.2058 66.7158 98.0653 66.505 97.7844C66.2942 97.5035 66.2591 97.1173 66.4347 96.6258L71.7046 81.1418H71.7748ZM76.2717 90.8324L75.2529 87.2862C75.1826 87.0053 75.0772 86.6893 75.007 86.3031C74.9367 85.9169 74.8664 85.6009 74.761 85.2849C74.6908 84.8986 74.5854 84.5124 74.5151 84.1262H74.48C74.4097 84.5124 74.3043 84.8986 74.2341 85.2849C74.1287 85.6009 74.0584 85.952 73.9881 86.3031C73.9179 86.6542 73.8476 86.9702 73.7422 87.2862L72.6883 90.8324H76.3069H76.2717Z" fill="#BD202F"/>
<path d="M81.3663 98.5218H79.68C78.7665 98.5218 78.1342 98.0653 77.8531 97.1524L77.1505 94.6595H71.8455L71.1429 97.1173C70.897 97.9951 70.2646 98.4866 69.316 98.4866H67.6297C67.0324 98.4866 66.6108 98.3111 66.3298 97.9249C66.0487 97.5387 66.0487 97.0822 66.2244 96.5204L71.4942 81.0364C71.7753 80.1587 72.4076 79.7022 73.3211 79.7022H75.6047C76.5181 79.7022 77.1505 80.1587 77.4315 81.0364L82.7013 96.5204C82.9121 97.1173 82.877 97.5738 82.5959 97.9249C82.3149 98.276 81.8933 98.4515 81.2961 98.4515L81.3663 98.5218ZM71.6347 94.1329H77.3261C77.3261 94.1329 77.5369 94.2031 77.5721 94.3084L78.345 96.9769C78.5558 97.644 78.9773 97.96 79.68 97.96H81.3663C81.7879 97.96 82.069 97.8547 82.2446 97.644C82.4203 97.4333 82.4203 97.1173 82.2446 96.696L76.9748 81.212C76.764 80.5449 76.3424 80.2289 75.6398 80.2289H73.3562C72.6536 80.2289 72.232 80.5449 72.0212 81.212L66.7514 96.696C66.6108 97.1173 66.6108 97.3982 66.7514 97.6089C66.927 97.8195 67.2081 97.9249 67.6297 97.9249H69.316C70.0187 97.9249 70.4402 97.6089 70.6159 96.9418L71.3888 94.2733C71.3888 94.2733 71.5293 94.0978 71.6347 94.0978V94.1329ZM76.2722 91.1133H72.6536C72.6536 91.1133 72.4779 91.0782 72.4428 91.008C72.4076 90.9378 72.3725 90.8675 72.4076 90.7622L73.4616 87.216C73.5319 86.9351 73.6373 86.6191 73.7075 86.268C73.7778 85.9169 73.8832 85.5658 73.9534 85.2498L74.1994 84.1262C74.1994 84.1262 74.3399 83.9155 74.4453 83.9155C74.5507 83.9155 74.7264 83.9858 74.7615 84.1262L75.0074 85.2849C75.0777 85.6009 75.1831 85.952 75.2533 86.3031C75.3236 86.6542 75.3939 86.9702 75.4993 87.2511L76.5181 90.7973C76.5181 90.7973 76.5181 90.9729 76.483 91.0431C76.4478 91.1133 76.3424 91.1484 76.2722 91.1484V91.1133ZM73.04 90.5866H75.956L75.0425 87.3564C74.9723 87.0755 74.8669 86.7244 74.7966 86.3733C74.7264 86.0222 74.6561 85.6711 74.5507 85.3551V85.2498L74.5156 85.3551C74.4102 85.6711 74.3399 86.0222 74.2696 86.3733C74.1994 86.7244 74.094 87.0755 74.0237 87.3564L73.0751 90.5866H73.04Z" fill="white"/>
</g>
<defs>
<clipPath id="clip0_205_1225">
<rect width="125" height="158" fill="white"/>
</clipPath>
</defs>
</svg>
