<svg width="155" height="153" viewBox="0 0 155 153" fill="none" xmlns="http://www.w3.org/2000/svg">
<g clip-path="url(#clip0_205_1258)">
<path d="M130.762 132.21C100.627 160.623 53.1472 159.892 23.9316 130.169C22.2851 128.475 20.6769 126.704 19.2218 124.933C17.8817 123.278 18.1497 120.929 19.7579 119.505C21.4044 118.157 23.8167 118.388 25.1569 120.044C26.4588 121.661 27.9138 123.239 29.4071 124.779C56.1339 151.961 100.015 152.23 126.856 125.318C143.13 109.148 150.329 86.0096 146.155 63.3714C145.772 61.2924 147.15 59.2519 149.218 58.8669C151.286 58.4819 153.277 59.8679 153.698 61.9469C158.331 87.0876 150.29 112.806 132.255 130.785C131.758 131.247 131.298 131.748 130.8 132.21H130.762Z" fill="#26403E"/>
<path d="M121.189 20.6746C119.887 21.9066 117.82 22.0991 116.326 20.9826C88.9105 0.92393 51.3475 3.65745 27.3393 27.7971C16.6563 38.4232 9.84055 51.8983 7.6197 66.7979C7.31338 68.9154 5.36056 70.3399 3.25459 70.0319C1.14861 69.7239 -0.268142 67.7604 0.038182 65.6429C2.48878 49.0877 10.0703 34.1111 21.9404 22.2916C48.8969 -4.2351 90.3655 -7.54613 120.806 14.784C122.53 16.0545 122.874 18.4415 121.649 20.1741C121.496 20.3666 121.343 20.5591 121.189 20.7131V20.6746Z" fill="#26403E"/>
<path d="M27.1099 71.9955C27.1099 70.802 27.7225 70.186 28.9095 70.186H31.0155C32.2025 70.186 32.8151 70.802 32.8151 71.9955V79.58H41.3156V71.9955C41.3156 70.802 41.9283 70.186 43.1153 70.186H45.2213C46.4083 70.186 47.0209 70.802 47.0209 71.9955V91.8616C47.0209 93.0551 46.4083 93.6711 45.2213 93.6711H43.1153C41.9283 93.6711 41.3156 93.0551 41.3156 91.8616V84.4696H32.8151V91.8616C32.8151 93.0551 32.2025 93.6711 31.0155 93.6711H28.9095C27.7225 93.6711 27.1099 93.0551 27.1099 91.8616V71.9955Z" fill="#BD202F"/>
<path d="M56.4786 71.649C56.8233 70.648 57.4742 70.186 58.508 70.186H61.4564C62.4903 70.186 63.1412 70.6865 63.4858 71.649L70.2632 91.5921C70.493 92.2466 70.4547 92.7471 70.1866 93.0936C69.9186 93.4786 69.4591 93.6711 68.8082 93.6711H66.6639C65.6301 93.6711 64.9791 93.1706 64.6345 92.1696L63.639 88.7431H56.3638L55.3682 92.1696C55.1002 93.1706 54.411 93.6711 53.3771 93.6711H51.2328C50.5819 93.6711 50.1224 93.4786 49.8544 93.0936C49.5864 92.7086 49.5481 92.2081 49.7778 91.5921L56.5552 71.649H56.4786ZM62.2605 84.1231L60.9586 79.5415C60.8438 79.1565 60.7289 78.7715 60.6523 78.3095C60.5374 77.8475 60.4609 77.424 60.346 77.0005C60.2311 76.5385 60.1162 76.038 60.0014 75.5375H59.9248C59.8099 76.038 59.6951 76.5385 59.5802 77.0005C59.4653 77.424 59.3504 77.8475 59.2739 78.3095C59.159 78.7715 59.0824 79.195 58.9675 79.5415L57.6274 84.1231H62.2222H62.2605Z" fill="#BD202F"/>
<path d="M72.9053 71.9955C72.9053 70.802 73.5179 70.186 74.7049 70.186H76.8109C77.9979 70.186 78.6106 70.802 78.6106 71.9955V88.7431H86.3452C87.5322 88.7431 88.1449 89.3591 88.1449 90.5526V91.8616C88.1449 93.0551 87.5322 93.6711 86.3452 93.6711H74.7049C73.5179 93.6711 72.9053 93.0551 72.9053 91.8616V71.9955Z" fill="#BD202F"/>
<path d="M95.4201 71.649C95.7647 70.648 96.4156 70.186 97.4495 70.186H100.398C101.432 70.186 102.083 70.6865 102.427 71.649L109.205 91.5921C109.434 92.2466 109.396 92.7471 109.128 93.0936C108.86 93.4786 108.401 93.6711 107.75 93.6711H105.605C104.571 93.6711 103.921 93.1706 103.576 92.1696L102.58 88.7431H95.3052L94.3096 92.1696C94.0416 93.1706 93.3524 93.6711 92.3185 93.6711H90.1742C89.5233 93.6711 89.0638 93.4786 88.7958 93.0936C88.5278 92.7086 88.4895 92.2081 88.7192 91.5921L95.4966 71.649H95.4201ZM101.202 84.1231L99.9 79.5415C99.7852 79.1565 99.6703 78.7715 99.5937 78.3095C99.4788 77.8475 99.4023 77.424 99.2874 77.0005C99.1725 76.5385 99.0577 76.038 98.9428 75.5375H98.8662C98.7513 76.038 98.6365 76.5385 98.5216 77.0005C98.4067 77.424 98.2918 77.8475 98.2153 78.3095C98.1004 78.7715 98.0238 79.195 97.9089 79.5415L96.5688 84.1231H101.164H101.202Z" fill="#BD202F"/>
<path d="M111.847 71.9955C111.847 70.802 112.459 70.186 113.646 70.186H115.752C116.939 70.186 117.552 70.802 117.552 71.9955V88.7431H125.287C126.474 88.7431 127.086 89.3591 127.086 90.5526V91.8616C127.086 93.0551 126.474 93.6711 125.287 93.6711H113.646C112.459 93.6711 111.847 93.0551 111.847 91.8616V71.9955Z" fill="#BD202F"/>
<path d="M35.4953 109.187C35.4953 108.301 35.6485 107.454 35.9548 106.684C36.2611 105.914 36.7206 105.26 37.2567 104.682C37.7927 104.105 38.482 103.681 39.2861 103.335C40.0902 102.988 40.9326 102.834 41.8898 102.834C42.3493 102.834 42.7705 102.834 43.1917 102.95C43.6129 103.065 43.9575 103.104 44.3021 103.219C44.6468 103.335 44.9148 103.45 45.1828 103.604C45.4509 103.758 45.6423 103.874 45.8338 103.989C46.0635 104.143 46.2167 104.374 46.2167 104.567C46.2167 104.798 46.2167 105.029 46.0252 105.26L45.604 105.953C45.4509 106.222 45.2594 106.376 45.0297 106.415C44.7999 106.415 44.5702 106.415 44.3021 106.222C44.0341 106.068 43.6895 105.914 43.3066 105.76C42.9237 105.606 42.5025 105.529 42.043 105.529C41.4303 105.529 40.8943 105.645 40.4731 105.837C40.0519 106.03 39.669 106.299 39.401 106.646C39.1329 106.954 38.9032 107.339 38.7883 107.762C38.6734 108.186 38.5969 108.609 38.5969 109.071C38.5969 109.533 38.6734 109.995 38.7883 110.419C38.9415 110.842 39.1329 111.266 39.401 111.612C39.669 111.959 40.0519 112.228 40.4731 112.459C40.8943 112.652 41.4304 112.767 42.0047 112.767C42.5025 112.767 43.0003 112.69 43.4215 112.498C43.8427 112.305 44.2256 112.113 44.4936 111.92C45.0297 111.535 45.4509 111.612 45.7955 112.074L46.255 112.729C46.4081 112.96 46.4847 113.191 46.4847 113.422C46.4847 113.653 46.3315 113.845 46.1018 114.038C45.9103 114.192 45.6806 114.346 45.4126 114.5C45.1445 114.654 44.8382 114.846 44.4553 114.962C44.1107 115.116 43.6895 115.231 43.2683 115.308C42.8471 115.424 42.3493 115.462 41.8515 115.462C40.856 115.462 39.9753 115.308 39.2095 115C38.4437 114.692 37.7545 114.23 37.1801 113.653C36.6057 113.075 36.1846 112.421 35.9165 111.651C35.6102 110.881 35.457 110.034 35.457 109.11L35.4953 109.187Z" fill="#BD202F"/>
<path d="M48.0547 104.028C48.0547 103.412 48.361 103.065 49.012 103.065H54.7938C55.4065 103.065 55.7511 103.373 55.7511 104.028V104.721C55.7511 105.337 55.4448 105.683 54.7938 105.683H51.0796V107.916H53.8748C54.4875 107.916 54.8321 108.224 54.8321 108.879V109.572C54.8321 110.188 54.5258 110.534 53.8748 110.534H51.0796V112.844H55.0236C55.6362 112.844 55.9808 113.152 55.9808 113.807V114.5C55.9808 115.116 55.6745 115.462 55.0236 115.462H49.012C48.3993 115.462 48.0547 115.154 48.0547 114.5V104.105V104.028Z" fill="#BD202F"/>
<path d="M57.6274 104.028C57.6274 103.412 57.9337 103.065 58.5846 103.065H61.8776C62.4903 103.065 62.988 103.065 63.3327 103.142C63.6773 103.181 63.9836 103.258 64.2516 103.373C64.9409 103.643 65.4769 104.066 65.8981 104.682C66.3193 105.298 66.5108 106.03 66.5108 106.954C66.5108 107.3 66.5108 107.608 66.3959 107.955C66.281 108.301 66.2044 108.609 66.0513 108.917C65.8981 109.225 65.7067 109.495 65.4769 109.726C65.2472 109.957 64.9791 110.188 64.6728 110.303C64.6728 110.303 64.7494 110.457 64.7877 110.496C64.826 110.573 64.8643 110.65 64.9408 110.727C64.9791 110.804 65.0557 110.919 65.1323 111.073L66.8554 114.23C67.0468 114.577 67.0851 114.846 66.932 115.039C66.8171 115.231 66.5491 115.347 66.2044 115.347H64.9026C64.4048 115.347 64.0602 115.116 63.7921 114.692L61.9925 111.227H60.5757V114.423C60.5757 115.039 60.2694 115.385 59.6185 115.385H58.508C57.8954 115.385 57.5508 115.077 57.5508 114.423V104.028H57.6274ZM61.8776 108.648C62.3371 108.648 62.72 108.532 63.0263 108.263C63.3326 107.993 63.4475 107.647 63.4475 107.146C63.4475 106.838 63.4092 106.569 63.2944 106.338C63.1795 106.107 62.988 105.953 62.72 105.837C62.452 105.722 62.0691 105.683 61.6096 105.683H60.614V108.686H61.9159L61.8776 108.648Z" fill="#BD202F"/>
<path d="M70.9139 105.683H68.157C67.5443 105.683 67.1997 105.375 67.1997 104.721V104.028C67.1997 103.412 67.506 103.065 68.157 103.065H76.6575C77.2701 103.065 77.6147 103.373 77.6147 104.028V104.721C77.6147 105.337 77.3084 105.683 76.6575 105.683H73.9005V114.423C73.9005 115.039 73.5942 115.385 72.9433 115.385H71.8329C71.2202 115.385 70.8756 115.077 70.8756 114.423V105.683H70.9139Z" fill="#BD202F"/>
<path d="M78.8784 104.028C78.8784 103.412 79.1847 103.065 79.8357 103.065H80.9461C81.5588 103.065 81.9034 103.373 81.9034 104.028V114.423C81.9034 115.039 81.597 115.385 80.9461 115.385H79.8357C79.223 115.385 78.8784 115.077 78.8784 114.423V104.028Z" fill="#BD202F"/>
<path d="M84.239 104.028C84.239 103.412 84.5453 103.065 85.1962 103.065H90.7867C91.3993 103.065 91.7439 103.373 91.7439 104.028V104.721C91.7439 105.337 91.4376 105.683 90.7867 105.683H87.2256V108.263H90.0208C90.6335 108.263 90.9781 108.571 90.9781 109.225V109.918C90.9781 110.534 90.6718 110.881 90.0208 110.881H87.2256V114.5C87.2256 115.116 86.9193 115.462 86.2684 115.462H85.1579C84.5453 115.462 84.2007 115.154 84.2007 114.5V104.105L84.239 104.028Z" fill="#BD202F"/>
<path d="M93.1992 104.028C93.1992 103.412 93.5055 103.065 94.1565 103.065H95.2669C95.8796 103.065 96.2242 103.373 96.2242 104.028V114.423C96.2242 115.039 95.9178 115.385 95.2669 115.385H94.1565C93.5438 115.385 93.1992 115.077 93.1992 114.423V104.028Z" fill="#BD202F"/>
<path d="M98.5215 104.028C98.5215 103.412 98.8278 103.065 99.4787 103.065H105.261C105.873 103.065 106.218 103.373 106.218 104.028V104.721C106.218 105.337 105.912 105.683 105.261 105.683H101.546V107.916H104.342C104.954 107.916 105.299 108.224 105.299 108.879V109.572C105.299 110.188 104.993 110.534 104.342 110.534H101.546V112.844H105.49C106.103 112.844 106.448 113.152 106.448 113.807V114.5C106.448 115.116 106.141 115.462 105.49 115.462H99.4787C98.8661 115.462 98.5215 115.154 98.5215 114.5V104.105V104.028Z" fill="#BD202F"/>
<path d="M108.094 104.028C108.094 103.412 108.401 103.065 109.052 103.065H112.459C113.417 103.065 114.297 103.219 115.063 103.489C115.829 103.758 116.518 104.143 117.054 104.682C117.59 105.221 118.011 105.837 118.318 106.607C118.624 107.377 118.777 108.224 118.777 109.187C118.777 110.149 118.624 110.996 118.318 111.766C118.011 112.536 117.59 113.191 117.054 113.691C116.518 114.192 115.829 114.615 115.063 114.885C114.297 115.154 113.417 115.308 112.459 115.308H109.052C108.439 115.308 108.094 115 108.094 114.346V103.951V104.028ZM112.306 112.806C113.34 112.806 114.144 112.498 114.757 111.882C115.331 111.266 115.637 110.38 115.637 109.187C115.637 107.993 115.331 107.108 114.718 106.53C114.106 105.953 113.302 105.645 112.306 105.645H111.081V112.767H112.306V112.806Z" fill="#BD202F"/>
<path d="M37.6398 58.1354C37.6398 57.0189 38.2142 56.4414 39.3246 56.4414H42.3113V46.0463C42.3113 46.0463 42.3113 45.6998 42.3113 45.5073H42.2347C42.2347 45.5073 42.0815 45.7383 42.0049 45.8923C41.9284 46.0078 41.8901 46.0848 41.8135 46.2003C41.7369 46.3158 41.6603 46.4313 41.5455 46.5083L41.2774 46.7393C40.4733 47.5093 39.6692 47.4708 38.9034 46.6623L38.0993 45.8153C37.3335 45.0068 37.3335 44.1983 38.1759 43.3898L42.0049 39.8093C42.3496 39.5398 42.6559 39.3088 42.9622 39.1933C43.2685 39.0778 43.6514 39.0008 44.0726 39.0008H45.834C46.9444 39.0008 47.5188 39.5783 47.5188 40.6948V56.4799H50.5437C51.6541 56.4799 52.2285 57.0574 52.2285 58.1739V59.4059C52.2285 60.5224 51.6541 61.0999 50.5437 61.0999H39.2863C38.1759 61.0999 37.6015 60.5224 37.6015 59.4059V58.1739L37.6398 58.1354Z" fill="#BD202F"/>
<path d="M62.3374 61.4464C60.7675 61.4464 59.4656 61.1384 58.3934 60.5609C57.3213 59.9449 56.4789 59.1364 55.828 58.0969C55.177 57.0574 54.7176 55.8254 54.4495 54.4394C54.1815 53.0534 54.0283 51.5519 54.0283 49.9733C54.0283 48.3948 54.1815 46.8933 54.4495 45.5073C54.7176 44.1213 55.177 42.9278 55.828 41.8883C56.4789 40.8488 57.3213 40.0403 58.3934 39.4628C59.4656 38.8853 60.7675 38.5773 62.3374 38.5773C63.9073 38.5773 65.2091 38.8853 66.2813 39.4628C67.3534 40.0403 68.1958 40.8488 68.8467 41.8883C69.4977 42.9278 69.9572 44.1213 70.2252 45.5073C70.4932 46.8933 70.6464 48.3563 70.6464 49.9733C70.6464 51.5904 70.4932 53.0534 70.2252 54.4394C69.9572 55.8254 69.4977 57.0574 68.8467 58.0969C68.1958 59.1364 67.3534 59.9449 66.2813 60.5609C65.2091 61.1769 63.9073 61.4464 62.3374 61.4464ZM62.3374 56.4799C62.8734 56.4799 63.2946 56.3259 63.6775 55.9794C64.0221 55.6329 64.2902 55.1709 64.5199 54.5934C64.7497 54.0159 64.9028 53.3229 64.9794 52.5144C65.056 51.7059 65.0943 50.8588 65.0943 49.9733C65.0943 49.0878 65.056 48.2408 64.9794 47.4708C64.9028 46.7008 64.7497 46.0078 64.5199 45.4303C64.2902 44.8528 64.0221 44.3908 63.6775 44.0443C63.3329 43.6978 62.8734 43.5438 62.3374 43.5438C61.8013 43.5438 61.3801 43.6978 60.9972 44.0443C60.6526 44.3908 60.3845 44.8528 60.1548 45.4303C59.9251 46.0078 59.7719 46.7008 59.6953 47.4708C59.6187 48.2408 59.5804 49.0878 59.5804 49.9733C59.5804 50.8588 59.6187 51.7444 59.6953 52.5144C59.7719 53.3229 59.9251 54.0159 60.1548 54.5934C60.3845 55.1709 60.6526 55.6329 60.9972 55.9794C61.3418 56.3259 61.8013 56.4799 62.3374 56.4799Z" fill="#BD202F"/>
<path d="M81.6738 61.4464C80.1039 61.4464 78.802 61.1384 77.7299 60.5609C76.6577 59.9449 75.8153 59.1364 75.1644 58.0969C74.5135 57.0574 74.054 55.8254 73.7859 54.4394C73.5179 53.0534 73.3647 51.5519 73.3647 49.9733C73.3647 48.3948 73.5179 46.8933 73.7859 45.5073C74.054 44.1213 74.5135 42.9278 75.1644 41.8883C75.8153 40.8488 76.6577 40.0403 77.7299 39.4628C78.802 38.8853 80.1039 38.5773 81.6738 38.5773C83.2437 38.5773 84.5456 38.8853 85.6177 39.4628C86.6898 40.0403 87.5322 40.8488 88.1832 41.8883C88.8341 42.9278 89.2936 44.1213 89.5616 45.5073C89.8297 46.8933 89.9828 48.3563 89.9828 49.9733C89.9828 51.5904 89.8297 53.0534 89.5616 54.4394C89.2936 55.8254 88.8341 57.0574 88.1832 58.0969C87.5322 59.1364 86.6898 59.9449 85.6177 60.5609C84.5456 61.1769 83.2437 61.4464 81.6738 61.4464ZM81.6738 56.4799C82.2099 56.4799 82.6311 56.3259 83.014 55.9794C83.3586 55.6329 83.6266 55.1709 83.8563 54.5934C84.0861 54.0159 84.2393 53.3229 84.3158 52.5144C84.3924 51.7059 84.4307 50.8588 84.4307 49.9733C84.4307 49.0878 84.3924 48.2408 84.3158 47.4708C84.2393 46.7008 84.0861 46.0078 83.8563 45.4303C83.6266 44.8528 83.3586 44.3908 83.014 44.0443C82.6693 43.6978 82.2099 43.5438 81.6738 43.5438C81.1377 43.5438 80.7165 43.6978 80.3336 44.0443C79.989 44.3908 79.721 44.8528 79.4912 45.4303C79.2615 46.0078 79.1083 46.7008 79.0317 47.4708C78.9552 48.2408 78.9169 49.0878 78.9169 49.9733C78.9169 50.8588 78.9552 51.7444 79.0317 52.5144C79.1083 53.3229 79.2615 54.0159 79.4912 54.5934C79.721 55.1709 79.989 55.6329 80.3336 55.9794C80.6782 56.3259 81.1377 56.4799 81.6738 56.4799Z" fill="#BD202F"/>
<path d="M97.871 49.2418C97.1052 49.2418 96.3776 49.0878 95.6884 48.8183C94.9992 48.5488 94.4248 48.1638 93.927 47.7018C93.4293 47.2398 93.0464 46.6623 92.74 46.0078C92.4337 45.3533 92.3188 44.6603 92.3188 43.9288C92.3188 43.1973 92.472 42.5043 92.74 41.8498C93.0081 41.1953 93.4293 40.6178 93.927 40.1558C94.4248 39.6553 95.0375 39.2703 95.6884 39.0008C96.3393 38.7313 97.1052 38.5773 97.871 38.5773C98.6368 38.5773 99.3643 38.7313 100.015 39.0008C100.666 39.2703 101.279 39.6938 101.815 40.1558C102.313 40.6563 102.734 41.1953 103.002 41.8498C103.27 42.5043 103.423 43.1973 103.423 43.9288C103.423 44.6603 103.27 45.3533 103.002 46.0078C102.696 46.6623 102.313 47.2398 101.815 47.7018C101.317 48.1638 100.704 48.5488 100.015 48.8183C99.326 49.0878 98.6368 49.2418 97.871 49.2418ZM109.779 39.9633C110.277 39.2703 110.966 38.9238 111.847 38.9238H112.613C113.34 38.9238 113.8 39.1163 113.991 39.5398C114.183 39.9248 114.068 40.4253 113.608 41.0028L98.9814 60.0604C98.4836 60.7534 97.7944 61.0999 96.9137 61.0999H96.1479C95.4204 61.0999 94.9609 60.9074 94.7694 60.4839C94.578 60.0989 94.6929 59.5984 95.1523 59.0209L109.779 39.9633ZM97.871 45.5458C98.3305 45.5458 98.7517 45.3918 99.058 45.0838C99.4026 44.7758 99.5558 44.3908 99.5558 43.8903C99.5558 43.4668 99.4026 43.0818 99.058 42.7738C98.7134 42.4658 98.3305 42.3118 97.871 42.3118C97.4115 42.3118 96.9903 42.4658 96.684 42.7738C96.3393 43.0818 96.1862 43.4668 96.1862 43.8903C96.1862 44.3523 96.3393 44.7758 96.684 45.0838C97.0286 45.3918 97.4115 45.5458 97.871 45.5458ZM105.452 56.1334C105.452 55.4019 105.606 54.7089 105.874 54.0929C106.142 53.4384 106.563 52.8609 107.061 52.3989C107.558 51.8984 108.171 51.5134 108.822 51.2439C109.511 50.9744 110.239 50.8203 111.005 50.8203C111.77 50.8203 112.498 50.9744 113.149 51.2439C113.838 51.5519 114.412 51.9369 114.949 52.3989C115.446 52.8994 115.868 53.4384 116.136 54.0929C116.404 54.7474 116.557 55.4404 116.557 56.1334C116.557 56.8264 116.404 57.5579 116.136 58.2124C115.829 58.8669 115.446 59.4444 114.949 59.9064C114.451 60.3684 113.838 60.7534 113.149 61.0229C112.46 61.2924 111.77 61.4464 111.005 61.4464C110.239 61.4464 109.511 61.2924 108.822 61.0229C108.133 60.7534 107.558 60.3684 107.061 59.9064C106.563 59.4444 106.18 58.8669 105.874 58.2124C105.567 57.5579 105.452 56.8649 105.452 56.1334ZM109.32 56.0949C109.32 56.5569 109.473 56.9419 109.818 57.2884C110.162 57.6349 110.545 57.7504 111.005 57.7504C111.464 57.7504 111.885 57.5964 112.192 57.2884C112.536 56.9804 112.689 56.5954 112.689 56.0949C112.689 55.6714 112.536 55.2864 112.192 54.9784C111.847 54.6704 111.464 54.5164 111.005 54.5164C110.545 54.5164 110.124 54.6704 109.818 54.9784C109.511 55.2864 109.32 55.6714 109.32 56.0949Z" fill="#BD202F"/>
</g>
<defs>
<clipPath id="clip0_205_1258">
<rect width="155" height="153" fill="white"/>
</clipPath>
</defs>
</svg>
