<svg width="558" height="570" viewBox="0 0 558 570" fill="none" xmlns="http://www.w3.org/2000/svg">
<path d="M237.995 17.8139C240.556 21.542 247.051 31.9069 257.479 48.9291L257.786 55.6069L249.407 55.9756L250.062 70.5602L293.088 68.6552L292.432 54.0706L284.155 54.4393L283.848 47.7615C290.875 33.2383 296.325 22.3408 300.218 15.069L306.61 14.7822L306.057 0.177124L271.698 1.71343L272.354 16.298L275.939 16.1342C273.706 20.8865 271.985 24.8604 270.817 28.0559H270.448C267.682 22.4228 265.777 18.5923 264.752 16.6258L268.707 16.4414L268.051 1.85681L231.049 3.49554L231.705 18.0802L238.015 17.7934L237.995 17.8139ZM399.238 76.1728L385.756 70.5807L382.212 79.1021L361.928 70.6831L366.559 59.5398L381.003 65.5416L387.047 52.227L372.152 46.0409L376.742 34.9795L397.025 43.3984L393.521 51.8378L407.023 57.43L416.141 35.4916L351.91 8.82138L346.316 22.2999L352.156 24.717C350.086 30.1862 347.587 36.4543 344.657 43.5418C341.973 49.9943 339.555 55.6069 337.342 60.4002L331.503 57.983L325.91 71.4615L390.141 98.1317L399.279 76.1114L399.238 76.1728ZM81.9147 412.869C82.0581 413.053 86.7909 419.219 84.0455 420.96C83.021 421.615 81.9147 421.493 77.5712 415.88C76.6902 414.753 76.2189 414.221 74.4979 411.967C74.3545 411.783 72.6745 409.53 72.3876 409.1C67.286 401.664 62.6966 393.901 58.7424 385.912C28.1124 326.692 29.1163 250.799 60.1766 194.017C61.4674 191.662 64.6021 190.187 67.0607 191.252C67.1016 191.252 67.5524 191.477 67.5729 191.498C70.1954 192.645 72.8179 197.459 71.5271 199.999C43.4786 255.183 38.5409 327.02 65.524 383.945C65.524 383.945 75.133 404.45 81.8942 412.869H81.9147ZM492.009 386.485C520.221 330.154 516.82 258.235 490.001 202.436C488.772 199.855 491.497 195.103 494.14 194.017C494.181 194.017 494.631 193.792 494.672 193.792C497.151 192.768 500.266 194.325 501.495 196.701C531.326 254.159 530.67 330.052 498.77 388.595C494.652 396.522 489.898 404.163 484.633 411.496C484.326 411.926 482.605 414.139 482.461 414.323C480.679 416.535 480.208 417.047 479.306 418.154C474.84 423.664 473.713 423.746 472.709 423.09C470.004 421.288 474.881 415.224 475.024 415.061C481.97 406.785 492.009 386.506 492.009 386.506V386.485ZM407.003 108.865L417.964 99.2174L422.144 103.949C426.118 100.692 430.79 96.7183 436.117 92.0275C441.874 86.9679 446.873 82.4205 451.135 78.4261L446.955 73.6738L457.916 64.0258L486.272 96.2062C488.587 98.8487 490.165 100.672 490.984 101.716C492.234 103.294 493.566 105.096 494.98 107.104C496.414 109.111 497.5 110.914 498.258 112.512C499.036 114.171 499.671 115.932 500.122 117.776C500.614 119.763 500.696 121.565 500.389 123.204C500.061 124.822 499.405 126.523 498.463 128.284C497.459 130.087 496.065 131.766 494.324 133.303C489.243 137.789 483.691 138.567 477.687 135.658L477.483 135.843C481.437 143.647 480.269 150.325 474 155.835C471.131 158.375 468.078 159.85 464.841 160.28C461.707 160.69 458.428 159.973 455.027 158.109C451.544 156.245 448.348 153.992 445.439 151.37C442.202 148.44 438.842 144.999 435.338 141.046L407.003 108.865ZM460.088 105.834L466.562 113.187C467.853 114.642 469.164 115.482 470.537 115.707C471.91 115.912 473.385 115.318 474.983 113.925C476.54 112.552 477.298 111.201 477.257 109.91C477.196 108.62 476.499 107.227 475.188 105.711L468.693 98.357L460.088 105.834ZM439.702 123.757L446.258 131.193C448.778 134.061 450.807 135.679 452.282 136.048C453.696 136.396 455.355 135.72 457.302 134.02C459.227 132.32 460.088 130.783 459.863 129.37C459.637 127.977 458.224 125.826 455.663 122.897L449.127 115.482L439.702 123.757ZM557.961 289.739C557.284 249.918 548.085 212.228 532.084 178.306C532.084 178.306 531.326 176.442 530.097 174.66C529.42 173.697 527.781 171.628 525.384 172.612C521.799 174.066 523.479 178.06 523.479 178.06L525.118 181.747C539.316 213.395 546.18 248.464 546.815 285.274C549.294 432.288 432.716 547.94 284.114 550.46C135.512 552.959 14.0164 441.649 11.5373 294.635C10.8407 253.954 16.8438 215.833 32.7427 181.072L34.4842 176.934C34.4842 176.934 36.0209 173.206 32.8452 171.71C29.6695 170.215 28.2148 173.8 28.2148 173.8L26.1865 177.937C7.97235 215.28 -0.694201 254.916 0.0433784 299.182C2.60442 451.194 129.591 572.337 283.643 569.735C437.715 567.134 560.522 441.792 557.961 289.76V289.739ZM77.7965 132.811L69.2529 125.826L73.5964 120.5C78.2473 124.044 83.5333 128.243 89.4544 133.098C94.8633 137.502 99.5346 141.455 103.509 144.938L98.3258 151.288L109.635 160.526L137.069 126.973L125.76 117.735L120.576 124.085C116.376 120.889 111.561 117.1 106.173 112.675C100.231 107.821 95.0682 103.478 90.6632 99.6271L95.0682 94.2193L103.612 101.204L112.852 89.8971L92.9989 73.6738L48.6826 127.875L68.5358 144.098L77.776 132.791L77.7965 132.811ZM142.417 54.9104L135.901 41.8416L174.194 22.7505C187.47 36.2905 201.075 49.3388 214.986 61.916L220.395 59.2326L226.87 72.4243L191.445 90.0815L184.93 77.0127L190.318 74.3088L186.159 70.171L172.903 76.7874L173.62 82.6458L179.111 79.9009L185.627 92.9697L152.968 109.234L146.453 96.1653L151.944 93.4409C150.612 76.1319 149.321 62.3461 148.071 52.1041L142.417 54.9104ZM168.191 49.9738L168.806 62.5715L177.636 58.1674C177.636 58.1674 169.215 51.3462 168.191 49.9738ZM209.618 521.004L204.968 519.57L210.069 503.142L214.72 504.576L209.618 521.004ZM218.285 516.661L211.278 514.49L212.466 510.639L219.473 512.81L218.285 516.661ZM221.071 506.542L225.722 507.976L220.621 524.404L215.97 522.97L221.071 506.542ZM235.393 527.907L245.391 511.97L250.144 512.667L255.225 530.795L250.206 530.058L246.456 514.531L248.362 514.797L240.351 528.603L235.434 527.887L235.393 527.907ZM239.982 525.203L241.744 521.823L250.062 523.032L250.779 526.76L239.982 525.203ZM270.366 531.656L270.079 514.449L274.956 514.367L275.181 527.723L283.397 527.579L283.458 531.43L270.387 531.656H270.366ZM296.919 530.795L301.98 512.687L306.733 512.011L316.731 527.948L311.712 528.665L303.701 514.838L305.606 514.572L301.836 530.099L296.919 530.816V530.795ZM300.546 526.883L301.283 523.155L309.601 521.946L311.363 525.326L300.566 526.883H300.546ZM331.36 524.404L326.463 507.915L331.135 506.522L334.925 519.324L342.792 516.989L343.899 520.697L331.36 524.404ZM310.093 406.764C308.843 409.489 307.655 412.131 306.426 414.733C303.926 420.079 300.177 424.155 294.44 426.019C289.789 427.535 284.995 428.129 280.16 426.859C274.771 425.425 271.432 421.656 269.116 416.822C267.928 414.323 267.313 411.681 267.354 408.915C267.354 408.649 267.354 408.362 267.354 408.096C267.252 406.805 266.596 406.396 265.388 406.887C260.778 408.792 256.188 410.718 251.578 412.602C237.339 418.461 222.977 423.91 207.979 427.576C190.339 431.898 172.494 434.029 154.32 433.046C143.974 432.492 133.75 431.12 123.977 427.474C117.155 424.934 111.029 421.329 106.07 415.921C100.334 409.632 98.2029 402.156 98.961 393.798C99.678 385.809 102.403 378.497 106.603 371.696C107.218 370.713 107.996 369.811 108.775 368.951C109.123 368.562 109.656 368.255 110.148 368.152C110.537 368.07 111.111 368.255 111.397 368.541C111.623 368.767 111.643 369.361 111.52 369.688C111.008 370.938 110.455 372.208 109.779 373.396C103.448 384.888 106.849 397.485 117.892 405.331C124.203 409.817 131.312 412.418 138.77 414.057C151.739 416.925 164.872 417.539 178.087 416.576C197.325 415.163 215.949 410.718 234.163 404.634C245.493 400.845 256.619 396.441 267.826 392.323C269.28 391.791 270.776 391.299 272.292 390.971C273.583 390.685 274.198 391.422 273.644 392.549C272.538 394.802 271.944 397.014 272.845 399.493C273.952 402.504 275.775 404.982 278.234 406.99C281.266 409.468 284.81 410.493 288.662 410.923C294.051 411.537 298.476 409.366 302.697 406.539C304.807 405.126 305.75 403.016 305.75 400.435C305.709 393.655 304.643 386.997 303.27 380.402C301.508 371.86 299.521 363.359 297.636 354.858C297.554 354.53 297.472 354.141 297.534 353.834C297.882 350.147 299.439 344.083 301.549 341.339C303.352 341.666 303.824 342.506 305.094 343.94C305.258 344.124 307.102 346.849 307.204 347.156C310.544 353.301 311.978 361.474 313.351 370.467C314.682 378.251 315.748 386.813 317.797 394.433C319.005 398.899 321.689 402.709 325.746 405.228C329.782 407.748 334.228 409.305 338.838 410.431C347.669 412.602 356.663 413.463 365.719 413.729C366.252 413.729 366.969 413.504 367.317 413.115C372.603 407.318 377.848 401.5 383.052 395.662C383.523 395.13 383.933 394.372 384.035 393.655C385.408 382.962 386.125 372.269 385.429 361.454C384.425 346.05 382.663 330.707 380.655 315.406C380.634 315.18 380.552 314.955 380.491 314.607C377.909 315.16 375.369 315.713 372.808 316.246C366.661 317.516 360.535 318.786 354.389 320.056C351.93 320.568 349.492 321.1 347.033 321.49C344.534 321.899 341.993 322.125 339.473 322.452C336.503 322.841 333.532 323.313 330.561 323.599C327.098 323.927 323.615 324.132 320.153 324.316C315.133 324.583 310.298 323.968 305.381 322.923C301.529 322.104 298.251 320.957 294.788 319.38C291.387 317.823 288.13 315.795 285.2 313.562C281 310.387 276.615 305.512 273.849 300.801C271.677 296.888 270.305 293.672 268.83 289.207C268.707 288.797 268.502 287.875 268.256 287.179C267.764 289.371 267.395 291.009 266.945 292.894C265.674 298.261 263.933 303.443 261.556 308.421C260.942 309.711 260.102 310.879 259.405 312.149C258.626 313.583 258.032 315.119 257.151 316.471C255.533 318.949 253.853 321.408 252.009 323.702C246.6 330.441 240.166 335.972 231.91 338.839C227.587 340.335 223.059 341.318 218.572 342.24C211.565 343.694 204.496 344.944 197.448 346.193C195.932 346.46 194.355 346.357 192.797 346.357C192.531 346.357 192.039 346.091 192.039 345.968C192.039 345.661 192.224 345.251 192.47 345.108C193.658 344.35 194.826 343.571 196.076 342.977C202.919 339.782 209.844 336.771 216.646 333.473C227.628 328.147 238.261 322.268 246.887 313.398C253.791 306.311 259.405 298.384 262.806 289.022C264.773 283.635 265.08 278.063 264.67 272.43C263.769 259.915 262.97 247.378 261.905 234.883C260.942 223.576 259.753 212.31 258.503 201.023C256.803 185.68 254.939 170.379 253.136 155.036C252.808 152.21 252.377 149.383 252.234 146.556C252.152 145.04 252.48 143.463 252.849 141.968C253.791 138.035 254.836 134.122 255.901 130.21C256.127 129.37 256.598 128.612 256.946 127.813C257.09 127.813 257.213 127.813 257.356 127.793C257.663 128.428 258.114 129.022 258.278 129.677C259.159 133.344 260.081 137.01 260.778 140.718C263.359 154.586 265.162 168.576 266.678 182.608C268.235 197.131 269.752 211.675 271.124 226.218C272.333 239.062 273.296 251.926 274.402 264.79C274.812 269.583 276.123 274.171 277.435 278.801C278.971 284.25 281.86 289.002 285.077 293.488C288.949 298.896 293.784 303.443 299.808 306.475C301.857 307.499 304.09 308.421 306.282 309.179C307.757 309.691 308.843 310.08 310.544 310.387C311.527 310.572 312.695 310.674 313.658 310.756C322.017 311.391 330.213 309.834 338.367 308.544C351.684 306.434 364.92 303.955 378.196 301.62C378.34 301.6 378.483 301.518 378.708 301.436C378.299 298.384 377.909 295.331 377.5 292.3C377.151 289.596 376.742 286.892 376.455 284.188C376.352 283.348 376.127 282.775 375.246 282.611C375.021 282.57 374.795 282.467 374.59 282.345C373.586 281.771 372.767 281.771 372.009 282.795C370.984 284.147 369.796 284.209 368.157 283.615C361.396 281.156 354.348 279.866 347.218 278.944C343.817 278.494 340.436 278.022 336.81 277.551C337.117 276.937 337.261 276.507 337.506 276.158C340.088 272.533 342.669 268.928 345.271 265.322C346.009 264.298 347.013 263.704 348.222 263.376C352.627 262.147 357.134 261.43 361.703 261.205C365.145 261.041 368.28 262.352 371.435 263.417C372.214 263.684 372.972 263.97 373.935 264.319C373.709 262.168 373.484 260.181 373.32 258.173C372.992 254.322 372.746 250.471 372.337 246.641C372.193 245.33 371.681 244.039 371.292 242.769C371.189 242.401 370.923 242.093 370.738 241.745C368.136 237.198 368.198 238.488 370.411 233.695C372.05 230.131 373.935 226.669 375.799 223.207C376.68 221.568 377.438 221.507 378.319 223.166C379.733 225.788 381.044 228.513 382.048 231.319C384.425 237.997 386.576 244.736 388.85 251.455C389.69 253.913 390.653 256.35 391.432 258.829C391.637 259.464 391.329 260.263 391.268 260.98C390.51 260.816 389.506 260.898 389.035 260.447C387.457 258.972 386.002 257.334 384.589 255.695C383.728 254.691 383.052 253.544 382.109 252.52C382.396 254.589 382.683 256.658 382.99 258.747C383.421 261.84 383.851 264.913 384.343 268.006C384.404 268.436 384.834 268.968 385.224 269.153C406.859 278.821 429.13 286.646 452.302 291.726C458.736 293.14 465.231 294.205 471.848 294.492C472.197 294.492 472.524 294.574 473.037 294.635C472.791 295.188 472.668 295.68 472.401 296.069C469.902 299.694 467.402 303.3 464.882 306.925C463.837 308.421 462.588 308.912 460.703 308.277C451.688 305.225 442.386 305.266 433.043 306.065C418.927 307.274 405.015 309.814 391.124 312.497C390.981 312.518 390.837 312.599 390.592 312.681C390.899 315.467 391.227 318.253 391.514 321.018C392.989 335.132 394.443 349.266 393.726 363.482C393.276 372.372 392.456 381.2 389.67 390.091C390.407 389.456 390.878 389.046 391.35 388.636C398.111 382.778 405.118 377.267 412.944 372.884C417.145 370.528 421.509 368.582 426.2 367.456C432.203 366.001 438.063 366.657 443.779 368.726C450.274 371.081 456.072 374.605 461.071 379.398C462.71 380.975 464.083 382.778 464.882 384.949C465.866 387.591 465.374 390.193 464.575 392.733C463.202 397.096 461.317 401.234 458.879 405.105C456.072 409.591 451.893 412.48 447.344 414.917C440.235 418.727 432.593 421.206 424.869 423.357C411.49 427.105 397.844 429.174 383.994 429.952C373.853 430.526 363.711 430.546 353.61 429.645C344.022 428.785 334.597 427.167 325.828 422.947C319.702 419.997 314.621 415.921 311.445 409.755C310.995 408.854 310.605 407.912 310.114 406.867L310.093 406.764ZM374.549 413.77L374.693 414.057C375.061 414.077 375.451 414.118 375.82 414.118C384.322 414.303 392.804 413.75 401.246 412.684C413.477 411.128 425.504 408.588 437.346 405.187C442.017 403.856 446.607 402.238 451.114 400.414C454.269 399.144 454.413 397.895 452.139 395.375C447.365 390.131 441.567 386.465 434.867 384.191C429.601 382.409 424.233 381.815 418.763 383.044C414.522 384.007 410.547 385.686 406.736 387.776C397.926 392.61 390.243 398.96 382.888 405.74C380.061 408.362 377.336 411.066 374.549 413.75V413.77ZM387.068 287.179C387.682 291.439 388.276 295.495 388.871 299.633C396.083 298.322 403.13 297.052 410.424 295.741C402.536 292.853 394.915 290.067 387.068 287.199V287.179ZM161.348 147.416C161.983 147.805 162.475 148.051 162.905 148.379C170.568 154.483 177.882 160.977 184.807 167.921C184.95 168.064 185.114 168.187 185.196 168.351C185.442 168.843 185.668 169.334 185.913 169.846C185.36 169.949 184.766 170.215 184.254 170.092C181.754 169.498 179.296 168.802 176.817 168.146C176.407 168.044 176.018 167.9 175.526 167.9C185.34 183.427 197.551 197.029 209.454 210.999C209.25 209.729 209.065 208.479 208.84 207.209C206.033 190.187 203.144 173.185 200.46 156.142C199.395 149.301 198.801 142.377 197.94 135.495C197.879 135.064 197.53 134.593 197.202 134.286C195.625 132.832 195.502 132.524 196.321 130.558C197.735 127.178 199.149 123.819 200.624 120.459C200.993 119.619 201.566 118.882 202.181 117.878C202.57 118.534 202.898 118.923 203.062 119.353C207.426 129.841 211.79 140.329 216.093 150.858C216.359 151.534 216.052 152.455 215.826 153.316C212.61 151.349 210.52 148.338 207.713 145.737C208.307 149.116 208.901 152.251 209.434 155.405C211.442 167.429 213.491 179.453 215.417 191.477C217.097 202.047 218.633 212.658 220.272 223.248C220.375 223.883 220.723 224.58 221.133 225.092C227.054 232.282 233.18 239.308 238.876 246.682C245.207 254.855 250.226 263.827 253.177 273.823C255.225 280.767 256.209 287.896 256.496 295.127C256.537 296.315 256.291 297.523 256.106 298.711C256.045 299.121 255.82 299.531 255.553 299.858C254.918 300.678 254.18 300.616 253.771 299.633C253.217 298.261 252.767 296.847 252.398 295.434C251.845 293.283 251.353 291.112 250.902 288.94C249.427 281.955 245.965 275.851 242.379 269.829C237.114 260.98 230.783 252.929 223.96 245.248C223.817 245.084 223.653 244.941 223.264 244.572C223.591 247.03 223.899 249.181 224.186 251.311C225.517 261.389 224.759 271.222 220.764 280.665C218.572 285.847 214.802 289.862 210.704 293.549C203.431 300.104 195.338 305.512 187.04 310.633C176.448 317.188 165.487 323.026 153.644 327C146.064 329.56 138.319 331.24 130.267 331.035C123.957 330.871 117.872 329.683 112.381 326.385C105.661 322.35 101.624 316.246 99.1454 308.994C96.1131 300.084 95.4779 290.948 96.6458 281.648C97.6087 273.946 99.5551 266.51 102.669 259.402C103.284 258.03 104.104 256.74 104.882 255.429C105.128 254.998 105.517 254.63 105.927 254.363C106.214 254.179 106.685 254.056 106.992 254.159C107.177 254.22 107.361 254.773 107.3 255.06C107.033 256.637 106.869 258.235 106.378 259.73C104.677 264.933 103.284 270.177 102.731 275.646C102.034 282.652 102.342 289.596 104.595 296.335C107.853 306.045 114.778 311.78 124.551 314.197C134.344 316.635 144.015 315.959 153.603 312.948C162.044 310.305 170.055 306.7 177.82 302.521C188.7 296.663 199.436 290.559 209.332 283.082C211.257 281.628 212.978 279.927 214.761 278.289C216.666 276.527 217.629 274.253 217.506 271.693C217.26 266.592 217.056 261.492 216.461 256.432C215.58 248.976 214.372 241.54 213.327 234.105C213.183 233.06 212.794 232.22 212.097 231.421C202.099 219.766 191.732 208.418 182.533 196.086C175.362 186.479 168.642 176.606 163.151 165.934C162.864 165.381 162.167 165.012 161.594 164.623C158.541 162.615 158.787 163.619 159.238 159.891C159.668 156.224 160.303 152.578 160.877 148.912C160.938 148.461 161.143 148.031 161.348 147.355V147.416ZM319.743 471.965C317.223 476.123 314.764 480.138 312.265 484.297C306.549 480.671 300.914 477.086 295.178 473.46C298.148 468.544 301.058 463.669 304.09 458.671C309.683 462.215 315.215 465.738 320.849 469.323C323.369 465.185 325.828 461.15 328.348 457.012C334.044 460.617 339.678 464.202 345.435 467.848C342.465 472.784 339.535 477.639 336.523 482.637C330.93 479.094 325.398 475.57 319.764 471.986L319.743 471.965ZM184.274 465.042C181.283 469.999 178.353 474.853 175.362 479.831C169.646 476.205 164.011 472.621 158.275 468.995C161.245 464.058 164.196 459.183 167.187 454.185C172.903 457.811 178.517 461.375 184.274 465.021V465.042ZM384.896 154.586C383.257 157.003 381.167 159.625 378.585 162.472C369.53 165.401 355.823 170.338 337.506 177.261C326.996 181.829 321.812 184.124 321.976 184.144C321.669 183.816 322.263 182.69 323.718 180.723C325.172 178.757 326.771 177.2 328.512 176.032C330.745 174.25 336.871 171.383 346.89 167.409C358.958 162.738 371.619 158.457 384.896 154.606V154.586ZM318.043 253.564C316.24 260.037 313.351 263.294 309.355 263.294C307.143 263.294 305.504 262.475 304.397 260.816C302.062 257.088 300.873 253.093 300.873 248.812C300.873 245.781 301.427 241.581 302.533 236.194C303.783 229.578 305.975 222.122 309.151 213.866C310.4 210.835 311.363 209.319 312.039 209.319C312.306 209.462 312.449 209.811 312.449 210.343C312.449 211.306 312.101 212.76 311.425 214.686C310.052 218.68 308.106 226.198 305.627 237.239C304.52 243.445 304.807 248.136 306.446 251.311C307.553 253.524 309.13 254.63 311.199 254.63C312.449 254.63 313.474 254.138 314.293 253.175C314.846 252.479 315.604 251.373 316.567 249.857C317.121 248.607 317.53 247.993 317.817 247.993C319.067 247.993 319.128 249.857 318.022 253.585L318.043 253.564ZM374.734 184.882C375.307 185.455 375.307 186.868 374.734 189.122C374.365 191.375 373.791 192.522 373.033 192.522L371.333 190.269C370.206 188.753 368.976 188.016 367.645 188.016C365.002 188.016 363.117 192.973 361.99 202.867C360.863 212.76 359.818 217.615 358.876 217.431C357.749 217.431 356.52 215.259 355.188 210.917C353.672 205.448 351.131 201.207 347.546 198.196C347.361 198.565 347.074 198.954 346.706 199.323C346.132 199.507 344.575 198.893 342.034 197.479C339.494 196.066 338.121 194.796 337.937 193.669C337.363 188.569 338.305 186.029 340.764 186.029C345.292 185.844 350.107 190.658 355.188 200.449C355.946 202.518 356.97 204.874 358.302 207.516C358.876 202.805 359.613 198.094 360.556 193.382C362.072 184.718 364.428 180.457 367.624 180.662C370.083 180.662 372.439 182.075 374.693 184.902L374.734 184.882ZM285.528 94.4036C284.032 96.8003 282.065 99.4427 279.668 102.29C270.96 105.445 257.807 110.709 240.228 118.063C230.168 122.876 225.21 125.273 225.353 125.273C225.046 124.966 225.579 123.839 226.931 121.893C228.283 119.947 229.779 118.37 231.438 117.161C233.549 115.359 239.408 112.348 249.017 108.148C260.593 103.191 272.763 98.6029 285.528 94.4036ZM155.427 259.505C151.288 261.41 144.916 262.68 136.311 263.335C135.676 263.335 135.266 263.172 135.123 262.864C134.959 262.393 135.123 261.983 135.594 261.676C141.167 259.28 148.42 255.941 157.332 251.639C156.062 250.533 152.149 249.734 145.633 249.242C139.425 248.771 135.512 248.689 133.935 248.997C133.299 249.16 132.828 249.16 132.5 248.997C132.173 248.833 132.254 248.443 132.746 247.808C134.979 244.306 137.684 240.721 140.88 237.054C147.088 235.784 155.058 236.583 164.769 239.451C167.167 240.086 168.355 241.438 168.355 243.507C168.355 245.74 166.716 248.73 163.458 252.458C160.201 256.207 157.517 258.542 155.447 259.505H155.427ZM464.083 323.415C462.485 325.791 460.395 328.393 457.875 331.199C448.942 334.087 435.441 338.942 417.37 345.784C407.003 350.29 401.901 352.564 402.045 352.564C401.758 352.257 402.331 351.13 403.766 349.204C405.2 347.279 406.777 345.722 408.498 344.575C410.691 342.834 416.735 339.987 426.631 336.074C438.514 331.465 451.012 327.246 464.104 323.435L464.083 323.415ZM289.646 356.456C288.232 358.914 286.368 361.618 284.052 364.547C275.447 368.009 262.478 373.724 245.145 381.713C235.249 386.875 230.373 389.456 230.516 389.435C230.209 389.148 230.701 388.001 231.971 385.994C233.262 383.986 234.696 382.368 236.315 381.098C238.363 379.214 244.121 376.018 253.586 371.471C264.978 366.104 277.004 361.106 289.625 356.435L289.646 356.456ZM280.365 333.473C281.368 338.614 280.59 343.08 278.029 346.869C275.796 350.188 272.907 352.175 269.342 352.871C266.965 353.342 265.039 352.994 263.585 351.826C260.204 356.599 256.229 359.426 251.66 360.307C245.125 361.577 241.355 359.631 240.351 354.489C239.736 351.314 240.146 347.648 241.601 343.469C242.686 339.556 243.731 337.508 244.715 337.324C245.698 337.139 246.682 339.003 247.645 342.916C248.526 346.439 249.878 348.037 251.66 347.689C255.02 347.033 257.52 344.247 259.118 339.311C260.737 334.374 261.823 331.854 262.417 331.732C263.4 331.547 264.527 332.858 265.797 335.705C267.068 338.553 268.502 339.802 270.079 339.495C271.862 339.147 273.091 337.016 273.767 333.083C274.443 329.151 275.181 327.102 275.96 326.959C277.947 326.57 279.402 328.761 280.324 333.514L280.365 333.473ZM158.459 377.636C154.382 379.521 148.092 380.77 139.61 381.405C138.975 381.405 138.585 381.241 138.421 380.934C138.258 380.463 138.421 380.074 138.893 379.746C144.384 377.39 151.534 374.092 160.344 369.852C159.094 368.746 155.242 367.968 148.789 367.497C142.663 367.026 138.811 366.944 137.233 367.251C136.598 367.415 136.127 367.415 135.819 367.251C135.512 367.087 135.574 366.698 136.065 366.063C138.258 362.601 140.942 359.078 144.076 355.452C150.202 354.203 158.049 354.981 167.638 357.808C169.994 358.443 171.182 359.774 171.182 361.823C171.182 364.014 169.564 366.964 166.347 370.651C163.13 374.338 160.487 376.653 158.459 377.595V377.636ZM433.474 239.144C429.417 243.753 424.397 246.047 418.394 246.047C412.391 246.047 409.605 244.162 409.605 240.393C409.605 236.911 410.998 233.613 413.784 230.561C414.194 230.151 416.653 228.123 421.119 224.498C419.439 224.088 417.841 223.863 416.304 223.863C413.375 223.863 411.346 224.354 410.24 225.338C409.83 225.747 409.482 225.829 409.195 225.542C408.908 225.399 408.908 225.051 409.195 224.498C410.178 222.122 411.367 220.524 412.76 219.684C413.743 219.131 415.69 218.844 418.62 218.844C422.799 218.844 424.91 219.602 424.91 221.138C424.91 224.354 422.676 227.632 418.21 230.971C414.153 233.756 412.145 236.071 412.145 237.874C412.145 238.714 412.903 239.512 414.44 240.291C415.977 241.049 417.452 241.438 418.845 241.438C424.151 241.438 428.679 240.311 432.449 238.079C433.146 237.669 433.638 237.525 433.924 237.669C434.334 237.812 434.211 238.304 433.515 239.144H433.474ZM352.729 377.186C350.947 383.638 348.058 386.854 344.083 386.854C341.891 386.854 340.252 386.035 339.145 384.396C336.81 380.688 335.642 376.714 335.642 372.474C335.642 369.463 336.195 365.284 337.281 359.938C338.51 353.363 340.703 345.947 343.858 337.733C345.087 334.722 346.05 333.206 346.747 333.206C347.013 333.35 347.156 333.678 347.156 334.231C347.156 335.193 346.808 336.627 346.132 338.553C344.759 342.527 342.833 350.003 340.375 360.962C339.268 367.128 339.555 371.798 341.194 374.953C342.301 377.145 343.878 378.251 345.927 378.251C347.156 378.251 348.181 377.78 349.021 376.817C349.574 376.141 350.332 375.035 351.275 373.519C351.828 372.29 352.238 371.675 352.504 371.675C353.733 371.675 353.815 373.519 352.709 377.227L352.729 377.186Z" fill="#FFF2DA"/>
</svg>
