<svg width="77" height="176" viewBox="0 0 77 176" fill="none" xmlns="http://www.w3.org/2000/svg">
<g clip-path="url(#clip0_205_1245)">
<path d="M38.5182 165C23.5736 165 12.7781 161.003 6.46244 153.157C-0.146997 144.907 -1.6892 132.587 1.87255 116.527C2.31318 114.547 4.29602 113.3 6.24213 113.74C37.1964 120.597 42.1534 131.12 42.1534 161.333C42.1534 163.35 40.5011 165 38.4815 165H38.5182ZM8.2984 121.77C6.16869 133.723 7.49058 142.743 12.1539 148.573C16.5235 154 24.1243 157.043 34.7729 157.593C34.4791 134.897 30.9174 127.417 8.26168 121.807L8.2984 121.77Z" fill="#26403E"/>
<path d="M38.5187 176C36.4991 176 34.8468 174.35 34.8468 172.333V128.333C34.8468 105.637 31.3952 94.1234 11.6403 88.7334C10.2449 94.3434 9.98791 101.273 10.7223 105.197C11.0895 107.177 9.76759 109.083 7.78476 109.487C5.76521 109.853 3.89253 108.533 3.48862 106.553C2.27689 99.99 3.23159 89.6867 5.69177 83.0867C6.316 81.3634 8.11523 80.3734 9.91447 80.7767C37.0132 86.79 42.1539 102.153 42.1539 128.37V172.37C42.1539 174.387 40.5015 176.037 38.4819 176.037L38.5187 176Z" fill="#26403E"/>
<path d="M38.518 132C36.4984 132 34.8461 130.35 34.8461 128.333V91.6667C34.8461 70.7667 32.3125 63.7633 15.0177 59.29C13.5857 63.36 13.1451 67.6133 13.8427 71.3533C14.2099 73.3333 12.888 75.24 10.9052 75.6433C8.92237 76.01 7.01298 74.69 6.60907 72.71C5.47077 66.6233 6.53563 59.62 9.47316 53.4233C10.2075 51.8833 11.9333 51.04 13.5857 51.4067C38.1875 56.87 42.1532 67.76 42.1532 91.6667V128.333C42.1532 130.35 40.5008 132 38.4813 132H38.518Z" fill="#26403E"/>
<path d="M27.503 51.3333C25.4834 51.3333 23.8311 49.6833 23.8311 47.6667C23.8311 35.2733 35.4343 23.5767 35.9116 23.0633C37.3437 21.6333 39.657 21.6333 41.089 23.0633C42.5211 24.4933 42.5211 26.8033 41.089 28.2333C40.9789 28.3433 31.1382 38.3167 31.1382 47.63C31.1382 49.6467 29.4858 51.2967 27.4662 51.2967L27.503 51.3333Z" fill="#26403E"/>
<path d="M38.5186 29.3333C36.499 29.3333 34.8467 27.6833 34.8467 25.6667V3.66667C34.8467 1.65 36.499 0 38.5186 0C40.5381 0 42.1905 1.65 42.1905 3.66667V25.6667C42.1905 27.6833 40.5381 29.3333 38.5186 29.3333Z" fill="#26403E"/>
<path d="M12.8145 40.3333C10.7949 40.3333 9.14258 38.6833 9.14258 36.6667V14.6667C9.14258 12.65 10.7949 11 12.8145 11C14.834 11 16.4864 12.65 16.4864 14.6667V36.6667C16.4864 38.6833 14.834 40.3333 12.8145 40.3333Z" fill="#BD202F"/>
<path d="M38.5186 165C36.499 165 34.8467 163.35 34.8467 161.333C34.8467 131.12 39.8038 120.633 70.758 113.74C72.7408 113.3 74.6869 114.547 75.1276 116.527C78.6893 132.587 77.1471 144.907 70.5377 153.157C64.222 161.003 53.4266 165 38.4819 165H38.5186ZM68.7017 121.77C46.0827 127.38 42.521 134.897 42.1905 157.557C52.8391 157.007 60.4399 153.963 64.8095 148.537C69.5095 142.707 70.7947 133.687 68.665 121.733L68.7017 121.77Z" fill="#26403E"/>
<path d="M38.5186 132C36.499 132 34.8467 130.35 34.8467 128.333C34.8467 102.117 39.9874 86.79 67.0861 80.74C68.8853 80.3367 70.6845 81.3267 71.3088 83.05C73.769 89.65 74.7604 99.9533 73.5119 106.517C73.1447 108.497 71.2353 109.817 69.2158 109.45C67.2329 109.083 65.9111 107.177 66.2782 105.16C67.0126 101.237 66.7923 94.4167 65.3603 88.6967C45.6054 94.1233 42.1538 105.637 42.1538 128.297C42.1538 130.313 40.5014 131.963 38.4819 131.963L38.5186 132Z" fill="#26403E"/>
<path d="M38.5186 95.3334C36.499 95.3334 34.8467 93.6834 34.8467 91.6667C34.8467 67.76 38.8123 56.87 63.4142 51.4067C65.0665 51.04 66.7923 51.8467 67.5267 53.4234C70.4642 59.62 71.5291 66.6234 70.3908 72.71C70.0236 74.69 68.1142 76.01 66.0947 75.6434C64.1118 75.2767 62.7899 73.37 63.1571 71.3534C63.8548 67.6134 63.4142 63.3234 61.9821 59.29C44.6874 63.7267 42.1538 70.7667 42.1538 91.6667C42.1538 93.6834 40.5014 95.3334 38.4819 95.3334H38.5186Z" fill="#26403E"/>
<path d="M38.5186 29.3333C36.499 29.3333 34.8467 27.6833 34.8467 25.6667V3.66667C34.8467 1.65 36.499 0 38.5186 0C40.5381 0 42.1905 1.65 42.1905 3.66667V25.6667C42.1905 27.6833 40.5381 29.3333 38.5186 29.3333Z" fill="#BD202F"/>
<path d="M64.2217 40.3333C62.2022 40.3333 60.5498 38.6833 60.5498 36.6667V14.6667C60.5498 12.65 62.2022 11 64.2217 11C66.2413 11 67.8936 12.65 67.8936 14.6667V36.6667C67.8936 38.6833 66.2413 40.3333 64.2217 40.3333Z" fill="#BD202F"/>
<path d="M49.5337 51.3334C47.5142 51.3334 45.8618 49.6834 45.8618 47.6667C45.8618 38.3534 36.0211 28.3434 35.9109 28.27C34.4789 26.84 34.4789 24.53 35.9109 23.1C37.343 21.67 39.6563 21.67 41.0883 23.1C41.5657 23.5767 53.1689 35.31 53.1689 47.7034C53.1689 49.72 51.5166 51.37 49.497 51.37L49.5337 51.3334Z" fill="#26403E"/>
</g>
<defs>
<clipPath id="clip0_205_1245">
<rect width="77" height="176" fill="white"/>
</clipPath>
</defs>
</svg>
