<svg width="342" height="106" viewBox="0 0 342 106" fill="none" xmlns="http://www.w3.org/2000/svg">
<g clip-path="url(#clip0_209_1514)">
<path d="M51.7755 104.2C80.3137 104.2 103.448 81.0968 103.448 52.5982C103.448 24.0995 80.3137 0.996826 51.7755 0.996826C23.2373 0.996826 0.102539 24.0995 0.102539 52.5982C0.102539 81.0968 23.2373 104.2 51.7755 104.2Z" fill="white"/>
<path fill-rule="evenodd" clip-rule="evenodd" d="M32.2767 57.9909C30.2167 57.9909 28.5347 59.7054 28.531 61.8137C28.5247 63.9344 30.1955 65.6651 32.2555 65.6739H32.268C33.2999 65.6739 34.2681 65.2664 34.9931 64.525C35.7093 63.7974 36.0998 62.8354 36.0986 61.8174C36.0923 59.7154 34.3854 57.9984 32.278 57.9909M32.2156 63.5544C31.4732 63.5519 30.8605 63.0547 30.6534 62.352C31.4744 62.337 32.1557 61.0511 31.4844 60.2948C31.7115 60.1739 31.9685 60.1067 32.243 60.1092C33.1813 60.1129 33.9724 60.8954 33.9749 61.8224C33.9786 62.7769 33.1851 63.5581 32.2168 63.5556M32.2767 57.9909C30.2167 57.9909 28.5347 59.7054 28.531 61.8137C28.5247 63.9344 30.1955 65.6651 32.2555 65.6739H32.268C33.2999 65.6739 34.2681 65.2664 34.9931 64.525C35.7093 63.7974 36.0998 62.8354 36.0986 61.8174C36.0923 59.7154 34.3854 57.9984 32.278 57.9909M32.2156 63.5544C31.4732 63.5519 30.8605 63.0547 30.6534 62.352C31.4744 62.337 32.1557 61.0511 31.4844 60.2948C31.7115 60.1739 31.9685 60.1067 32.243 60.1092C33.1813 60.1129 33.9724 60.8954 33.9749 61.8224C33.9786 62.7769 33.1851 63.5581 32.2168 63.5556M32.2767 57.9909C30.2167 57.9909 28.5347 59.7054 28.531 61.8137C28.5247 63.9344 30.1955 65.6651 32.2555 65.6739H32.268C33.2999 65.6739 34.2681 65.2664 34.9931 64.525C35.7093 63.7974 36.0998 62.8354 36.0986 61.8174C36.0923 59.7154 34.3854 57.9984 32.278 57.9909M32.2156 63.5544C31.4732 63.5519 30.8605 63.0547 30.6534 62.352C31.4744 62.337 32.1557 61.0511 31.4844 60.2948C31.7115 60.1739 31.9685 60.1067 32.243 60.1092C33.1813 60.1129 33.9724 60.8954 33.9749 61.8224C33.9786 62.7769 33.1851 63.5581 32.2168 63.5556M32.2767 57.9909C30.2167 57.9909 28.5347 59.7054 28.531 61.8137C28.5247 63.9344 30.1955 65.6651 32.2555 65.6739H32.268C33.2999 65.6739 34.2681 65.2664 34.9931 64.525C35.7093 63.7974 36.0998 62.8354 36.0986 61.8174C36.0923 59.7154 34.3854 57.9984 32.278 57.9909M32.2156 63.5544C31.4732 63.5519 30.8605 63.0547 30.6534 62.352C31.4744 62.337 32.1557 61.0511 31.4844 60.2948C31.7115 60.1739 31.9685 60.1067 32.243 60.1092C33.1813 60.1129 33.9724 60.8954 33.9749 61.8224C33.9786 62.7769 33.1851 63.5581 32.2168 63.5556M32.2767 57.9909C30.2167 57.9909 28.5347 59.7054 28.531 61.8137C28.5247 63.9344 30.1955 65.6651 32.2555 65.6739H32.268C33.2999 65.6739 34.2681 65.2664 34.9931 64.525C35.7093 63.7974 36.0998 62.8354 36.0986 61.8174C36.0923 59.7154 34.3854 57.9984 32.278 57.9909M32.2156 63.5544C31.4732 63.5519 30.8605 63.0547 30.6534 62.352C31.4744 62.337 32.1557 61.0511 31.4844 60.2948C31.7115 60.1739 31.9685 60.1067 32.243 60.1092C33.1813 60.1129 33.9724 60.8954 33.9749 61.8224C33.9786 62.7769 33.1851 63.5581 32.2168 63.5556M32.2767 57.9909C30.2167 57.9909 28.5347 59.7054 28.531 61.8137C28.5247 63.9344 30.1955 65.6651 32.2555 65.6739H32.268C33.2999 65.6739 34.2681 65.2664 34.9931 64.525C35.7093 63.7974 36.0998 62.8354 36.0986 61.8174C36.0923 59.7154 34.3854 57.9984 32.278 57.9909M32.2156 63.5544C31.4732 63.5519 30.8605 63.0547 30.6534 62.352C31.4744 62.337 32.1557 61.0511 31.4844 60.2948C31.7115 60.1739 31.9685 60.1067 32.243 60.1092C33.1813 60.1129 33.9724 60.8954 33.9749 61.8224C33.9786 62.7769 33.1851 63.5581 32.2168 63.5556M51.7753 0C23.1806 0 0 23.5485 0 52.5982C0 81.6478 23.1806 105.196 51.7753 105.196C80.3699 105.196 103.551 81.6466 103.551 52.5982C103.551 23.5497 80.3699 0 51.7753 0ZM81.3943 63.6316C81.1547 66.1075 80.6244 68.4986 79.7036 70.8012C78.4858 73.8428 76.9498 76.5865 75.0769 79.0187C75.0258 79.0935 74.9671 79.167 74.9097 79.2355C72.0886 82.849 68.5213 85.7622 64.1567 87.9365C60.9499 89.5339 57.596 90.6005 54.0873 91.0627H54.0786C53.4273 91.1475 52.7722 91.2135 52.1109 91.2571C49.2611 91.444 46.4374 91.2197 43.6437 90.6204C39.3128 89.6946 35.4997 87.8268 32.2168 84.9797C31.5381 84.394 30.8855 83.766 30.2541 83.0982C28.8804 81.6403 27.6526 80.0043 26.7879 78.1802C26.3574 77.2681 26.0193 76.3099 25.8321 75.3143C25.7373 74.8109 25.6786 74.3013 25.6662 73.7879C25.6562 73.3792 25.872 72.7126 25.6998 72.3538C25.3729 72.5095 25.0286 72.659 24.6617 72.5257C24.2038 72.36 23.9667 71.8267 23.9368 71.3333C23.8969 70.6829 24.0067 69.9539 24.1951 69.3297C24.396 68.6718 24.8439 68.0338 24.9811 67.3685C24.9861 67.3361 24.9924 67.3099 24.9961 67.2837C25.0622 67.2613 25.1259 67.2351 25.1858 67.209L21.8119 66.7056L24.9138 64.2397L22.2049 60.5901L21.4962 59.6344L23.3191 59.8612L26.1303 60.2101C26.1553 60.169 26.1827 60.1254 26.2139 60.0842C26.4073 59.8288 26.6419 59.5958 26.8815 59.3777C27.5278 58.7859 27.8659 58.0595 27.8622 57.171C27.8622 56.4259 27.6551 55.7344 27.3643 55.0678C26.9239 54.0759 26.4522 53.0966 25.9868 52.1197C25.4653 51.0282 25.2282 49.8918 25.4016 48.6769C25.7572 46.1749 28.0743 44.3794 30.2554 44.5078C31.0539 44.5551 31.6479 44.8816 32.0184 45.5806C32.2156 45.9544 32.3366 46.3706 32.4888 46.7705C32.6373 47.1518 32.7534 47.5518 32.933 47.9206C33.1252 48.3131 33.4546 48.5685 33.8888 48.6682C34.5451 48.814 35.0792 48.5885 35.4797 48.0664C35.713 47.7673 35.9014 47.4284 36.0986 47.1007C36.7362 46.0316 37.511 45.0735 38.3832 44.1975C38.8548 43.7253 39.4138 43.3951 40.0614 43.2331C40.2136 43.1957 40.3646 43.1633 40.5156 43.1284H41.3304C41.5425 43.1695 41.7534 43.2069 41.9592 43.258C43.0248 43.5334 43.7722 44.1564 44.0654 45.2616C44.2102 45.8148 44.1515 46.3731 44.1079 46.9338C44.043 47.6851 43.9544 48.4389 43.9631 49.1903C43.9781 50.3105 44.8191 50.931 45.8759 50.6294C46.3313 50.4999 46.7768 50.2993 47.2035 50.0887C47.76 49.8146 48.324 49.5629 48.9379 49.4781C49.6479 49.3797 50.2755 49.5953 50.7371 50.1709C51.1676 50.7092 51.1214 51.3098 50.8806 51.9191C50.7858 52.1558 50.6985 52.3926 50.6273 52.6368C50.4926 53.0966 50.6086 53.4816 51.0054 53.7619C51.1414 53.8566 51.2762 53.9551 51.4172 54.0373C51.8127 54.2691 52.2145 54.4921 52.6088 54.7301C53.1628 55.059 53.733 55.3656 54.257 55.7431C55.1666 56.3935 55.7893 57.2595 55.9427 58.4158C56.1 59.5808 55.5173 60.8356 54.252 61.1969C54.136 61.2318 54.0274 61.3016 53.874 61.3764C54.0274 61.4897 54.1298 61.5956 54.257 61.653C55.0207 62.0205 55.7843 62.3806 56.5541 62.727C59.651 64.1251 62.8603 65.0945 66.2654 65.3013C68.6448 65.4471 70.9968 65.2677 73.3326 64.8203C74.1524 64.6621 74.931 64.3805 75.6821 64.0129C76.8487 63.4422 78.0965 63.0311 79.1783 62.2785C79.7585 61.8698 80.3424 61.4636 80.9239 61.0549C81.0799 60.944 81.2333 60.8318 81.3868 60.7185C81.3893 60.7209 81.3918 60.7209 81.3955 60.7247C81.4105 60.7322 81.4267 60.7421 81.4429 60.7496C81.2757 61.7053 81.4891 62.6573 81.3955 63.6254M81.4105 54.8323C81.3606 55.7805 81.3693 56.4284 81.3968 57.3069L81.1397 57.4987L79.6512 58.5728C79.5601 58.6401 79.464 58.7111 79.3717 58.7772C78.7902 59.1809 78.2075 59.5921 77.6273 59.997C77.117 60.3571 76.447 60.6474 75.7432 60.9502C75.3402 61.1272 74.9247 61.3103 74.4967 61.5184C73.9066 61.805 73.3588 61.9956 72.826 62.099C71.1553 62.4193 69.497 62.5813 67.8937 62.5813C67.407 62.5813 66.9142 62.5663 66.4313 62.5339C63.8722 62.3794 61.2482 61.7227 58.4307 60.5291C58.6853 59.7603 58.7676 58.913 58.6516 58.0445C58.407 56.2004 57.4301 54.6217 55.8329 53.4791C55.3401 53.1265 54.846 52.8374 54.4068 52.5807C54.2683 52.5022 54.131 52.4212 53.9975 52.3415C53.889 52.2779 53.7816 52.2131 53.6731 52.1496C53.7841 51.7197 53.8066 51.2001 53.7879 50.8039C53.7417 49.6974 53.2339 48.8875 52.8558 48.4178C51.9562 47.3001 50.681 46.6846 49.2623 46.6846C49.0377 46.6846 48.8044 46.6995 48.571 46.7319C47.9297 46.8216 47.3557 47.0048 46.8267 47.2216C46.8267 47.2041 46.8404 47.0845 46.8404 47.0845C46.8928 46.4354 46.9689 45.5407 46.7094 44.5514C46.234 42.7621 45.0499 41.45 43.338 40.7971C40.8475 39.8501 38.3857 40.3025 36.4704 42.2275C35.7517 42.949 35.1054 43.7053 34.5414 44.4928C34.5089 44.4218 34.4715 44.3483 34.4341 44.276C33.6305 42.7471 32.2044 41.8463 30.4213 41.7404C30.2965 41.7329 30.168 41.7279 30.042 41.7279C29.6327 41.7279 29.2285 41.7665 28.8304 41.8388C30.9866 37.2696 33.2961 32.3005 32.6248 32.1211C34.6362 32.6606 35.2988 35.4106 36.7699 36.77C36.267 36.3065 41.419 28.5326 42.0728 27.7114C47.1935 21.2895 48.2878 15.949 44.8977 8.23369C58.4045 15.2388 61.8358 22.1031 65.7001 32.2968C66.1668 33.5291 66.5785 34.9608 67.0277 36.2479C67.2236 36.8099 67.6479 38.0559 67.9972 38.4907C67.3596 36.1009 72.2171 32.0127 71.2364 31.052C72.015 31.8171 72.8397 32.8724 73.5023 33.8207C75.2017 36.2467 76.004 39.0589 76.6753 41.8924C77.3765 44.8641 76.7614 48.2745 77.5724 51.1054C78.0591 50.0874 79.0672 49.3112 80.0505 48.515L80.1079 48.5174L80.0941 48.4763C80.8528 47.8595 81.5889 47.2253 82.0556 46.4528C81.9945 49.2576 81.564 52.0262 81.4142 54.831M32.2767 57.9909C30.2167 57.9909 28.5347 59.7054 28.531 61.8137C28.5247 63.9344 30.1955 65.6651 32.2555 65.6739H32.268C33.2999 65.6739 34.2681 65.2664 34.9931 64.525C35.7093 63.7974 36.0998 62.8354 36.0986 61.8174C36.0923 59.7154 34.3854 57.9984 32.278 57.9909M32.2156 63.5544C31.4732 63.5519 30.8605 63.0547 30.6534 62.352C31.4744 62.337 32.1557 61.0511 31.4844 60.2948C31.7115 60.1739 31.9685 60.1067 32.243 60.1092C33.1813 60.1129 33.9724 60.8954 33.9749 61.8224C33.9786 62.7769 33.1851 63.5581 32.2168 63.5556M32.2767 57.9909C30.2167 57.9909 28.5347 59.7054 28.531 61.8137C28.5247 63.9344 30.1955 65.6651 32.2555 65.6739H32.268C33.2999 65.6739 34.2681 65.2664 34.9931 64.525C35.7093 63.7974 36.0998 62.8354 36.0986 61.8174C36.0923 59.7154 34.3854 57.9984 32.278 57.9909M32.2156 63.5544C31.4732 63.5519 30.8605 63.0547 30.6534 62.352C31.4744 62.337 32.1557 61.0511 31.4844 60.2948C31.7115 60.1739 31.9685 60.1067 32.243 60.1092C33.1813 60.1129 33.9724 60.8954 33.9749 61.8224C33.9786 62.7769 33.1851 63.5581 32.2168 63.5556M32.2767 57.9909C30.2167 57.9909 28.5347 59.7054 28.531 61.8137C28.5247 63.9344 30.1955 65.6651 32.2555 65.6739H32.268C33.2999 65.6739 34.2681 65.2664 34.9931 64.525C35.7093 63.7974 36.0998 62.8354 36.0986 61.8174C36.0923 59.7154 34.3854 57.9984 32.278 57.9909M32.2156 63.5544C31.4732 63.5519 30.8605 63.0547 30.6534 62.352C31.4744 62.337 32.1557 61.0511 31.4844 60.2948C31.7115 60.1739 31.9685 60.1067 32.243 60.1092C33.1813 60.1129 33.9724 60.8954 33.9749 61.8224C33.9786 62.7769 33.1851 63.5581 32.2168 63.5556M32.2767 57.9909C30.2167 57.9909 28.5347 59.7054 28.531 61.8137C28.5247 63.9344 30.1955 65.6651 32.2555 65.6739H32.268C33.2999 65.6739 34.2681 65.2664 34.9931 64.525C35.7093 63.7974 36.0998 62.8354 36.0986 61.8174C36.0923 59.7154 34.3854 57.9984 32.278 57.9909M32.2156 63.5544C31.4732 63.5519 30.8605 63.0547 30.6534 62.352C31.4744 62.337 32.1557 61.0511 31.4844 60.2948C31.7115 60.1739 31.9685 60.1067 32.243 60.1092C33.1813 60.1129 33.9724 60.8954 33.9749 61.8224C33.9786 62.7769 33.1851 63.5581 32.2168 63.5556M32.2767 57.9909C30.2167 57.9909 28.5347 59.7054 28.531 61.8137C28.5247 63.9344 30.1955 65.6651 32.2555 65.6739H32.268C33.2999 65.6739 34.2681 65.2664 34.9931 64.525C35.7093 63.7974 36.0998 62.8354 36.0986 61.8174C36.0923 59.7154 34.3854 57.9984 32.278 57.9909M32.2156 63.5544C31.4732 63.5519 30.8605 63.0547 30.6534 62.352C31.4744 62.337 32.1557 61.0511 31.4844 60.2948C31.7115 60.1739 31.9685 60.1067 32.243 60.1092C33.1813 60.1129 33.9724 60.8954 33.9749 61.8224C33.9786 62.7769 33.1851 63.5581 32.2168 63.5556M32.2767 57.9909C30.2167 57.9909 28.5347 59.7054 28.531 61.8137C28.5247 63.9344 30.1955 65.6651 32.2555 65.6739H32.268C33.2999 65.6739 34.2681 65.2664 34.9931 64.525C35.7093 63.7974 36.0998 62.8354 36.0986 61.8174C36.0923 59.7154 34.3854 57.9984 32.278 57.9909M32.2156 63.5544C31.4732 63.5519 30.8605 63.0547 30.6534 62.352C31.4744 62.337 32.1557 61.0511 31.4844 60.2948C31.7115 60.1739 31.9685 60.1067 32.243 60.1092C33.1813 60.1129 33.9724 60.8954 33.9749 61.8224C33.9786 62.7769 33.1851 63.5581 32.2168 63.5556M32.2767 57.9909C30.2167 57.9909 28.5347 59.7054 28.531 61.8137C28.5247 63.9344 30.1955 65.6651 32.2555 65.6739H32.268C33.2999 65.6739 34.2681 65.2664 34.9931 64.525C35.7093 63.7974 36.0998 62.8354 36.0986 61.8174C36.0923 59.7154 34.3854 57.9984 32.278 57.9909M32.2156 63.5544C31.4732 63.5519 30.8605 63.0547 30.6534 62.352C31.4744 62.337 32.1557 61.0511 31.4844 60.2948C31.7115 60.1739 31.9685 60.1067 32.243 60.1092C33.1813 60.1129 33.9724 60.8954 33.9749 61.8224C33.9786 62.7769 33.1851 63.5581 32.2168 63.5556" fill="#E3000F"/>
<path fill-rule="evenodd" clip-rule="evenodd" d="M285.393 65.1917C285.408 68.9447 285.408 69.8581 285.429 73.6073C285.443 76.0894 285.454 78.5752 285.467 81.0585C285.479 83.8434 285.504 84.353 288.439 84.9262C291.006 85.4271 295.245 85.8694 297.637 85.2476C299.813 84.6832 299.422 83.6988 299.389 81.8161C299.344 79.2269 299.301 76.6351 299.267 74.0509C299.216 70.2256 299.173 66.3916 299.106 62.5564C298.99 55.9724 300.215 53.6386 304.134 53.1004C304.758 53.0144 304.408 53.0057 305.174 53.0019C307.607 52.992 307.803 52.2693 308.207 50.0538C308.625 47.7649 308.52 44.6636 308.261 42.6886C307.987 40.6103 307.798 40.1555 305.519 40.0982C304.74 40.0782 305.005 40.0471 304.233 40.072C295.92 40.3362 288.314 43.3042 286.298 51.2201C285.195 55.5488 285.371 60.574 285.392 65.1917" fill="#E3000F"/>
<path fill-rule="evenodd" clip-rule="evenodd" d="M221.092 18.6728C218.603 18.2467 215.577 17.8866 213.295 18.5196C211.6 18.9906 210.978 19.6036 210.93 21.1075C210.88 22.6177 210.83 23.9061 210.773 25.891C210.704 28.3182 210.646 30.7555 210.582 33.1877C210.555 34.1945 209.74 34.9458 208.706 34.9209C208.024 34.9022 207.318 34.8972 206.593 34.8922C199.493 34.8399 195.886 37.9201 193.915 41.8836C191.106 47.5331 188.557 63.7101 192.084 74.5555C196.75 88.8922 223.018 89.2635 223.29 74.3324C223.343 71.7071 223.394 69.0792 223.443 66.4576C223.652 55.4802 223.839 44.5613 224.025 33.5839C224.097 29.2577 224.16 26.4492 224.226 22.5429C224.271 19.8952 224.034 19.1799 221.092 18.6753M209.933 50.5086C209.48 56.6365 209.689 63.5893 209.475 69.8904C209.411 71.8392 209.181 73.0615 206.478 72.3077C203.003 71.3395 202.728 58.1566 204.579 51.0743C205.163 48.8252 205.874 47.0546 208.145 47.2203C210.563 47.396 210.066 48.723 209.933 50.5086Z" fill="#E3000F"/>
<path fill-rule="evenodd" clip-rule="evenodd" d="M184.688 67.6563C182.386 67.3174 179.714 67.1242 177.469 67.7846C175.74 68.293 174.934 68.8163 174.904 70.4324C174.871 72.1494 174.569 74.0047 171.298 73.5699C168.748 73.2322 168.11 69.6001 168.356 66.7093C168.551 64.4129 170.189 64.9911 172.026 64.996C175.17 65.0048 178.21 64.6596 181.348 64.7232C188.92 64.8789 189.396 49.8706 187.649 43.9732C183.791 30.9561 160.716 27.5868 156.349 46.9687C155.131 52.3701 154.747 58.8008 155.15 64.7655C156.302 81.7313 165.183 86.6331 173.373 86.1883C184.361 85.5915 187.08 81.0485 187.583 71.1651C187.694 68.9534 187.458 68.0662 184.687 67.6575M172.663 45.38C175.764 45.4111 176.22 49.3024 175.732 51.4705C175.448 52.7427 173.564 52.9794 172.302 52.9508C171.219 52.9259 169.65 53.2025 169.525 51.1129C169.394 48.9386 170.086 45.3538 172.663 45.38Z" fill="#E3000F"/>
<path fill-rule="evenodd" clip-rule="evenodd" d="M150.564 72.7525C149.521 68.7976 148.471 64.8265 147.435 60.853C147.369 60.6001 147.431 60.3708 147.611 60.21C152.405 55.92 155.855 36.5407 151.052 23.779C145.098 7.94707 120.933 10.1625 108.147 11.2876C107.042 11.3848 106.261 12.1985 105.731 13.3411C104.373 16.2842 105.176 22.7298 105.866 23.4612C106.322 23.9447 106.918 24.2811 107.532 24.2014C109.188 23.9883 114.139 22.6825 115.534 24.0431C115.987 24.4867 116.214 25.0188 116.214 25.5944C116.183 42.5452 115.67 59.4064 115.357 76.3659C115.32 78.367 115.279 80.3694 115.244 82.3705C115.199 84.7529 115.863 85.5304 118.785 85.8917C121.654 86.2431 124.934 86.4798 127.693 85.6774C129.892 85.0382 130.583 84.2308 130.588 82.1948C130.595 79.7239 130.605 77.2568 130.634 74.7872C130.669 71.7905 130.7 70.0013 130.719 67.3983C130.728 66.4451 131.449 65.7511 132.433 65.7511C133.686 65.7498 135.032 65.3262 135.435 67.027C136.195 70.1745 136.815 71.3619 137.579 74.685C138.132 77.0861 138.669 79.4884 139.306 81.8758C139.686 83.31 139.967 84.8476 143.005 85.2575C145.226 85.559 148.15 85.4893 150.226 85.1005C152.574 84.6594 153.613 84.1622 152.85 81.33C152.08 78.4729 151.319 75.6058 150.563 72.7512M133.6 52.0648C132.941 52.0561 132.305 52.0511 131.673 52.0412C131.454 52.0374 131.254 51.9502 131.089 51.7857C130.922 51.6225 130.839 51.4256 130.84 51.2138C130.866 48.6794 130.892 46.5948 130.912 44.4242C130.928 42.7047 131.011 40.3012 131.023 38.2079C131.035 36.1033 130.99 34.7738 131.005 32.8313C131.027 30.3592 131.048 27.9145 131.059 25.2268C131.068 24.1665 134.829 23.4911 136.562 28.1288C139.303 35.4704 139.458 52.1371 133.602 52.0636" fill="#E3000F"/>
<path fill-rule="evenodd" clip-rule="evenodd" d="M202.343 20.9481C201.349 20.7923 200.196 20.6989 199.223 20.9655C198.476 21.1724 198.124 21.3892 198.103 22.0708C198.078 22.7934 197.936 23.5759 196.526 23.3766C195.426 23.2208 195.172 21.6857 195.294 20.4659C195.391 19.5002 196.095 19.7507 196.889 19.7631C198.246 19.7818 199.563 19.6522 200.915 19.6933C204.184 19.7943 204.168 14.87 203.447 12.3767C201.856 6.86809 191.546 6.62013 190.191 13.5069C189.722 15.802 189.463 17.0643 189.603 19.58C190.004 26.7408 193.809 28.8553 197.349 28.7058C202.098 28.5102 203.3 26.6063 203.572 22.4396C203.632 21.5088 203.538 21.1325 202.343 20.9468M197.34 12.8103C198.677 12.839 198.839 14.1984 198.617 15.1105C198.487 15.6438 197.671 15.7335 197.126 15.7161C196.662 15.7024 195.979 15.8095 195.939 14.9273C195.895 14.009 196.229 12.7892 197.342 12.8103M188.337 17.5739C187.891 13.3 187.665 9.87722 182.385 9.02868C182.043 8.97386 180.203 8.90782 179.882 8.86421C179.393 8.79568 179.016 8.37328 179.018 7.90103C179.021 6.75968 179.162 6.20894 179.164 5.06634C179.167 4.13432 179.162 3.52502 179.162 2.81728C179.159 2.1083 178.874 1.77063 178.076 1.41551C177.003 0.939532 175.96 0.885953 174.775 0.885953C172.948 0.885953 172.837 1.6859 172.817 3.08393C172.796 4.59161 172.783 5.82766 172.756 7.60448C172.667 13.5692 172.016 21.1288 172.227 26.9103C172.266 27.9432 173.122 28.4167 174.139 28.6223C174.756 28.7469 175.984 28.9089 177.011 28.7893C177.93 28.6834 178.69 28.3494 178.698 27.5607C178.715 25.5758 178.877 21.9623 178.877 21.3668C178.87 18.4012 178.96 19.3096 179.066 16.4113C179.095 15.5765 179.141 15.2775 180.289 15.3896C182.23 15.4855 182.064 17.4754 182.07 19.4279C182.077 21.353 182.251 23.3728 182.12 26.0306C182.004 28.3681 184.731 28.7681 186.576 28.57C187.937 28.4242 188.187 28.0429 188.315 26.9215C188.701 23.5149 188.503 19.1252 188.339 17.5726M170.389 0.309046C166.218 0.200643 162.129 0.306554 157.944 0.219333C157.036 0.200643 154.73 -0.0448227 154.145 0.847326C153.044 2.52696 153.453 6.78086 155.178 6.66C157.116 6.52169 160.012 5.99712 159.826 8.1303C159.449 13.9579 159.763 20.5294 159.445 26.686C159.423 27.7651 159.587 28.1899 160.877 28.3694C162.295 28.5675 163.233 28.6722 164.56 28.4304C166.237 28.1252 166.573 28.0192 166.635 26.4243C166.842 20.9431 166.325 13.0434 167 8.12532C167.078 7.55838 167.194 6.76093 168.006 6.73725L170.852 6.67122C171.79 6.69614 171.975 5.33175 172.071 3.88013C172.183 2.1843 172.017 0.352657 170.389 0.309046Z" fill="#E3000F"/>
<path fill-rule="evenodd" clip-rule="evenodd" d="M339.558 24.5628C337 23.4862 333.447 23.3031 330.932 24.032C329.084 24.5678 328.694 24.9478 328.66 26.615C328.632 27.9769 328.602 29.2129 328.573 31.0383C328.534 33.4182 328.509 35.8081 328.477 38.1917C328.461 39.2421 327.572 40.0346 326.487 39.9586C325.848 39.915 325.184 39.8788 324.501 39.8427C317.396 39.4627 313.276 42.8905 311.354 46.7631C308.616 52.2767 307.162 64.5076 310.834 75.5125C314.658 86.9808 331.307 87.9664 337.902 81.608C342.404 77.2668 341.811 62.7296 341.855 55.7581C341.89 50.2955 341.914 44.8118 341.935 39.3406C341.954 35.0792 341.984 31.8046 342 27.9769C342.006 26.2574 341.719 25.4699 339.558 24.5615M327.883 69.8107C327.849 71.5352 327.258 74.1045 324.659 72.7725C321.655 71.2349 320.259 51.9253 325.547 51.6275C328.107 51.4818 327.84 52.643 327.922 54.4236C328.139 59.2968 327.98 64.9151 327.883 69.8107Z" fill="#E3000F"/>
<path fill-rule="evenodd" clip-rule="evenodd" d="M260.444 54.1607C260.132 53.8255 259.505 53.3483 258.965 52.9558C258.76 52.8063 258.644 52.5944 258.639 52.354C258.632 52.1122 258.738 51.9104 258.938 51.7833C265.778 47.3587 269.711 21.3007 249.425 19.8067C246.702 19.6061 237.691 18.8946 232.639 19.4167C229.235 19.7693 229.539 21.4153 229.522 23.151L229.347 35.4667C229.131 49.8532 228.624 67.9603 229.582 82.1002C229.729 84.2794 230.746 84.5897 232.966 84.8464C237.352 85.3535 246.862 84.8439 249.795 84.9236C270.343 85.4806 267.069 61.2929 260.445 54.1607M243.315 33.3447C243.398 31.9517 243.908 31.771 245.835 31.9081C248.64 32.1062 249.457 32.9958 249.471 35.5751C249.491 38.978 249.501 36.9893 249.506 40.3922C249.51 42.969 248.686 43.7677 245.859 43.6206C245.236 43.5895 244.623 43.5558 244.017 43.5247C243.809 43.5147 243.629 43.4325 243.48 43.2792C243.327 43.121 243.127 36.4847 243.315 33.3435M245.988 72.8285C245.214 72.8385 243.656 73.2734 243.337 71.6199C242.859 69.1279 243.159 63.2305 243.141 60.6126C243.132 59.0949 244.154 59.4637 245.992 59.5497C248.795 59.6793 249.617 60.5577 249.622 63.1407C249.629 66.8713 249.643 65.7823 249.652 69.5079C249.659 72.1021 248.825 72.7887 245.988 72.8285Z" fill="#E3000F"/>
<path fill-rule="evenodd" clip-rule="evenodd" d="M279.281 39.1947C280.939 39.5274 281.566 39.6732 281.887 41.3317C282.505 44.5464 282.863 51.5253 280.612 52.2779C278.139 53.1053 274.182 52.8474 271.709 52.3739C269.95 52.0375 269.131 51.8643 268.819 50.1049C268.232 46.8204 267.965 39.8751 270.327 39.1536C272.829 38.3873 276.889 38.7138 279.281 39.1947Z" fill="#E3000F"/>
<path fill-rule="evenodd" clip-rule="evenodd" d="M282.147 81.7126C282.133 83.2116 282.327 83.8645 280.646 84.4963C278.031 85.4806 272.647 85.1841 270.109 84.7567C267.85 84.3766 268.154 83.5717 268.191 81.5345C268.242 78.8991 268.295 76.2638 268.344 73.6285C268.5 65.6016 268.382 67.2264 268.533 59.2008C268.634 53.686 281.072 56.4521 281.482 56.8583C282.198 57.5648 282.061 58.3548 282.054 59.2121C281.994 67.199 282.264 65.5518 282.212 73.5363C282.195 76.2551 282.173 78.9839 282.147 81.7114" fill="#E3000F"/>
<path d="M126.888 102.711L126.908 101.747V101.456L126.888 100.493V100.202L126.927 99.2391V98.9488L127.004 97.9856V97.6941L126.927 96.7309V96.4406L126.965 95.4774V95.1871L126.908 94.2239L126.927 93.9336L126.985 93.2059V92.933L126.908 92.6789L126.753 92.5331L126.501 92.4969H126.328L126.018 92.4795L125.149 92.5331H124.839L123.795 92.4795H123.485L123.255 92.5156L123.1 92.6789L123.041 92.9692L123.061 94.1504V94.442L123.1 95.6232V95.9135L123.023 97.0947L123.003 97.2941L122.925 97.4399L122.713 97.5495L122.577 97.567H122.288L121.147 97.4947L119.909 97.4586L119.62 97.476L118.885 97.5857H118.614L118.345 97.567L118.151 97.5495L118.054 97.476L117.997 97.3315L117.977 97.1134V95.6232L117.997 94.442L118.015 94.1504L118.074 93.333V93.0601L118.054 92.933L117.977 92.6975L117.822 92.5518L117.571 92.5156L117.282 92.4969H116.972L116.199 92.5518H115.889L115.077 92.5156H114.787L114.498 92.5331L114.246 92.5879L114.072 92.715L113.995 92.933V93.3156L114.091 93.9336L114.111 94.2239L114.13 95.1871L114.111 95.4774L114.053 96.4406L114.034 96.7309V97.9856L114.053 98.9488V99.2391L114.111 100.202V100.493L114.091 101.456V101.747L114.053 102.711V104.237L114.014 104.781V105.072L114.034 105.236L114.072 105.436L114.15 105.527L114.305 105.599L114.517 105.635H114.671L114.981 105.654L115.889 105.599L116.199 105.618L117.01 105.69L117.3 105.708L117.59 105.69L117.842 105.635L118.015 105.49L118.093 105.236V104.818L118.015 104.036L117.997 103.746L118.035 102.565V102.274L118.015 101.111L118.035 100.856L118.131 100.693L118.306 100.638L118.557 100.62L119.6 100.675L121.147 100.711L121.457 100.693L122.229 100.638H122.693L122.907 100.711L122.984 100.856V101.111L123.023 102.274V102.565L122.984 103.746L123.003 104.036L123.08 105.218L123.119 105.472L123.235 105.618L123.505 105.672H123.815L124.839 105.599H125.149L126.192 105.654L126.501 105.618L126.715 105.599L126.849 105.472L126.945 105.236L126.965 104.981L126.945 104.709L126.908 104.254L126.888 103.964V102.711Z" fill="#E3000F"/>
<path d="M143.714 98.3121L143.657 98.003L143.618 97.694L143.502 97.1483L143.406 96.7296L143.308 96.4754L143.172 96.2038L143.018 95.9671L142.806 95.6045L142.651 95.3677L142.516 95.131L142.361 94.8955L142.091 94.5503L141.916 94.3323L141.704 94.1317L141.492 93.9497L141.162 93.6594L140.911 93.4775L140.661 93.3143L140.023 92.9679L139.752 92.8582L139.347 92.7137L139.056 92.6227L138.767 92.5505L138.457 92.4782L138.129 92.4234L137.801 92.3511L137.471 92.2963L137.143 92.2601L136.679 92.2415L136.099 92.2053L135.48 92.2415L134.513 92.3511L134.224 92.4059L133.489 92.533L133.199 92.6065L132.91 92.6975L132.639 92.7885L132.232 92.9517L131.961 93.0788L131.691 93.2246L131.439 93.3703L130.858 93.7342L130.608 93.8974L130.357 94.0793L130.029 94.3335L129.797 94.5516L129.7 94.6974L129.507 94.9515L129.236 95.3515L129.082 95.6244L129.004 95.7876L128.869 96.0792L128.735 96.4966L128.619 96.7869L128.523 97.0586L128.425 97.3676L128.348 97.6766L128.289 97.9856L128.251 98.2946L128.231 98.6223L128.212 98.9313V99.2403L128.231 99.5494L128.251 99.8222L128.309 100.222L128.368 100.495L128.425 100.785L128.484 101.058L128.6 101.44L128.889 102.257L129.044 102.621L129.199 102.856L129.392 103.093L129.586 103.311L130.107 103.802L130.319 104.039L130.551 104.274L130.803 104.475L131.054 104.657L131.344 104.821L131.634 104.967L132.253 105.221L132.582 105.348L132.891 105.439L133.934 105.766L134.224 105.839L134.494 105.893L135.132 105.965L135.789 106.001H136.833L137.162 105.983L137.49 105.929L137.818 105.855L138.128 105.783L138.456 105.692L139.075 105.51L139.364 105.437L139.751 105.291L140.022 105.181L140.311 105.036L140.562 104.89L140.91 104.672L141.142 104.509L141.393 104.327L141.605 104.145L141.915 103.836L142.108 103.636L142.301 103.4L142.476 103.163L142.998 102.344L143.134 102.09L143.327 101.709L143.404 101.436L143.462 101.146L143.501 100.873L143.539 100.454L143.655 99.9082L143.694 99.6353L143.733 99.2179L143.751 98.9276L143.713 98.3096L143.714 98.3121ZM139.694 99.2391L139.655 99.6752L139.616 99.9481L139.52 100.367L139.404 100.64L139.211 101.04L139.036 101.294L138.785 101.584L138.592 101.783L138.282 102.075L138.05 102.238L137.625 102.492L137.354 102.601L136.929 102.692L136.619 102.728L136.136 102.764L135.808 102.745L135.324 102.691L135.035 102.636L134.629 102.509L134.338 102.399L134.029 102.253L133.758 102.09L133.371 101.781L133.139 101.563L133.023 101.436L132.81 101.182L132.713 101.037L132.558 100.782L132.48 100.636L132.384 100.382L132.346 100.255L132.268 99.9817L132.25 99.8185L132.192 99.5282L132.172 99.2378V98.965L132.192 98.6921L132.211 98.4379L132.25 98.1837L132.308 97.9295L132.367 97.8024L132.463 97.5296L132.638 97.147L132.695 97.0374L132.85 96.8019L133.062 96.529L133.274 96.311L133.583 96.0555L133.854 95.8923L134.3 95.6742L134.609 95.5646L135.112 95.4375L135.401 95.3827L135.827 95.364L136.116 95.3453L136.735 95.3814L137.045 95.4362L137.354 95.5272L137.625 95.6369L138.128 95.9097L138.34 96.073L138.629 96.3633L138.823 96.5639L139.094 96.8916L139.248 97.1283L139.46 97.5283L139.538 97.7825L139.654 98.3283L139.672 98.6186L139.692 98.9276V99.2366L139.694 99.2391Z" fill="#E3000F"/>
<path d="M155.09 93.3692L155.07 93.0963V92.9692L155.031 92.7524L154.935 92.624L154.799 92.5518L154.567 92.5156L154.412 92.4969L154.084 92.4795L153.446 92.5156H152.016L150.565 92.5331H150.257L149.135 92.5156L147.705 92.6066H147.396L146.256 92.5156H145.946L144.824 92.5879H144.515L143.8 92.5331H143.356L143.162 92.5704L143.046 92.624L142.969 92.7524L142.912 92.9879L142.892 93.2782L142.949 93.9697V94.2414L142.912 94.7871L142.93 95.0774V95.2045L142.969 95.3865L143.046 95.4961L143.162 95.5684L143.374 95.6045L143.529 95.6232H143.82L144.264 95.6045L144.592 95.5871L144.922 95.6045L145.443 95.6406H145.791L146.41 95.6045H146.7L146.893 95.6406L146.951 95.7864V96.0406L146.989 97.1134V98.494L147.009 98.7843L147.087 99.8746V100.166L147.067 101.238V101.529L147.048 102.62V103.981L147.028 104.273L146.97 105.036V105.345L147.009 105.544L147.125 105.599L147.357 105.618L148.227 105.672H148.536L149.406 105.618L149.734 105.636L150.218 105.69L150.585 105.708L150.836 105.672L150.933 105.581L150.991 105.363L150.972 105.072L150.875 104.254L150.856 103.981L150.895 102.91V101.238L150.856 100.166L150.875 99.8746L150.952 98.7843L150.972 98.494L150.895 97.4037V97.1134L150.972 96.0406L150.991 95.8051L151.068 95.6955L151.261 95.6406L151.397 95.6232H151.687L152.17 95.6593H152.479L153.369 95.6045L153.678 95.6232L154.259 95.6768H154.567L154.799 95.6406L154.915 95.5509L154.974 95.4226L155.012 95.2045L155.031 95.06L155.051 94.7684L155.031 94.2239L155.051 93.951L155.09 93.3692Z" fill="#E3000F"/>
<path d="M177.242 103.873L177.145 103.71L177.049 103.619L176.874 103.401L176.353 102.838L176.159 102.62L175.85 102.256L175.656 102.056L175.579 101.947L175.367 101.765L175.155 101.638L174.98 101.602L174.864 101.638L174.671 101.765L174.42 101.947L174.053 102.165L173.801 102.292L173.511 102.419L173.202 102.546L172.719 102.71L172.428 102.8L172.274 102.838L172.003 102.891H171.559L171.095 102.874L170.785 102.819L170.361 102.71L170.07 102.601L169.683 102.419L169.433 102.256L169.066 101.965L168.852 101.747L168.563 101.347L168.408 101.074L168.272 100.765L168.176 100.493L168.079 100.075L168.06 99.8023L168.041 99.3475V99.0572L168.079 98.5127L168.117 98.2398L168.176 97.9308L168.272 97.6392L168.388 97.3676L168.524 97.1134L168.659 96.8766L168.834 96.6224L169.066 96.3857L169.201 96.2773L169.471 96.0954L169.858 95.9135L170.109 95.8225L170.398 95.7141L170.824 95.587L171.133 95.5135L171.559 95.4774H171.868L172.351 95.5135L172.642 95.5683L173.066 95.6767L173.337 95.7677L173.762 95.9496L174.013 96.0767L174.381 96.3321L174.593 96.4405L174.729 96.4767L174.864 96.4592L175 96.4044L175.173 96.2586L175.271 96.1676L175.483 95.9496L175.811 95.587L176.024 95.3864L176.237 95.2232L176.449 95.0413L176.662 94.8419L176.835 94.6413L176.953 94.4967L176.971 94.351L176.933 94.2052L176.797 94.0781L176.682 93.9871L176.469 93.8426L175.87 93.4426L175.367 93.1149L175.096 92.9691L174.671 92.7336L174.401 92.624L173.724 92.4421L173.279 92.3698L173.009 92.3162L172.294 92.2252L171.868 92.2066L171.579 92.1879L171.153 92.2252L170.553 92.2614L170.225 92.2975L169.897 92.3523L169.239 92.4969L168.93 92.5878L168.602 92.6975L168.021 92.9517L167.751 93.0975L167.5 93.242L166.881 93.642L166.649 93.8239L166.398 94.0233L166.166 94.2239L165.934 94.4594L165.721 94.7148L165.527 94.9503L165.354 95.2045L165.18 95.4774L165.026 95.7502L164.89 96.0231L164.755 96.2773L164.619 96.6399L164.523 96.8953L164.425 97.1682L164.348 97.4398L164.271 97.8398L164.213 98.1127L164.195 98.403L164.155 99.021V99.33L164.136 99.6204L164.117 99.8932L164.136 100.311L164.175 100.584L164.368 101.129L164.503 101.492L164.793 102.256L164.987 102.637L165.122 102.891L165.276 103.147L165.45 103.401L165.663 103.672L165.875 103.909L166.107 104.127L166.61 104.527L166.881 104.69L167.132 104.854L167.364 105.018L167.731 105.217L167.983 105.327L168.408 105.472L169.278 105.69L169.567 105.781L169.897 105.854L170.225 105.908L170.553 105.944L170.882 105.963H171.888L172.371 105.926L172.719 105.908L173.395 105.836L173.878 105.745L174.206 105.69L174.536 105.599L174.825 105.508L175.271 105.308L175.522 105.181L175.908 104.981L176.14 104.836L176.507 104.582L176.739 104.418L177.088 104.127L177.242 103.981V103.873Z" fill="#E3000F"/>
<path d="M190.975 102.711L190.995 101.747V101.456L190.975 100.493V100.202L191.014 99.2391V98.9488L191.091 97.9856V97.6941L191.014 96.7309V96.4406L191.052 95.4774V95.1871L190.995 94.2239L191.014 93.9336L191.072 93.2059V92.933L190.995 92.6789L190.84 92.5331L190.588 92.4969H190.415L190.105 92.4795L189.236 92.5331H188.926L187.882 92.4795H187.574L187.342 92.5156L187.187 92.6789L187.128 92.9692L187.148 94.1504V94.442L187.187 95.6232V95.9135L187.109 97.0947L187.09 97.2941L187.012 97.4399L186.8 97.5495L186.664 97.567H186.375L185.234 97.4947L183.998 97.4586L183.707 97.476L182.972 97.5857H182.702L182.43 97.567L182.238 97.5495L182.141 97.476L182.084 97.3315L182.064 97.1134V95.6232L182.084 94.442L182.102 94.1504L182.161 93.333V93.0601L182.141 92.933L182.064 92.6975L181.909 92.5518L181.658 92.5156L181.369 92.4969H181.059L180.286 92.5518H179.976L179.164 92.5156H178.874L178.585 92.5331L178.333 92.5879L178.159 92.715L178.082 92.933V93.3156L178.178 93.9336L178.198 94.2239L178.217 95.1871L178.198 95.4774L178.139 96.4406L178.121 96.7309V97.9856L178.139 98.9488V99.2391L178.198 100.202V100.493L178.178 101.456V101.747L178.139 102.711V104.237L178.101 104.781V105.072L178.121 105.236L178.159 105.436L178.237 105.527L178.391 105.599L178.604 105.635H178.758L179.068 105.654L179.976 105.599L180.286 105.618L181.098 105.69L181.387 105.708L181.677 105.69L181.929 105.635L182.102 105.49L182.18 105.236V104.818L182.102 104.036L182.084 103.746L182.122 102.565V102.274L182.102 101.111L182.122 100.856L182.218 100.693L182.393 100.638L182.644 100.62L183.688 100.675L185.234 100.711L185.544 100.693L186.317 100.638H186.781L186.993 100.711L187.071 100.856V101.111L187.109 102.274V102.565L187.071 103.746L187.09 104.036L187.167 105.218L187.206 105.472L187.322 105.618L187.592 105.672H187.902L188.926 105.599H189.236L190.279 105.654L190.588 105.618L190.802 105.599L190.936 105.472L191.034 105.236L191.052 104.981L191.034 104.709L190.995 104.254L190.975 103.964V102.711Z" fill="#E3000F"/>
<path d="M196.861 101.801V100.221L196.899 99.2391V98.9488L196.879 97.967V97.6766L196.899 96.6773V96.3858L196.879 95.4051V93.6246L196.861 93.333L196.822 92.8608L196.802 92.6614L196.763 92.5518L196.551 92.5156H195.352L194.464 92.5518H194.154L193.69 92.5331L193.401 92.5518H193.246L193.053 92.5705L192.937 92.6427L192.878 92.8433L192.917 93.8426V95.4051L192.898 96.3858V96.6773L192.917 97.6766V99.2391L192.937 100.221V100.511L192.994 101.511L192.975 101.801L192.917 102.783L192.898 103.073L192.955 104.055V104.328L192.975 104.6V104.891L193.014 105.345V105.527L193.071 105.581L193.187 105.618L194.154 105.69H195.352L196.338 105.708L196.609 105.69L196.763 105.654L196.822 105.545V105.345L196.841 104.345V104.055L196.918 103.073V102.783L196.861 101.801Z" fill="#E3000F"/>
<path d="M211.251 103.873L211.155 103.71L211.058 103.619L210.884 103.401L210.361 102.838L210.168 102.62L209.859 102.256L209.666 102.056L209.589 101.947L209.376 101.765L209.164 101.638L208.989 101.602L208.873 101.638L208.681 101.765L208.429 101.947L208.062 102.165L207.81 102.292L207.52 102.419L207.211 102.546L206.728 102.71L206.438 102.8L206.284 102.838L206.013 102.891H205.568L205.103 102.874L204.795 102.819L204.37 102.71L204.079 102.601L203.692 102.419L203.441 102.256L203.075 101.965L202.861 101.747L202.572 101.347L202.417 101.074L202.282 100.765L202.185 100.493L202.089 100.075L202.069 99.8023L202.05 99.3475V99.0572L202.089 98.5127L202.127 98.2398L202.185 97.9308L202.282 97.6392L202.398 97.3676L202.533 97.1134L202.668 96.8766L202.842 96.6224L203.075 96.3857L203.209 96.2773L203.48 96.0954L203.867 95.9135L204.118 95.8225L204.408 95.7141L204.834 95.587L205.142 95.5135L205.568 95.4774H205.877L206.36 95.5135L206.651 95.5683L207.076 95.6767L207.347 95.7677L207.771 95.9496L208.023 96.0767L208.39 96.3321L208.602 96.4405L208.738 96.4767L208.873 96.4592L209.009 96.4044L209.182 96.2586L209.28 96.1676L209.492 95.9496L209.82 95.587L210.033 95.3864L210.245 95.2232L210.459 95.0413L210.671 94.8419L210.846 94.6413L210.962 94.4967L210.98 94.351L210.942 94.2052L210.807 94.0781L210.691 93.9871L210.477 93.8426L209.879 93.4426L209.376 93.1149L209.105 92.9691L208.681 92.7336L208.41 92.624L207.732 92.4421L207.288 92.3698L207.017 92.3162L206.302 92.2252L205.877 92.2066L205.588 92.1879L205.162 92.2252L204.563 92.2614L204.234 92.2975L203.906 92.3523L203.248 92.4969L202.939 92.5878L202.61 92.6975L202.03 92.9517L201.759 93.0975L201.509 93.242L200.89 93.642L200.658 93.8239L200.407 94.0233L200.175 94.2239L199.943 94.4594L199.731 94.7148L199.537 94.9503L199.362 95.2045L199.189 95.4774L199.034 95.7502L198.898 96.0231L198.764 96.2773L198.629 96.6399L198.531 96.8953L198.435 97.1682L198.358 97.4398L198.281 97.8398L198.222 98.1127L198.203 98.403L198.165 99.021V99.33L198.145 99.6204L198.126 99.8932L198.145 100.311L198.183 100.584L198.377 101.129L198.512 101.492L198.802 102.256L198.996 102.637L199.13 102.891L199.285 103.147L199.46 103.401L199.672 103.672L199.884 103.909L200.116 104.127L200.619 104.527L200.89 104.69L201.142 104.854L201.373 105.018L201.741 105.217L201.991 105.327L202.417 105.472L203.287 105.69L203.576 105.781L203.906 105.854L204.234 105.908L204.563 105.944L204.891 105.963H205.897L206.38 105.926L206.728 105.908L207.404 105.836L207.887 105.745L208.217 105.69L208.545 105.599L208.834 105.508L209.28 105.308L209.53 105.181L209.917 104.981L210.149 104.836L210.516 104.582L210.748 104.418L211.096 104.127L211.251 103.981V103.873Z" fill="#E3000F"/>
<path d="M223.96 104.472L223.766 104.254L222.935 103.437L222.742 103.219L221.949 102.383L221.756 102.165L221.002 101.293L220.809 101.075L219.958 100.275L219.746 100.057L219.031 99.1669L218.895 99.0024L218.856 98.894L218.954 98.7482L219.05 98.6398L219.263 98.4218L219.746 98.0031L219.958 97.785L220.654 96.9863L220.848 96.7683L221.563 95.9683L221.756 95.7503L222.51 94.969L222.703 94.751L223.381 93.9149L223.573 93.6968L224.308 92.933L224.462 92.7698L224.482 92.715L224.444 92.6789L224.346 92.6066L224.134 92.5879L223.399 92.6066H223.09L222.356 92.5879L221.176 92.5156H220.866L219.978 92.5705L219.785 92.6066L219.63 92.7524L218.954 93.4788L218.76 93.6968L218.161 94.4781L217.117 95.6593L216.518 96.4406L216.305 96.5677L216.15 96.5315L216.112 96.3322L216.093 95.369V95.0774L216.034 94.1143L216.054 93.8239L216.112 93.2246L216.131 92.9879L216.112 92.8059L216.054 92.6614L215.958 92.6066L215.744 92.5879L214.855 92.5331H214.547L213.657 92.6066H213.347L212.749 92.5518L212.459 92.5331L212.264 92.5705L212.207 92.6614L212.187 92.8795L212.13 93.8601V94.1504L212.168 96.4044V96.6948L212.13 97.6941V97.9856L212.168 98.9663V100.238L212.15 100.529L212.091 101.529L212.072 101.82V103.092L212.15 104.072L212.13 104.381L212.111 104.836V105.127L212.13 105.381L212.15 105.545L212.226 105.654L212.38 105.708L213.347 105.635L213.657 105.618L214.547 105.69H215.145L215.744 105.654L215.976 105.618L216.073 105.545L216.093 105.363L216.112 105.09V104.818L216.093 104.381V104.091L216.131 103.109V101.856L216.17 101.619L216.286 101.547L216.421 101.602L216.518 101.765L216.673 101.965L217.31 102.673L217.504 102.891L218.257 103.6L218.431 103.801L219.031 104.6L219.204 104.818L219.882 105.527L220.055 105.654L220.287 105.672L221.524 105.618H221.833L223.051 105.635H223.361L224.405 105.708H224.656L224.791 105.635L224.849 105.527L224.907 105.436L224.811 105.272L223.96 104.472Z" fill="#E3000F"/>
<path d="M236.765 102.927L236.746 102.728L236.669 102.62L236.553 102.565L235.856 102.491L235.567 102.474H235.276L233.904 102.546H233.594L232.222 102.474L231.179 102.546H230.869L229.806 102.51L229.593 102.491L229.515 102.419L229.458 102.292L229.439 102.11V101.71L229.458 101.42L229.515 100.965L229.535 100.693L229.593 100.566L229.69 100.511L229.922 100.493L230.25 100.475L231.024 100.529H231.333L232.57 100.566L234.117 100.475L234.425 100.493L235.296 100.584H235.683L235.875 100.547L236.011 100.457L236.088 100.329L236.127 100.111L236.166 99.5668L236.127 99.1482V98.5488L236.107 98.2398L236.068 97.9308L236.05 97.7302L235.991 97.6218L235.875 97.5309L235.663 97.4947L235.064 97.4586L232.899 97.567H231.063L230.444 97.6044L229.825 97.567L229.613 97.5134L229.535 97.4225L229.497 97.2954L229.478 97.0947L229.458 96.7857V96.4954L229.497 96.0593L229.535 95.8587L229.554 95.7503L229.651 95.6593L229.845 95.6232L229.999 95.6045H230.289L231.159 95.6593L232.164 95.6955H232.474L233.459 95.6593H233.769L235.586 95.6955L235.895 95.678H236.05L236.282 95.6419L236.378 95.5684L236.455 95.4413L236.494 95.2232L236.514 94.9504L236.494 94.6775L236.475 94.2239V93.9149L236.514 93.4601V92.9692L236.475 92.7337L236.437 92.6066L236.321 92.5156L236.05 92.4608H235.567L234.909 92.5156L234.58 92.5331L231.951 92.4969H231.643L230.482 92.5705H230.173L229.014 92.4969H228.704L227.525 92.5156L226.269 92.4434L226.017 92.4795L225.862 92.4969L225.766 92.5705L225.707 92.715L225.688 92.9692L225.631 93.9149V94.1878L225.592 94.7323V95.1684L225.611 95.46L225.669 96.4231L225.688 96.7135L225.611 97.6766V99.2205L225.572 100.202L225.592 100.493L225.65 101.456L225.669 101.747L225.65 102.711V103.001L225.572 103.964V104.237L225.554 104.509L225.572 104.8L225.611 105.218L225.65 105.417L225.707 105.545L225.843 105.635L226.075 105.672L226.733 105.708L228.395 105.618H228.704L229.709 105.69H231.043L231.352 105.672L232.358 105.599L232.667 105.581L233.692 105.654H234.001L236.533 105.581L236.63 105.508L236.707 105.381L236.726 105.199L236.803 104.218L236.822 103.928L236.765 102.927Z" fill="#E3000F"/>
<path d="M251.426 94.2962L251.464 94.0059L251.503 93.4427L251.484 93.1337L251.464 92.9692L251.426 92.715L251.31 92.5879L251.175 92.5331L250.961 92.497L250.517 92.4795L250.228 92.4608L249.57 92.497H249.261L248.391 92.4421L248.062 92.4608H247.888L247.656 92.497L247.521 92.5705L247.444 92.715L247.385 92.9518V93.4066L247.444 94.0782L247.463 94.3685L247.385 95.4774V95.7678L247.463 96.8767V97.167L247.405 97.9495L247.424 98.2399L247.56 99.0024V99.203L247.424 99.294L247.269 99.2753L247.115 99.1482L246.42 98.2399L246.226 98.0218L245.491 97.1496L245.317 96.9315L244.622 96.0232L244.428 95.8051L243.713 94.9142L243.52 94.6962L242.805 93.824L242.612 93.6059L241.799 92.7885L241.683 92.6241L241.587 92.5518L241.355 92.5331H239.905L239.325 92.497L238.745 92.5331L238.533 92.5705L238.417 92.6241L238.358 92.7524L238.319 92.9518L238.281 93.2246L238.262 93.4975V93.9149L238.281 94.2052L238.358 95.1871L238.378 95.4774L238.301 96.4406V96.7309L238.378 97.6941V98.9488L238.358 99.2392L238.301 100.202L238.281 100.493L238.243 102.711V103.001L238.301 103.964L238.281 104.254L238.243 104.854V105.127L238.262 105.254L238.301 105.436L238.378 105.563L238.533 105.654L238.745 105.69L239.035 105.708H239.344L240.137 105.672H240.445L241.335 105.69L241.663 105.672L241.818 105.654L242.05 105.618L242.186 105.581L242.321 105.454L242.379 105.218L242.359 104.927L242.243 104.2L242.225 103.909L242.282 102.891V102.601L242.263 101.583V101.293L242.243 100.384V100.093L242.282 99.1843L242.341 98.9663L242.476 98.9115L242.65 99.0572L243.365 99.9482L243.559 100.166L244.312 101.038L244.486 101.256L245.163 102.201L245.337 102.438L246.09 103.31L246.284 103.528L247.037 104.418L247.212 104.654L247.501 105.181L247.676 105.417L247.908 105.581L248.139 105.672L248.391 105.726H248.701L249.183 105.708L249.493 105.69L250.479 105.654L250.749 105.635L250.923 105.581L251.116 105.454L251.271 105.254L251.348 105.036L251.368 104.781L251.348 103.727L251.407 102.855L251.426 102.546L251.446 102.4V102.093L251.407 99.6927V99.4024L251.348 98.3483V95.6594L251.368 95.369L251.426 94.2962Z" fill="#E3000F"/>
<path d="M274.314 103.727L274.294 103.418L274.255 103.092L274.235 102.801L274.216 102.637L274.235 102.473V102.436L274.216 102.4L274.043 102.383L273.754 102.364L273.464 102.292L273.309 102.22L273.097 102.02L273 101.911L272.884 101.62L272.865 101.456L272.826 101.147L272.845 100.929V100.511L272.865 100.348L273.387 100.312L273.638 100.276L273.947 100.257H274.16L274.218 100.24V99.9668L274.236 99.7126V98.4765L274.198 98.2398L274.178 97.9669V97.6766H273.037L272.903 97.6953H272.632L272.497 97.6766L272.226 97.6591L271.956 97.623H271.685L271.55 97.6056H271.279L271.145 97.623L270.874 97.6404L270.603 97.6766L270.332 97.6953L270.197 97.714H269.791L269.23 97.6778H268.96L268.825 97.6604H268.438L267.878 97.6417H267.607L267.471 97.6242H267.182L266.892 97.5881L266.583 97.5158L266.312 97.3701L266.08 97.2068L265.887 96.9888L265.77 96.7346L265.693 96.4256V96.1353L265.732 96.0256L265.828 95.7889L265.887 95.6979L266.06 95.516L266.176 95.4437L266.408 95.3166L266.524 95.2618L266.795 95.1708L266.911 95.1347L267.182 95.0799L267.336 95.0437L267.607 95.0263H267.742L268.013 95.0437L268.129 95.0799L268.399 95.1522L268.516 95.207L268.786 95.3889L268.998 95.6256L269.056 95.7353L269.153 95.972L269.192 96.1178L269.23 96.2449L269.269 96.281L269.327 96.2997L270.41 96.3533L270.892 96.372H271.241L271.395 96.3533L272.13 96.3172H272.672L272.807 96.2623V96.0991L272.787 95.972L272.768 95.7178V95.6094L272.709 95.3004L272.613 94.974L272.516 94.7011L272.458 94.574L272.361 94.3559L272.304 94.2463L272.168 94.0282L272.11 93.9373L271.917 93.7018L271.646 93.4476L271.337 93.2295L271.066 93.0838L270.95 93.0115L270.602 92.847L270.312 92.7199L269.964 92.629L269.52 92.538L269.113 92.4844L268.398 92.3748L268.089 92.3561L267.606 92.3199H266.968L266.64 92.3374L266.292 92.3735L265.964 92.4271L264.978 92.6452L264.65 92.7548L264.012 92.9729L263.723 93.1L263.433 93.2644L263.144 93.4464L262.893 93.647L262.642 93.865L262.429 94.1018L262.256 94.3559L262.101 94.6463L261.966 94.9366L261.869 95.2456L261.791 95.5359L261.733 95.8449L261.694 96.1714V96.4978L261.714 96.7882V96.8978L261.771 97.152L261.791 97.2978L261.889 97.552L261.927 97.6791L262.082 97.9519L262.257 98.2061L262.354 98.3158L262.529 98.4977L262.645 98.57L262.857 98.7332L262.973 98.8055L263.109 98.879L263.128 98.9151V98.9513L263.109 98.9874L262.704 99.2416L262.451 99.4235L262.239 99.6229L262.027 99.8409L261.834 100.059L261.659 100.313L261.524 100.567L261.408 100.822L261.331 101.112L261.274 101.385L261.255 101.656V101.929L261.274 102.075L261.294 102.329V102.439L261.351 102.729L261.428 103.074L261.506 103.365L261.563 103.474L261.659 103.711L261.698 103.838L261.853 104.092L262.065 104.383L262.335 104.637L262.568 104.836L262.684 104.908L262.897 105.054L262.994 105.109L263.226 105.236L263.361 105.291L263.651 105.401L263.96 105.51L264.404 105.601L264.714 105.674L265.177 105.747L265.506 105.766L265.989 105.802H267.536L267.903 105.766L268.212 105.693L268.328 105.675L268.599 105.585L269.025 105.403L269.334 105.257L269.662 105.094L269.933 104.912L270.32 104.658L270.571 104.44L270.725 104.295H270.823L270.861 104.332L270.959 104.496L271.132 104.769L271.325 105.023L271.538 105.241L271.808 105.404L272.099 105.531L272.757 105.676L273.085 105.713H273.761L274.07 105.676L274.245 105.659H274.265L274.285 105.622V105.296L274.324 104.642V104.35L274.342 104.187V103.897L274.324 103.732L274.314 103.727ZM269.249 100.82L269.229 101.093L269.211 101.347L269.191 101.474L269.133 101.711L269.075 101.838L268.958 102.039L268.881 102.149L268.669 102.348L268.398 102.511L268.282 102.583L268.05 102.693L267.915 102.729L267.665 102.82L267.549 102.856L267.143 102.911L266.834 102.892L266.485 102.856L266.156 102.784L265.847 102.693L265.576 102.547L265.344 102.329L265.189 102.075L265.093 101.766L265.112 101.421L265.209 101.112L265.402 100.875L265.673 100.712L265.963 100.566L266.291 100.456L266.619 100.384L266.947 100.348H267.894L268.378 100.312H269.055L269.229 100.329L269.268 100.384L269.287 100.53L269.248 100.82H269.249Z" fill="#E3000F"/>
<path d="M295.055 94.2239V93.9336L295.094 93.3878V93.115L295.075 92.9517L295.055 92.7524L294.978 92.6427L294.861 92.5879L294.649 92.5705L294.32 92.5331L294.012 92.5156L293.528 92.4969H293.219L292.078 92.5518H291.77L290.629 92.4969L290.32 92.5156L289.179 92.5705H288.87L287.748 92.5156H287.439L286.298 92.5705H285.989L285.255 92.5156H284.83L284.636 92.5518L284.52 92.6066L284.481 92.7337L284.463 92.9517L284.423 93.9149V95.46L284.384 96.4219V97.967L284.347 98.9301V99.2205L284.404 100.202V100.493L284.463 101.456L284.443 101.747L284.365 102.711L284.347 103.001L284.365 103.964L284.384 104.254L284.443 105.218L284.463 105.417L284.501 105.545L284.616 105.618L284.83 105.654L285.41 105.69L286.202 105.635H286.512L287.226 105.654L287.536 105.635L287.864 105.599L288.076 105.563L288.193 105.508L288.251 105.399L288.27 105.181L288.29 104.872L288.31 104.582L288.29 104.182V103.892L288.367 102.874V102.582L288.386 101.547V101.31L288.463 101.202L288.656 101.147L288.927 101.111L289.218 101.093L291.305 101.129H291.615L292.774 101.093L293.083 101.111L293.798 101.202H294.263L294.495 101.147L294.591 101.075L294.649 100.929L294.688 100.711L294.707 100.42L294.727 100.147L294.707 99.7301V99.4572L294.745 98.9114L294.727 98.6398L294.707 98.494L294.668 98.276L294.591 98.1302L294.475 98.0392L294.263 98.0031H293.798L293.065 98.0579L292.774 98.0766H291.305L290.145 98.0392L289.836 98.0579L289.179 98.1127H288.676L288.444 98.0579L288.347 97.9857L288.328 97.876L288.31 97.6766L288.347 96.0593L288.367 95.8051L288.444 95.678L288.638 95.6232H289.063L289.933 95.678L292.136 95.6045H293.393L293.702 95.6232L294.283 95.6955H294.688L294.9 95.6406L295.016 95.5497L295.075 95.4226L295.094 95.2232L295.113 94.9504L295.094 94.66L295.055 94.2239Z" fill="#E3000F"/>
<path d="M309.426 105.199L309.251 104.998L308.653 104.344L308.459 104.126L307.763 103.218L307.57 103L306.873 102.109L306.699 101.891L306.002 100.964L305.925 100.818L306.08 100.764L306.331 100.709L306.581 100.582L306.813 100.455L307.2 100.255L307.414 100.091L307.722 99.801L307.896 99.6016L308.07 99.3836L308.245 99.1469L308.418 98.8752L308.553 98.6023L308.669 98.3295L308.746 98.0391L308.805 97.7301L308.843 97.4211L308.862 97.1308V96.8405L308.824 96.4405L308.805 96.1502L308.746 95.8599L308.65 95.5695L308.514 95.2967L308.379 95.0425L308.147 94.6973L307.974 94.4618L307.703 94.098L307.51 93.8799L307.316 93.698L307.104 93.5348L306.737 93.298L306.486 93.1523L306.197 93.0252L305.888 92.9155L305.598 92.8059L305.309 92.7149L304.902 92.6053L304.612 92.5504L304.284 92.5317H303.549L302.273 92.4595H301.963L300.65 92.5317L298.349 92.4595L297.479 92.4233L297.188 92.442L297.034 92.4607L296.801 92.5155L296.685 92.6613L296.628 92.8981L296.608 93.0077L296.589 93.2806L296.628 93.8799V94.1703L296.647 95.1521V95.4424L296.608 96.4056V96.6972L296.549 97.679V97.9706L296.608 98.9525V99.2428L296.549 100.225V100.515L296.569 101.478L296.589 101.768L296.647 102.75V103.041L296.569 104.021L296.549 104.313L296.511 104.785L296.531 105.058L296.549 105.312L296.588 105.494L296.704 105.568L296.936 105.604L297.826 105.659H298.135L299.025 105.604L299.953 105.659H300.263L300.475 105.604L300.572 105.513L300.611 105.295L300.631 105.003V104.713L300.611 104.277L300.592 103.986L300.515 102.968L300.496 102.678L300.535 101.679L300.593 101.442L300.748 101.332L300.999 101.314L301.618 101.35L301.85 101.369L301.966 101.422L302.102 101.568L302.721 102.349L302.895 102.567L303.437 103.403L303.61 103.621L304.229 104.403L304.404 104.621L305.023 105.438L305.178 105.584L305.351 105.656H305.602L306.471 105.62H306.781L307.844 105.639H309.197L309.447 105.566L309.525 105.402L309.427 105.203L309.426 105.199ZM304.903 97.4946L304.826 97.785L304.69 98.0578L304.496 98.2759L304.264 98.403L304.012 98.4939L303.588 98.5662L302.312 98.6385H302.002L300.996 98.5662L300.764 98.5301L300.63 98.4753L300.591 98.3656L300.571 98.165L300.61 97.1657L300.591 96.8567L300.552 96.5477L300.513 96.2573L300.495 95.8387L300.513 95.6393L300.63 95.5297L300.764 95.4748L300.996 95.4574L301.982 95.4026H302.292L303.259 95.4213L303.568 95.4574L303.993 95.5484L304.264 95.658L304.476 95.8212L304.651 96.0393L304.786 96.3122L304.863 96.585L304.902 96.8941L304.922 97.2031L304.902 97.4934L304.903 97.4946Z" fill="#E3000F"/>
<path d="M314.325 101.801V100.221L314.364 99.2391V98.9488L314.345 97.967V97.6766L314.364 96.6773V96.3858L314.345 95.4051V93.6246L314.325 93.333L314.287 92.8608L314.268 92.6614L314.229 92.5518L314.016 92.5156H312.818L311.928 92.5518H311.62L311.156 92.5331L310.865 92.5518H310.711L310.517 92.5705L310.401 92.6427L310.344 92.8433L310.382 93.8426V95.4051L310.362 96.3858V96.6773L310.382 97.6766V99.2391L310.401 100.221V100.511L310.46 101.511L310.44 101.801L310.382 102.783L310.362 103.073L310.421 104.055V104.328L310.44 104.6V104.891L310.479 105.345V105.527L310.537 105.581L310.653 105.618L311.62 105.69H312.818L313.804 105.708L314.075 105.69L314.229 105.654L314.287 105.545V105.345L314.307 104.345V104.055L314.384 103.073V102.783L314.325 101.801Z" fill="#E3000F"/>
<path d="M327.382 102.927L327.362 102.728L327.285 102.62L327.169 102.565L326.473 102.491L326.183 102.474H325.894L324.521 102.546H324.212L322.839 102.474L321.795 102.546H321.485L320.422 102.51L320.21 102.491L320.133 102.419L320.074 102.292L320.055 102.11V101.71L320.074 101.42L320.133 100.965L320.153 100.693L320.21 100.566L320.307 100.511L320.538 100.493L320.868 100.475L321.64 100.529H321.949L323.187 100.566L324.733 100.475L325.043 100.493L325.912 100.584H326.299L326.493 100.547L326.627 100.457L326.705 100.329L326.743 100.111L326.782 99.5668L326.743 99.1482V98.5488L326.725 98.2398L326.686 97.9308L326.666 97.7302L326.609 97.6218L326.493 97.5309L326.28 97.4947L325.68 97.4586L323.515 97.567H321.679L321.061 97.6044L320.442 97.567L320.229 97.5134L320.153 97.4225L320.114 97.2954L320.094 97.0947L320.074 96.7857V96.4954L320.114 96.0593L320.153 95.8587L320.171 95.7503L320.268 95.6593L320.461 95.6232L320.616 95.6045H320.906L321.776 95.6593L322.78 95.6955H323.09L324.076 95.6593H324.385L326.203 95.6955L326.511 95.678H326.666L326.898 95.6419L326.995 95.5684L327.073 95.4413L327.111 95.2232L327.13 94.9504L327.111 94.6775L327.091 94.2239V93.9149L327.13 93.4601V92.9692L327.091 92.7337L327.053 92.6066L326.937 92.5156L326.666 92.4608H326.183L325.526 92.5156L325.197 92.5331L322.568 92.4969H322.259L321.099 92.5705H320.79L319.63 92.4969H319.32L318.141 92.5156L316.885 92.4434L316.634 92.4795L316.479 92.4969L316.383 92.5705L316.325 92.715L316.306 92.9692L316.247 93.9149V94.1878L316.209 94.7323V95.1684L316.227 95.46L316.286 96.4231L316.306 96.7135L316.227 97.6766V99.2205L316.19 100.202L316.209 100.493L316.267 101.456L316.286 101.747L316.267 102.711V103.001L316.19 103.964V104.237L316.17 104.509L316.19 104.8L316.227 105.218L316.267 105.417L316.325 105.545L316.461 105.635L316.692 105.672L317.349 105.708L319.011 105.618H319.32L320.326 105.69H321.66L321.969 105.672L322.974 105.599L323.283 105.581L324.308 105.654H324.617L327.15 105.581L327.246 105.508L327.324 105.381L327.344 105.199L327.421 104.218L327.44 103.928L327.382 102.927Z" fill="#E3000F"/>
<path d="M340.323 101.256L340.284 100.984L340.207 100.584L340.129 100.311L339.993 100.039L339.838 99.8023L339.608 99.4758L339.414 99.2578L339.201 99.0397L338.641 98.6036L338.39 98.4578L338.119 98.312L337.848 98.185L337.462 98.0217L336.92 97.8398L336.631 97.7675L336.185 97.6766L335.567 97.4947L334.91 97.3489L334.582 97.2953L333.924 97.2579L333.441 97.2031L333.151 97.1495L333.016 97.0947L332.784 96.9863L332.57 96.8044L332.417 96.5676L332.358 96.3309L332.397 96.0406L332.532 95.7864L332.629 95.6767L332.861 95.5135L332.977 95.4599L333.287 95.369L333.615 95.3141L333.943 95.2954H334.446L334.949 95.3316L335.258 95.3503L335.702 95.4412L336.032 95.5135L336.185 95.5509L336.476 95.6406L336.611 95.6954L336.901 95.8051L337.191 95.9683L337.384 96.0592L337.52 96.0767L337.675 96.0231L337.906 95.8412L338.119 95.587L338.854 94.6774L339.007 94.4606L339.221 94.0968L339.337 93.8962V93.7142L339.162 93.551L338.911 93.3878L338.641 93.2607L338.274 93.0601L337.983 92.9517L337.694 92.8246L337.384 92.7149L337.056 92.624L336.747 92.533L336.417 92.4607L335.761 92.3523L335.451 92.3162L335.315 92.2788L335.026 92.2427L334.446 92.1879H334.136L333.847 92.2066L333.537 92.2427L333.112 92.3162L332.532 92.3885L332.223 92.4421L331.778 92.5156L331.489 92.6065L330.908 92.8246L330.542 93.0239L330.271 93.151L330.019 93.3155L329.768 93.4974L329.458 93.7691L329.265 93.9697L329.11 94.1877L328.976 94.4419L328.782 94.8419L328.685 95.1148L328.609 95.3503L328.55 95.6231L328.511 96.0592L328.491 96.3496L328.531 96.9315L328.589 97.3314L328.646 97.6031L328.782 97.9856L328.898 98.2572L329.072 98.5301L329.246 98.7668L329.575 99.021L329.827 99.1843L330.116 99.3475L330.367 99.512L331.024 99.821L331.315 99.9481L331.605 100.039L332.03 100.184L332.34 100.257L332.918 100.365L334.755 100.529L335.083 100.584L335.413 100.656L335.702 100.765L335.857 100.82L336.109 101.002L336.205 101.111L336.36 101.365L336.398 101.511L336.417 101.82L336.302 102.092L336.205 102.22L336.012 102.4L335.761 102.546L335.47 102.656L335.315 102.692L335.006 102.728L333.788 102.8L333.48 102.783L333.035 102.764L332.725 102.71L332.417 102.62L332.126 102.529L331.682 102.328L331.411 102.201L331.122 102.055L330.503 101.656L330.289 101.511L330.077 101.474L329.864 101.583L329.672 101.783L329.497 101.983L329.169 102.455L328.994 102.656L328.453 103.128L328.261 103.327L328.183 103.418L328.086 103.581L328.106 103.71L328.261 103.873L328.473 104.072L328.705 104.254L329.053 104.508L329.285 104.69L329.904 105.09L330.155 105.236L330.425 105.363L330.715 105.49L330.986 105.617L331.411 105.745L331.701 105.836L332.03 105.889L332.32 105.926L332.764 105.963L333.035 105.981H333.46L334.387 105.926L334.833 105.908L335.103 105.889L335.529 105.854L335.818 105.817L336.302 105.745L336.611 105.69L337.191 105.508L337.635 105.363L337.906 105.236L338.196 105.09L338.447 104.927L338.834 104.69L339.066 104.491L339.298 104.273L339.492 104.055L339.724 103.727L339.858 103.492L340.032 103.128L340.129 102.874L340.227 102.474L340.284 102.183L340.323 101.874L340.341 101.565L340.323 101.256Z" fill="#E3000F"/>
</g>
<defs>
<clipPath id="clip0_209_1514">
<rect width="342" height="106" fill="white"/>
</clipPath>
</defs>
</svg>
