<svg width="167" height="71" viewBox="0 0 167 71" fill="none" xmlns="http://www.w3.org/2000/svg">
<g clip-path="url(#clip0_205_1311)">
<path d="M5.28718 14.792C2.3127 14.9938 0 17.4641 0 20.4448V54.2735C0 57.5511 2.7771 60.1467 6.05111 59.924L28.5257 58.407C31.2912 58.2215 33.9684 59.314 35.8632 61.3343C40.7811 66.5743 48.7711 71.7562 60.611 70.9072C73.6768 69.9724 81.7063 63.0995 86.1459 57.4908C87.7365 55.482 90.1095 54.2527 92.6684 54.081L156.063 49.8037C159.04 49.6019 161.351 47.1315 161.351 44.1532V10.3245C161.351 7.0469 158.573 4.4513 155.299 4.67398L5.28718 14.792Z" fill="#BD202F"/>
<path d="M164.546 4.90359C163.192 4.90359 162.091 3.80411 162.091 2.4518C162.091 1.09948 163.192 0 164.546 0C165.899 0 167 1.09716 167 2.44948C167 3.80179 165.899 4.90359 164.546 4.90359ZM164.546 0.336339C163.378 0.336339 162.43 1.28505 162.43 2.44948C162.43 3.6139 163.38 4.56261 164.546 4.56261C165.711 4.56261 166.661 3.6139 166.661 2.44948C166.661 1.28505 165.711 0.336339 164.546 0.336339Z" fill="#BD202F"/>
<path d="M163.675 1.11805C163.87 1.08325 164.16 1.05774 164.432 1.05774C164.843 1.05774 165.105 1.13429 165.286 1.29202C165.421 1.40568 165.509 1.59356 165.509 1.80928C165.509 2.17114 165.258 2.41469 164.968 2.50516V2.51675C165.179 2.5933 165.312 2.79278 165.381 3.05258C165.481 3.43763 165.549 3.70902 165.609 3.82268H165.226C165.182 3.74381 165.117 3.51881 165.033 3.1732C164.945 2.79742 164.787 2.65129 164.448 2.63737H164.042V3.82268H163.672V1.11805H163.675ZM164.042 2.35902H164.48C164.887 2.35902 165.14 2.15722 165.14 1.84872C165.14 1.4799 164.84 1.34073 164.455 1.34073C164.246 1.34073 164.109 1.35928 164.042 1.37784V2.35902Z" fill="#BD202F"/>
<path d="M33.1996 22.9684C33.1996 24.7847 32.6121 26.2483 31.4395 27.3571C30.2669 28.4659 28.6671 29.0805 26.6446 29.2012C25.7344 29.2545 24.7243 29.2429 23.6098 29.1617C22.818 33.163 22.2166 36.3339 21.8056 38.672C21.3946 41.0101 21.1903 42.664 21.1903 43.6313C21.1903 46.4727 21.6291 48.5696 22.5092 49.9243C20.7491 51.3462 18.931 52.114 17.0548 52.2253C15.1183 52.3413 13.7413 51.8727 12.9193 50.822C12.0973 49.7735 11.6887 48.0756 11.6887 45.7328C11.6887 44.3573 11.893 42.323 12.304 39.6323C12.715 36.9416 13.3744 33.1236 14.2847 28.1782L13.2282 28.1968L6.54082 30.3076C6.01373 29.0805 5.74902 27.7027 5.74902 26.1811C5.74902 24.3648 6.33417 22.9012 7.50909 21.7924C8.6817 20.6837 10.2792 20.069 12.304 19.9484C13.3303 19.888 14.3566 19.8996 15.383 19.9855C16.4093 20.0713 17.6562 20.2174 19.1214 20.4216C20.5285 20.6303 21.7313 20.7788 22.7274 20.8669C23.7236 20.9551 24.722 20.9829 25.7182 20.9527L32.4055 18.8419C32.9372 20.069 33.1996 21.4445 33.1996 22.9684Z" fill="white"/>
<path d="M48.7965 42.1213C48.7965 42.1213 49.6533 37.2687 44.8375 37.1319L40.8832 37.3661C41.8561 34.9746 43.0798 32.4022 44.5542 29.6442C45.2392 28.3638 45.5387 26.9791 45.497 25.6244C45.3646 21.4144 40.7508 18.8652 37.0101 20.8067L38.4636 24.4553C35.0317 31.3677 32.6749 36.4545 31.4025 39.7089C30.1277 42.9633 29.4868 45.4963 29.4868 47.3125C29.4868 48.7181 29.8305 49.7666 30.5224 50.4578C31.2097 51.1491 32.2314 51.4553 33.5782 51.3787C34.6324 51.3138 35.719 51.0679 36.8313 50.6318C37.9505 50.2004 38.9164 49.6715 39.7361 49.0336C39.411 48.4375 39.1765 47.8205 39.0302 47.1849C38.8839 46.5493 38.8096 45.8071 38.8096 44.9558C38.8096 44.2553 38.9141 43.4991 39.1208 42.6988L48.7965 42.1213Z" fill="white"/>
<path d="M90.9387 14.7966C89.9124 14.8569 88.835 15.0935 87.7042 15.5157C86.578 15.9332 85.5865 16.476 84.739 17.1417C85.3798 18.3038 85.7049 19.6631 85.7049 21.2149C85.7049 26.0489 84.9619 30.4352 83.4828 34.3762C82.5679 36.8118 81.4417 39.1012 79.951 41.2329C78.5207 43.2764 76.9208 45.204 75.177 46.9901C71.6383 50.6133 67.4425 53.9813 62.5361 55.496C60.8155 56.0272 59.0159 56.3148 57.2141 56.273C52.6723 56.1686 48.6297 53.8931 45.481 50.7316C45.4207 50.6712 45.3626 50.6109 45.3023 50.5506C44.7148 51.0215 44.2109 51.6895 43.786 52.5501C43.3587 53.4107 43.0383 54.2805 43.1498 55.1132C44.341 64.2222 64.3496 69.2441 80.4479 51.4274C84.811 46.5934 88.6051 41.379 91.157 35.1486C93.7088 28.9182 94.9836 23.4626 94.9836 18.7747C94.9836 15.9611 93.6368 14.6366 90.9387 14.7966Z" fill="white"/>
<path d="M153.226 29.5769C154.545 30.8898 155.207 32.5715 155.207 34.622C155.207 36.4962 154.568 38.1756 153.293 39.6578C152.018 41.14 150.207 42.3323 147.86 43.2323C145.512 44.1323 142.772 44.6774 139.633 44.8629C134.852 45.1459 131.399 44.7864 129.275 43.7866C127.148 42.7846 126.086 41.0101 126.086 38.4609C126.086 37.2014 126.263 35.3295 126.614 32.8498C126.966 30.3679 127.64 26.2413 128.636 20.4702L126.305 15.9076C129.618 13.5718 132.639 12.3239 135.365 12.1615C137.183 12.0525 138.268 12.869 138.621 14.604C141.641 12.6973 144.602 11.6558 147.507 11.4842C149.852 11.345 151.7 11.8275 153.049 12.9339C154.398 14.0404 155.072 15.62 155.072 17.6705C155.072 19.721 154.447 21.5465 153.203 23.1424C151.956 24.7406 150.131 26.079 147.725 27.1576C150.073 27.4568 151.907 28.264 153.226 29.5769ZM144.098 38.2916C145.111 37.3382 145.617 36.1135 145.617 34.6197C145.617 33.214 145.148 32.1493 144.21 31.4302C143.271 30.7112 141.95 30.4004 140.251 30.5001C138.871 30.5813 137.494 30.8991 136.115 31.4488C135.762 34.3413 135.47 36.9207 135.235 39.1916C135.908 39.4444 136.679 39.6323 137.545 39.7575C138.409 39.8828 139.254 39.9199 140.074 39.8712C141.746 39.7715 143.086 39.2449 144.098 38.2916ZM136.686 27.3269C139.384 26.9906 141.525 26.2274 143.109 25.0352C144.693 23.8429 145.484 22.3978 145.484 20.6975C145.484 18.5009 144.237 17.4757 141.746 17.6241C140.427 17.703 139.238 17.979 138.182 18.4499C137.801 20.2893 137.302 23.2491 136.686 27.3269Z" fill="white"/>
<path d="M121.169 37.1967C121.489 37.9344 121.649 38.8552 121.649 39.9617C121.649 41.8544 121.083 43.3482 119.945 44.4477C118.809 45.5472 117.191 46.1573 115.094 46.2802C112.619 46.424 110.288 46.1387 108.103 45.422C106.821 46.3707 105.291 46.8972 103.514 46.9993C101.65 47.1083 100.296 46.7209 99.4509 45.8395C98.6057 44.958 98.1831 43.4851 98.1831 41.4184C98.1831 40.1101 98.3712 38.1269 98.752 35.471C99.1305 32.815 99.8596 28.387 100.937 22.1844L98.622 17.6496C101.915 15.3347 104.915 14.096 107.624 13.9383C109.343 13.8386 110.406 14.5901 110.815 16.1976C112.795 15.9656 114.688 15.6223 116.494 15.1677C118.301 14.713 120.514 14.0752 123.135 13.2517C123.367 14.3141 123.484 15.2535 123.484 16.0677C123.484 18.2782 122.74 20.062 121.254 21.4143C119.768 22.7666 117.73 23.5182 115.138 23.6713C113.799 23.7501 112.166 23.597 110.246 23.2143C109.953 24.8914 109.591 26.9187 109.155 29.3009C110.028 29.4238 110.903 29.4609 111.776 29.4099L115.707 28.1759C115.853 28.7488 115.925 29.4447 115.925 30.2589C115.925 31.5091 115.503 32.5181 114.658 33.279C113.812 34.0421 112.647 34.4666 111.163 34.5524C110.29 34.6034 109.312 34.5292 108.235 34.3297C107.826 36.9439 107.624 38.614 107.624 39.34V39.6903L114.702 39.2774C116.945 38.8251 119.1 38.1315 121.169 37.1967Z" fill="white"/>
<path d="M77.608 40.0731C76.995 40.8432 76.0406 41.7455 75.142 42.5318C72.9454 44.4547 69.5112 44.1138 67.8556 41.7107C67.844 41.6944 67.8347 41.6782 67.8231 41.6643C65.4872 38.2081 65.5151 33.794 65.4106 29.7811C65.3409 27.0765 65.1946 24.3324 64.3912 21.7345C63.964 20.352 63.2952 19.2664 62.3896 18.4708C64.0615 17.0512 65.8959 16.2834 67.8881 16.1628C69.8549 16.0492 71.3247 16.5711 72.3092 17.7239C73.2891 18.8814 73.9276 20.4053 74.2202 22.2935C74.8843 26.5638 74.5453 30.8898 75.0724 35.1648C75.1165 35.5174 75.1629 35.87 75.2349 36.2156C75.6134 38.0968 76.4075 39.3818 77.608 40.0731Z" fill="white"/>
<path d="M61.6858 46.8972C61.0728 47.6673 60.1185 48.5697 59.2199 49.356C57.0233 51.2789 53.589 50.9379 51.9335 48.5349C51.9219 48.5186 51.9126 48.5024 51.901 48.4885C50.8282 46.9135 50.1688 45.0694 49.9203 42.9632C49.6672 40.8524 49.2423 37.0367 49.2144 33.613C49.1819 31.036 49.1099 28.9808 48.9892 27.4522C48.8754 25.9236 48.6037 24.4623 48.1788 23.0844C47.7516 21.702 47.0828 20.6164 46.1772 19.8208C47.8491 18.4012 49.6835 17.6334 51.6757 17.5128C53.6425 17.3991 55.1123 17.9211 56.0968 19.0739C57.0767 20.2314 57.7152 21.7553 58.0078 23.6435C58.3004 25.5293 58.4467 27.8952 58.4467 30.7344V34.4295C58.4467 37.5934 58.9273 41.1609 59.3081 43.0444C59.6912 44.9186 60.4854 46.206 61.6858 46.8972Z" fill="white"/>
</g>
<defs>
<clipPath id="clip0_205_1311">
<rect width="167" height="71" fill="white"/>
</clipPath>
</defs>
</svg>
