<svg width="1158" height="751" viewBox="0 0 1158 751" fill="none" xmlns="http://www.w3.org/2000/svg">
<g style="mix-blend-mode:soft-light">
<path d="M1157.12 53.8482L1156.62 53.4152C1154.87 51.9165 1153.11 50.2487 1151.41 48.6347L1151.4 48.6219C1147.23 44.6664 1142.92 40.5776 1137.7 37.8031C1132.84 35.2258 1131.21 31.2856 1129.14 26.3002C1128.9 25.7212 1128.66 25.1396 1128.4 24.553C1128.04 23.705 1127.69 22.8544 1127.33 22.0013L1127.26 21.8297C1125.16 16.8212 1122.98 11.641 1120.02 6.86821C1117.85 3.36354 1115.31 1.37808 1112.26 0.793964C1111.68 0.683803 1111.09 0.627441 1110.5 0.627441C1107.91 0.627441 1105.26 1.65988 1102.39 3.78113C1099.89 5.63338 1097.55 7.68802 1095.29 9.67605C1095.01 9.92199 1094.73 10.1705 1094.44 10.4216L1088.43 6.70681C1088.02 6.45319 1087.55 6.32509 1087.08 6.32509C1086.75 6.32509 1086.41 6.38914 1086.1 6.52236C1085.34 6.84003 1084.77 7.50356 1084.58 8.308L1084.13 10.2678C1083.69 12.1662 1083.26 13.9826 1082.88 15.5838C1082.02 19.1781 1081.22 22.5752 1080.48 26.0158C1079.07 32.5691 1079.36 39.1019 1079.63 45.4196C1079.97 53.2282 1080.29 60.6039 1077.52 67.5774C1076.79 69.4143 1077.26 71.2178 1077.54 72.2938C1077.57 72.4347 1077.61 72.5731 1077.64 72.7037C1078.3 75.5756 1077.62 76.977 1074.92 78.2605L1074.57 78.427C1072.44 79.4313 1069.51 80.8121 1068.45 83.6661C1066.9 87.8368 1063.27 89.2356 1058.66 91.0085C1058.11 91.2211 1057.48 91.4645 1056.87 91.7053C1042.47 97.467 1027.59 103.144 1011.41 109.062C1004.54 111.578 999.748 116.007 996.771 122.602C994.097 128.522 991.532 134.243 988.455 141.104L984.148 150.703C983.839 151.395 983.851 152.189 984.182 152.87C984.512 153.552 985.13 154.054 985.865 154.236L987.541 154.656C988.058 154.784 988.593 154.884 989.111 154.979C989.992 155.143 990.976 155.325 991.668 155.63C990.656 157.812 990.479 160.046 991.148 162.288C991.568 163.697 992.275 164.96 993.072 166.085C988.747 169.431 984.876 171.977 981.031 174.011C975.264 177.065 969.586 178.958 963.673 179.796C958.998 180.459 954.64 182.176 950.425 183.839L950.395 183.851C949.613 184.159 948.804 184.479 948.015 184.781C944.277 186.214 942.117 188.235 941.413 190.958C940.695 193.738 941.656 196.651 944.356 199.863C945.335 201.029 947.146 203.183 947.259 203.844C947.067 204.439 945.227 206.137 944.233 207.057C929.441 220.715 913.323 235.074 894.954 250.955C891.8 253.684 887.699 255.802 883.735 257.852L883.707 257.867C883.082 258.19 882.459 258.513 881.842 258.835C880.986 259.284 879.821 259.573 878.875 259.573C878.552 259.573 878.337 259.54 878.214 259.512C874.722 258.718 871.182 257.457 867.692 255.764C867.544 255.618 867.329 255.295 867.198 255.039C868.507 246.736 869.873 240.075 871.489 234.108C871.93 232.481 873.377 230.662 874.282 230.242C880.033 227.568 882.085 222.421 879.639 216.81C875.634 207.636 872.05 200.342 868.353 193.856C866.511 190.623 864.2 188.839 861.48 188.553C861.234 188.527 860.98 188.514 860.729 188.514C858.098 188.514 855.554 189.931 852.956 192.846C851.785 194.158 850.717 195.511 849.682 196.817C848.736 198.014 847.766 199.238 846.764 200.365C846.8 200.296 846.833 200.23 846.861 200.171C847.12 199.658 847.412 199.079 847.655 198.429C848.173 197.053 848.729 195.644 849.269 194.283L849.277 194.266C850.584 190.966 851.934 187.561 852.951 184.023C854.995 176.914 852.275 171.101 849.874 165.975C848.936 163.971 848.052 162.08 847.479 160.205L847.251 159.457C846.997 158.63 846.346 157.987 845.516 157.746L844.765 157.528C842.268 156.806 839.726 156.024 837.267 155.268C831.067 153.365 824.664 151.397 818.144 150.073C818.098 150.063 818.052 150.055 818.006 150.047C818.675 149.799 819.225 149.279 819.499 148.587L820.606 145.789H829.711C830.659 145.789 831.53 145.267 831.974 144.429C832.417 143.591 832.363 142.577 831.83 141.79L830.301 139.533C827.616 135.573 824.052 131.522 817.962 131.522C817.055 131.522 816.1 131.614 815.121 131.796C814.345 131.94 812.731 132.24 811.16 132.24C809.705 132.24 809.08 131.978 808.88 131.868C808.424 131.568 807.579 129.842 807.018 128.699C806.469 127.579 805.906 126.429 805.181 125.223L804.489 124.072C804.01 123.278 803.164 122.83 802.291 122.83C801.901 122.83 801.507 122.919 801.138 123.106L799.939 123.711C798.117 124.628 796.173 125.471 794.116 126.36C789.028 128.561 783.773 130.836 779.413 134.63C776.705 136.987 774.199 138.083 771.529 138.083C769.488 138.083 767.266 137.471 764.33 136.093C763.48 135.696 762.614 135.316 761.848 134.981C760.672 134.466 759.455 133.933 758.351 133.364C758.046 133.208 757.744 133.049 757.439 132.888L757.272 132.801C754.19 131.181 750.696 129.345 746.568 129.345C746.266 129.345 745.966 129.355 745.667 129.375C746.212 128.512 747.04 127.579 748.134 126.373C750.322 123.965 753.045 120.967 753.983 116.497L754.595 113.576C754.641 113.381 754.667 113.179 754.667 112.972C754.667 111.565 753.534 110.425 752.133 110.41C752.13 110.41 752.125 110.41 752.123 110.41C752.123 110.41 752.11 110.41 752.105 110.41C752.084 110.41 752.061 110.41 752.041 110.41C752.036 110.41 752.03 110.41 752.028 110.41H752.023C752.023 110.41 752.015 110.41 752.013 110.41C751.603 110.425 751.218 110.538 750.88 110.722L748.208 112.121C746.748 112.887 745.377 113.535 744.052 114.16C741.152 115.533 738.657 116.712 736.369 118.544C733.338 120.97 730.474 123.585 727.702 126.114C724.641 128.909 721.477 131.799 718.213 134.302C717.303 134.999 716.406 135.711 715.538 136.4C709.95 140.827 705.126 144.649 698.921 144.649C698.363 144.649 697.794 144.619 697.22 144.555L696.562 139.777C696.462 139.059 696.065 138.416 695.465 138.009C695.037 137.717 694.533 137.566 694.023 137.566C693.82 137.566 693.618 137.589 693.418 137.637L680.437 140.791C682.153 138.634 683.79 136.438 685.399 134.281C689.183 129.206 692.757 124.416 696.995 120.396C701.652 115.979 706.446 113.138 712.077 111.46L716.755 110.066C717.844 109.741 718.587 108.742 718.584 107.607C718.584 106.472 717.833 105.473 716.745 105.153L711.887 103.723C708.833 102.824 705.677 101.896 702.526 101.896C701.727 101.896 700.945 101.955 700.197 102.073C697.914 102.434 695.409 102.604 692.316 102.604C690.152 102.604 687.943 102.522 685.807 102.44H685.786L685.719 102.437C683.865 102.368 681.948 102.296 680.086 102.281C673.291 102.222 664.837 102.15 660.364 95.3688C659.152 93.5294 656.823 92.5994 653.447 92.5994C653.144 92.5994 652.829 92.6071 652.509 92.6224C650.372 92.7249 648.251 92.9324 646.199 93.1323C643.519 93.3936 640.752 93.6651 638.1 93.6651C637.457 93.6651 636.835 93.6498 636.251 93.6165C632.039 93.3833 627.571 91.9999 623.249 90.66C621.65 90.1656 620.08 89.1767 619.334 88.2006C617.889 86.3125 616.662 84.0657 615.107 81.222L615.099 81.2092C614.338 79.8155 613.475 78.2374 612.476 76.5005L610.562 73.1726C610.101 72.3707 609.248 71.889 608.343 71.889C608.205 71.889 608.067 71.8993 607.928 71.9224C606.875 72.094 606.04 72.901 605.83 73.9462L605.074 77.7097C604.085 82.6413 602.125 84.1426 600.739 84.842C598.58 85.9308 595.68 86.0384 592.318 86.1613L591.962 86.1742C585.524 86.415 578.914 86.7019 573.083 86.9555C562.566 87.4116 551.691 87.8855 540.974 88.1571C528.462 88.4747 515.977 88.6361 503.867 88.6361C446.994 88.6361 394.3 85.1955 342.769 78.117C259.71 66.7089 184.361 49.6416 112.413 25.9441C110.056 25.1678 107.694 24.5786 104.961 23.8946L104.902 23.8792C103.513 23.5333 102.076 23.1747 100.464 22.7468L96.7854 21.7733C96.5676 21.7169 96.3473 21.6888 96.1295 21.6888C95.3174 21.6888 94.536 22.0756 94.0466 22.7596C93.4267 23.6256 93.4062 24.7835 93.9954 25.6699L96.1013 28.839C96.542 29.5025 96.9826 30.1404 97.4079 30.7579L97.4259 30.786C101.169 36.2198 101.446 37.3906 99.542 39.7296C97.4925 42.2505 98.7786 45.4759 99.7214 47.8303L99.7803 47.9763C101.843 53.1539 101.645 55.3546 98.8964 57.7884C97.1082 59.3716 96.5497 61.6825 96.2397 63.6193L95.6504 62.5714C95.1047 61.6005 94.5975 60.6961 94.103 59.8123L98.32 54.1736C98.7606 53.5869 98.9246 52.8388 98.776 52.1189C98.6274 51.399 98.1765 50.779 97.5412 50.4153L60.9283 29.4513C60.5337 29.2258 60.0956 29.1131 59.655 29.1131C59.24 29.1131 58.8249 29.213 58.4483 29.4154C57.6695 29.8305 57.1622 30.617 57.0982 31.4957L56.9368 33.7937C56.8471 35.0721 56.7318 36.353 56.6165 37.593L56.6088 37.6801C56.3398 40.616 56.0862 43.3906 56.1297 46.306C56.1887 49.9823 56.6421 53.5971 57.0802 57.0916C57.8898 63.5475 58.6558 69.6423 56.9649 75.6192C56.2245 78.2349 57.7463 80.6994 58.4355 81.6396C59.3066 82.8258 59.509 83.4867 57.9923 85.2673C55.6379 88.0315 55.4995 90.4935 55.7967 92.0716C55.9812 93.0477 56.4449 94.28 57.5337 95.4661C55.0512 97.4516 52.7762 99.4115 51.7309 102.314C44.8623 121.385 36.9202 141.58 25.3991 160.077C19.2504 169.951 12.2256 185.178 12.4869 215.552C12.5637 224.652 10.7473 230.97 6.76604 235.435C-1.23494 244.407 -2.10088 253.707 3.9607 265.586C5.13664 267.894 5.59523 271.599 5.09565 274.809L4.95218 275.729C3.96583 282.069 2.94617 288.623 3.25617 295.191C3.61228 302.762 5.72845 309.254 9.71997 315.033C9.97617 315.815 9.62518 318.351 9.49196 319.317C8.93345 323.377 8.65164 329.167 12.6534 332.574C14.4109 334.071 16.6987 334.829 19.458 334.829C19.9908 334.829 20.5391 334.803 21.1104 334.747C20.9183 336.258 20.6954 337.698 20.3674 339.043C20.2829 339.392 19.873 340.053 19.5143 340.637C18.7893 341.81 17.9695 343.14 17.6262 344.869C16.791 349.086 17.1189 353.077 18.5971 356.736C20.0549 360.34 22.6425 363.627 26.2881 366.504C27.6101 367.547 27.7049 368.011 27.71 368.059C27.7151 368.105 27.7407 368.556 26.7493 369.832C25.1096 371.943 22.5605 376.014 23.9055 379.539C27.0439 387.773 30.8689 397.424 35.4497 406.577C35.8237 407.328 36.1901 408.045 36.6282 408.906C40.5121 416.543 43.8657 423.14 42.2286 430.982C40.6965 438.322 43.7939 443.54 51.1852 446.077C51.7001 446.253 52.2279 446.417 52.6916 446.561C53.8189 446.909 54.8821 447.24 55.6071 447.685C56.6985 448.357 57.7566 448.989 59.0299 449.748C62.7524 451.969 66.603 454.264 69.7747 456.977C72.89 459.642 75.9106 462.644 78.8363 465.547C83.3428 470.023 88.0004 474.652 93.3421 478.443C98.0228 481.766 101.515 485.45 104.018 489.7C106.521 493.951 108.037 498.772 108.655 504.442C109.703 514.064 114.089 518.706 123.788 520.466C129.025 521.417 134.351 522.329 139.503 523.213L139.642 523.236L139.688 523.243C146.252 524.368 153.038 525.534 159.679 526.776C161.961 527.204 165.289 527.944 167.828 529.433C170.552 531.031 173.252 532.945 175.863 534.797L175.873 534.805C178.179 536.442 180.564 538.136 183.059 539.685C202.858 551.983 220.738 563.055 239.084 574.015C244.874 577.473 250.041 579.554 254.883 580.373C271.316 583.158 287.861 585.282 303.86 587.337C308.29 587.905 312.773 588.139 317.108 588.364L317.257 588.372C319.181 588.472 321.171 588.577 323.134 588.71L324.533 588.805C324.592 588.81 324.651 588.81 324.707 588.81C326.014 588.81 327.125 587.816 327.254 586.496L328.258 576.208C329.897 576.308 331.488 576.413 332.857 576.503C338.483 576.871 343.788 577.22 349.209 577.22C349.952 577.22 350.685 577.212 351.392 577.199C351.572 577.197 351.751 577.194 351.928 577.194C357.292 577.194 361.968 578.695 366.221 581.78C370.492 584.88 373.866 589.268 376.328 592.747C378.897 596.38 381.728 600.138 385.564 602.682C393.718 608.091 398.932 616.186 401.066 626.746C402.706 634.86 406.105 640.78 411.462 644.849C417.393 649.352 423.808 653.247 430.016 657.013L430.067 657.043C431.604 657.978 433.195 658.942 434.748 659.9C436.531 660.999 438.404 661.557 440.312 661.557C443.272 661.557 446.123 660.228 448.785 657.604L451.124 655.306L451.203 655.229C453.837 652.644 456.558 649.975 459.197 647.282C462.476 643.937 466.977 642.095 471.871 642.095C472.263 642.095 472.66 642.107 473.054 642.13C478.601 642.461 483.789 645.087 486.927 649.155C487.878 650.39 488.844 651.602 489.779 652.773C491.457 654.878 493.189 657.054 494.744 659.236C497.247 662.751 499.701 666.438 502.076 670.004C507.228 677.743 512.557 685.744 518.898 692.828C525.702 700.429 530.468 709.229 533.888 720.522C534.088 721.178 534.267 721.882 534.457 722.625L534.462 722.648C535.077 725.064 535.776 727.805 537.48 730.129C539.883 733.408 543.203 737.382 547.574 739.003C557.96 742.859 568.71 746.059 579.106 749.156L581.199 749.779C582.255 750.094 583.413 750.247 584.735 750.247C585.624 750.247 586.467 750.181 587.212 750.122C587.771 750.078 588.299 750.035 588.701 750.035H590.597C591.396 750.035 592.149 749.661 592.633 749.025C593.118 748.39 593.279 747.565 593.066 746.794L592.564 744.965C591.934 742.669 591.314 740.438 590.709 738.25L590.697 738.199L590.681 738.143C588.834 731.466 587.089 725.161 585.452 718.877C585.406 718.695 585.434 718.109 585.619 717.696C587.686 713.128 587.374 709.037 584.791 705.898C586.997 703.841 589.247 701.308 589.316 697.829C589.346 696.266 588.921 694.713 588.048 693.192C588.106 693.125 588.165 693.056 588.224 692.984C590.071 690.76 591.867 688.585 593.855 686.174C596.569 682.885 599.374 679.485 602.19 676.124C602.73 676.196 603.25 676.234 603.745 676.234C605.664 676.234 607.301 675.694 608.61 674.628C610.511 673.083 611.161 670.857 611.382 669.018C611.679 669.005 611.971 668.992 612.263 668.982L612.419 668.974C615.855 668.831 619.104 668.695 622.424 668.277C627.681 667.616 633.935 663.632 639.156 657.617C644.439 651.533 647.249 644.969 646.678 640.063C646.486 638.421 646.724 637.955 646.801 637.85C646.826 637.816 646.86 637.78 646.908 637.739C648.871 641.3 650.874 644.065 654.379 644.065C656.239 644.065 658.189 643.281 660.735 642.013C667.494 638.651 676.491 634.793 686.142 634.793C690.533 634.793 694.881 635.59 699.067 637.158C700.415 637.663 702.08 637.929 703.881 637.929C707.358 637.929 711.91 636.917 714.254 634.073C716.576 631.258 718.156 630.876 719.394 630.876C720.739 630.876 722.404 631.417 724.487 632.529C725.635 633.141 726.79 633.494 728.012 633.871C728.54 634.032 729.196 634.235 729.916 634.481L731.773 635.119C731.855 635.99 731.945 636.873 732.063 637.76C732.549 641.454 734.325 644.449 737.063 646.196C738.644 647.206 740.484 647.738 742.385 647.738C743.471 647.738 744.57 647.567 745.654 647.229C747.404 646.68 749.276 646.324 751.259 645.948C753.409 645.538 755.633 645.115 757.851 644.413C759.199 643.985 763.746 642.3 765.637 638.528C766.818 636.174 766.272 633.569 765.324 631.007C768.824 633.646 772.29 636.312 775.682 638.92C777.381 640.227 779.074 641.528 780.768 642.825L781.659 643.506C782.118 643.857 782.669 644.034 783.217 644.034C783.765 644.034 784.337 643.852 784.8 643.486L785.682 642.794C788.541 640.547 792.268 637.04 791.623 632.557C790.993 628.178 786.714 625.991 783.55 624.728C782.779 624.42 782.044 624.241 781.393 624.085C781.065 624.005 780.599 623.892 780.384 623.81C779.725 623.231 779.297 622.778 779.023 622.455C779.474 621.92 780.204 621.238 780.711 620.774C780.899 620.744 781.124 620.713 781.257 620.693H781.273C781.739 620.626 782.264 620.552 782.828 620.416L783.763 620.188C784.77 619.942 785.528 619.117 785.689 618.095L786.35 613.855C786.563 612.492 785.659 611.206 784.306 610.945L782.938 610.681C782.369 610.57 781.644 610.343 780.875 610.099C779.361 609.62 777.658 609.079 775.933 609.079C774.788 609.079 773.735 609.32 772.805 609.794C772.011 610.202 771.463 610.399 771.114 610.494C771.009 610.176 770.879 609.661 770.774 608.872C770.984 608.88 771.191 608.885 771.401 608.885C775.723 608.885 779.707 607.12 783.583 603.489C784.67 602.472 786.402 601.65 787.701 601.537C788.356 601.481 789.012 601.427 789.668 601.373C796.206 600.846 803.515 600.256 809.587 595.209C812.613 598.363 816.251 598.786 818.915 598.786C819.886 598.786 820.819 598.729 821.721 598.673C822.569 598.622 823.36 598.573 824.103 598.573C824.915 598.573 825.553 598.632 826.112 598.758L828.143 599.216C828.331 599.26 828.52 599.28 828.71 599.28C829.343 599.28 829.963 599.045 830.439 598.609C831.059 598.043 831.361 597.208 831.249 596.375L830.969 594.313C830.767 592.812 830.903 592.133 830.977 591.902C831.12 591.856 831.436 591.787 832.012 591.787C832.309 591.787 832.642 591.805 833.001 591.843C833.406 591.887 833.836 591.907 834.272 591.907C835.978 591.907 837.574 591.582 838.776 591.3C842.124 590.511 845.339 590.111 848.337 590.111C857.027 590.111 864.377 593.396 870.813 600.154C871.827 601.22 872.857 602.15 874.046 603.228L874.064 603.243C874.602 603.73 875.209 604.279 875.855 604.881L876.695 605.662C877.182 606.115 877.81 606.349 878.44 606.349C878.934 606.349 879.434 606.205 879.867 605.913L880.817 605.275C882.393 604.214 884.066 603.203 885.682 602.221L885.695 602.214C889.72 599.772 893.514 597.469 896.76 594.159C898.764 592.115 902.402 590.688 905.607 590.688C905.917 590.688 906.222 590.7 906.514 590.729C907.636 590.834 909.127 591.192 909.877 592.314C914.745 599.58 921.434 603.569 927.903 607.424C928.736 607.922 929.679 608.483 930.593 609.041C934.488 611.416 936.317 614.285 936.706 618.638C937.206 624.225 938.008 629.759 938.781 635.108C939.099 637.299 939.424 639.558 939.722 641.759L939.911 643.163C940.083 644.446 941.182 645.384 942.448 645.384C942.542 645.384 942.64 645.379 942.737 645.369L944.144 645.21C944.984 645.115 945.847 644.956 946.629 644.808C946.652 645.241 946.629 645.671 946.554 646.05C945.304 652.534 946.7 658.496 950.484 662.836C953.656 666.474 958.27 668.582 963.563 668.841C964.04 669.561 964.519 670.283 965 671.011L965.123 671.198L965.141 671.223C967.329 674.526 969.589 677.941 971.751 681.363C972.351 682.311 972.889 683.408 973.463 684.571C974.61 686.902 975.912 689.543 978.074 691.598C981.2 694.57 984.628 697.165 987.94 699.673L987.968 699.694C989.974 701.213 992.052 702.783 993.981 704.387C994.937 705.181 995.872 706.36 996.861 707.61C997.424 708.32 998.006 709.055 998.67 709.826L999.326 710.587C999.823 711.163 1000.54 711.478 1001.27 711.478C1001.57 711.478 1001.87 711.427 1002.16 711.32L1003.1 710.971C1003.69 710.753 1004.34 710.541 1005.04 710.318L1005.08 710.305C1007.41 709.557 1010.31 708.622 1012.75 706.659C1015.75 704.249 1017.32 700.839 1017.43 696.525C1017.51 693.048 1017.62 689.51 1017.72 686.09V685.998L1017.72 685.97C1017.98 677.105 1018.25 667.942 1018.27 658.898C1018.28 655.445 1016.78 652.168 1015.16 649.14C1010.86 641.118 1006.41 633.018 1002.12 625.186L1002.06 625.081C999.664 620.716 997.186 616.199 994.765 611.754C994.709 611.649 994.647 611.534 994.588 611.411C995.375 610.396 995.826 609.29 995.931 608.098C996.205 605.027 994.035 602.926 992.872 601.796C992.669 601.599 992.365 601.304 992.278 601.197C984.049 590.224 975.656 578.355 971.375 564.577C970.985 563.327 970.237 562.548 969.579 561.859C969.31 561.579 969.007 561.264 968.649 560.844L966.54 558.38C966.494 558.326 966.445 558.272 966.394 558.223C966.484 557.55 966.581 556.876 966.676 556.21C966.996 553.968 967.324 551.66 967.439 549.285C967.527 547.515 967.273 545.819 967.05 544.323C966.83 542.837 966.62 541.433 966.812 540.413C967.803 535.125 969.005 529.75 970.17 524.552V524.537C971.323 519.4 972.512 514.09 973.514 508.799C974.372 504.265 977.311 502.144 981.697 499.425C986.149 496.666 990.033 492.99 992.629 489.073C998.639 480.011 1004.52 470.309 1010.61 459.416C1013.2 454.782 1016.62 449.571 1022.4 446.046C1028.4 442.387 1031.65 438.908 1032.61 435.096C1034.15 429.022 1036.49 424.221 1039.74 420.422C1042.97 416.651 1047.13 413.853 1052.46 411.862C1054.88 410.956 1056.41 408.955 1057.64 407.346C1058.06 406.79 1058.46 406.265 1058.83 405.873L1059.79 404.848C1060.74 403.836 1060.71 402.253 1059.73 401.277L1056.69 398.251C1056.19 397.764 1055.54 397.508 1054.88 397.508C1054.51 397.508 1054.14 397.588 1053.8 397.749L1052.88 398.174C1052.78 398.22 1052.68 398.266 1052.58 398.31C1052.54 396.88 1052.12 395.328 1051.32 393.67C1050.98 392.979 1050.55 392.4 1050.07 391.905C1050.15 391.864 1050.23 391.828 1050.3 391.803C1050.64 391.677 1051.15 391.621 1051.97 391.621C1052.79 391.621 1053.86 391.677 1055.22 391.749H1055.23C1055.35 391.757 1055.47 391.759 1055.6 391.759C1056.62 391.759 1057.66 391.544 1058.62 391.137C1062.25 389.592 1065.13 385.711 1066.52 380.49C1067.01 378.619 1068.39 372.186 1065.17 367.944L1064.37 366.891C1063.87 366.23 1063.11 365.876 1062.33 365.876C1061.86 365.876 1061.39 366.002 1060.97 366.266L1059.85 366.965C1059.01 367.498 1058.25 368.072 1057.52 368.628C1056.76 369.209 1055.49 370.175 1055.02 370.232C1053.45 370.426 1051.69 370.519 1049.47 370.519C1048.44 370.519 1047.37 370.501 1046.31 370.478C1050.61 370.068 1053.73 367.38 1056.28 365.187C1056.97 364.59 1057.62 364.032 1058.26 363.535L1059.16 362.843C1060.09 362.126 1060.41 360.865 1059.94 359.789L1059.49 358.757C1059.09 357.848 1058.67 357.007 1058.26 356.195L1058.26 356.18C1057.54 354.745 1056.86 353.387 1056.62 352.209C1055.65 347.595 1054.9 344.654 1052.65 342.732C1050.81 341.164 1048.42 340.67 1044.97 340.375C1045.03 339.622 1044.75 338.874 1044.19 338.341L1039.97 334.324L1042.58 332.71C1043.3 332.262 1043.75 331.48 1043.79 330.63C1043.82 329.777 1043.43 328.965 1042.74 328.463L1038.83 325.609H1040.7C1041.68 325.609 1042.57 325.05 1043 324.171C1043.43 323.29 1043.32 322.242 1042.72 321.471L1035.46 312.179L1037.33 310.55C1037.91 310.045 1038.24 309.305 1038.21 308.536C1038.19 307.768 1037.82 307.05 1037.21 306.584L1035.8 305.511C1030.08 301.132 1028.36 294.976 1026.37 287.846C1026.19 287.211 1026.02 286.576 1025.83 285.943C1025.64 285.282 1025.81 283.886 1026.9 282.126C1027.06 281.869 1027.23 281.616 1027.41 281.37C1027.41 281.565 1027.41 281.762 1027.41 281.962C1027.38 285.469 1027.34 289.442 1029.04 292.909C1031.7 298.324 1035.19 303.259 1038.56 308.034L1038.61 308.101C1039.52 309.392 1040.47 310.724 1041.37 312.038C1042.67 313.921 1044.98 315.025 1046.9 315.364C1046.89 315.415 1046.87 315.466 1046.85 315.52C1046.06 317.705 1045.63 319.896 1045.2 322.012L1045.2 322.037C1045.03 322.87 1044.86 323.733 1044.68 324.543L1044.34 326.021C1044.18 326.705 1044.31 327.42 1044.7 328.007C1045.09 328.591 1045.7 328.99 1046.39 329.116L1051.87 330.1C1052.02 330.128 1052.17 330.141 1052.32 330.141C1052.85 330.141 1053.37 329.979 1053.8 329.669C1054.36 329.272 1054.74 328.668 1054.85 327.991L1056.34 318.884C1057.32 312.866 1058.36 306.461 1059.4 300.133C1060.89 291.069 1057.77 283.837 1050.38 279.22C1048.91 278.301 1047.88 277.276 1047.22 276.005L1059.02 280.499C1059.31 280.612 1059.62 280.665 1059.93 280.665C1060.34 280.665 1060.75 280.568 1061.12 280.373C1061.77 280.035 1062.24 279.433 1062.42 278.723L1062.81 277.143C1063.51 274.353 1064.22 271.566 1064.97 268.614L1064.99 268.555C1066.75 261.648 1068.57 254.506 1070.21 247.292C1071.22 242.849 1071.95 239.642 1070.15 236.875C1068.81 234.81 1066.69 233.913 1063.56 233.168C1063.6 232.994 1063.64 232.822 1063.68 232.65L1063.69 232.627C1063.8 232.171 1063.91 231.72 1064.02 231.272C1064.26 231.587 1064.56 231.848 1064.92 232.028C1065.28 232.21 1065.67 232.299 1066.07 232.299C1066.43 232.299 1066.79 232.223 1067.13 232.071L1068.75 231.334C1078.06 227.112 1085.34 220.63 1092.38 214.361C1093.58 213.288 1094.83 212.176 1096.08 211.084L1101.25 206.565C1102.16 205.768 1102.4 204.441 1101.8 203.383C1101.34 202.558 1100.48 202.074 1099.57 202.074C1099.32 202.074 1099.06 202.113 1098.8 202.192L1092.25 204.244C1087.58 205.704 1082 207.592 1076.98 210.026C1080.95 206.273 1085.57 203.081 1090.81 200.473C1094.73 198.523 1099.18 196.315 1102.97 193.225C1106.67 190.213 1109.3 186.746 1110.96 182.688C1111.55 182.827 1112.14 182.896 1112.72 182.896C1113.01 182.896 1113.3 182.878 1113.59 182.847C1117.34 182.424 1119.64 179.243 1120.43 178.133C1120.75 177.859 1121.89 177.511 1122.45 177.342C1123.55 177.006 1124.69 176.66 1125.67 175.881C1129.38 172.93 1131.96 168.987 1134.44 165.175C1134.96 164.378 1135.5 163.554 1136.04 162.754C1137.04 161.286 1137.04 159.683 1136.04 158.24C1135.47 157.397 1134.61 156.683 1133.33 155.601L1133.28 155.558C1132.85 155.199 1132.41 154.828 1132.09 154.546L1131.42 153.941C1130.94 153.514 1130.33 153.291 1129.71 153.291C1129.38 153.291 1129.05 153.355 1128.73 153.485L1125.12 154.976C1124.46 155.25 1123.95 155.788 1123.7 156.462C1123.45 157.136 1123.5 157.879 1123.83 158.517L1124.55 159.913C1125.77 162.293 1125.53 163.028 1125.53 163.036C1125.5 163.1 1125.24 163.418 1124.35 163.797C1123.48 164.166 1122.73 164.353 1122.12 164.353C1121.29 164.353 1120.23 164.048 1118.66 161.786C1117.35 159.88 1115.58 158.55 1114.02 157.374C1113.36 156.875 1112.74 156.406 1112.21 155.937C1111.73 155.514 1111.21 155.135 1110.75 154.8C1110.63 154.712 1110.42 154.554 1110.21 154.395C1110.21 153.944 1110.22 153.49 1110.23 153.045C1110.3 148.587 1110.37 143.581 1106.99 139.09C1107.6 136.741 1108.11 134.351 1108.61 132.024C1109.96 125.684 1111.35 119.135 1114.61 114.621C1115.67 113.151 1116.79 111.703 1117.87 110.302C1122.81 103.869 1127.92 97.2287 1128.8 87.7984L1130.6 89.333C1131.08 89.7454 1131.67 89.9478 1132.26 89.9478C1132.95 89.9478 1133.63 89.6737 1134.13 89.1383L1157.31 64.3878C1157.75 63.9139 1158 63.2862 1158 62.6355V55.7824C1158 55.0344 1157.67 54.3247 1157.11 53.8379L1157.12 53.8482ZM1100.78 130.374C1100.16 133.267 1099.52 136.259 1098.72 138.99L1098.48 139.823C1098.21 140.732 1098.47 141.713 1099.15 142.374L1099.77 142.982C1102.22 145.372 1102.3 148.177 1102.23 152.929C1102.21 153.826 1102.2 154.753 1102.21 155.704C1102.25 158.496 1104.43 160.098 1106.02 161.266C1106.36 161.517 1106.71 161.778 1106.93 161.965C1107.68 162.631 1108.45 163.213 1109.2 163.774C1110.39 164.668 1111.5 165.508 1112.08 166.351C1113.51 168.413 1115.1 169.951 1116.84 170.957C1115.79 171.526 1114.75 172.315 1113.93 173.466C1113.27 174.406 1112.86 174.749 1112.69 174.864C1112.49 174.793 1112.01 174.562 1111.22 173.85L1109.33 172.159C1108.85 171.734 1108.24 171.506 1107.62 171.506C1107.34 171.506 1107.07 171.549 1106.8 171.639C1105.93 171.931 1105.28 172.671 1105.1 173.573L1104.61 176.063C1102.74 185.614 1095.22 189.352 1087.26 193.312C1074.82 199.499 1065.42 208.607 1059.34 220.387C1057.62 223.72 1056.75 227.301 1055.92 230.765C1055.57 232.212 1055.21 233.711 1054.79 235.123L1054.35 236.642C1054.14 237.334 1054.24 238.076 1054.61 238.691C1054.99 239.306 1055.6 239.737 1056.31 239.875L1057.86 240.18C1059.89 240.577 1062.13 241.02 1063.23 241.384C1063.12 242.406 1062.71 244.23 1062.41 245.526C1060.8 252.613 1059 259.678 1057.26 266.513L1057.24 266.588C1056.88 267.987 1056.52 269.416 1056.16 270.838L1041.88 265.402C1041.58 265.289 1041.27 265.235 1040.96 265.235C1040.48 265.235 1039.99 265.373 1039.57 265.648C1038.88 266.091 1038.45 266.836 1038.41 267.654L1038.3 269.626C1037.87 277.102 1040.44 282.469 1046.15 286.033C1050.9 288.997 1052.5 292.832 1051.51 298.852C1051.03 301.827 1050.54 304.804 1050.05 307.778C1049.51 307.647 1048.92 307.55 1048.29 307.491C1048.19 307.478 1047.99 307.401 1047.86 307.332C1046.96 306.02 1046.03 304.706 1045.13 303.435C1041.94 298.919 1038.64 294.249 1036.26 289.401C1035.39 287.641 1035.42 284.805 1035.44 282.062C1035.45 280.947 1035.46 279.802 1035.42 278.667C1035.4 278.127 1035.62 277.291 1035.87 276.323C1036.03 275.706 1036.2 275.009 1036.36 274.25L1036.76 272.232C1036.8 272.045 1036.83 271.85 1036.83 271.65C1036.83 270.256 1035.72 269.124 1034.33 269.088C1034.31 269.088 1034.29 269.088 1034.27 269.088C1034.23 269.088 1034.2 269.088 1034.17 269.088C1034.17 269.088 1034.16 269.088 1034.16 269.088C1034.02 269.093 1033.88 269.111 1033.75 269.137L1031.7 269.516C1027.26 270.338 1022.82 273.561 1020.12 277.922C1017.96 281.401 1017.26 285.036 1018.15 288.156C1018.32 288.743 1018.48 289.332 1018.65 289.921L1018.68 290.019C1020.39 296.167 1022.31 303.043 1027.39 308.626L1026.33 309.551C1025.3 310.445 1025.16 311.987 1025.99 313.058L1029.55 317.613H1027.73C1026.74 317.613 1025.84 318.184 1025.41 319.081L1023.98 322.124C1023.45 323.236 1023.79 324.563 1024.78 325.288L1031.49 330.182L1029.78 331.245C1029.1 331.662 1028.66 332.369 1028.58 333.159C1028.5 333.948 1028.79 334.732 1029.36 335.277L1031.2 337.027L1031.09 337.05C1030.01 337.278 1029.2 338.164 1029.07 339.256L1028.58 343.414C1028.42 344.759 1029.34 345.994 1030.67 346.237L1032.01 346.48C1032.94 346.649 1033.92 346.857 1034.86 347.057L1034.89 347.064C1037.2 347.554 1039.58 348.061 1042.1 348.22C1043.96 348.338 1046.75 348.515 1047.45 348.863C1047.88 349.496 1048.43 352.117 1048.8 353.869C1049.21 355.867 1050.07 357.684 1050.87 359.305C1048.52 361.324 1046.96 362.554 1045.23 362.554C1044 362.554 1042.55 361.952 1040.8 360.712L1037.91 358.657C1037.46 358.342 1036.94 358.186 1036.42 358.186C1035.95 358.186 1035.47 358.319 1035.05 358.588C1034.17 359.149 1033.72 360.184 1033.9 361.209L1036.67 376.316C1036.89 377.533 1037.95 378.417 1039.19 378.417H1040.39C1042.02 378.417 1043.6 378.453 1045.13 378.489C1046.57 378.522 1048.05 378.555 1049.5 378.555C1052.06 378.555 1054.13 378.445 1056.04 378.207C1057.15 378.069 1058.15 377.715 1059.06 377.251C1059 377.633 1058.91 378.035 1058.8 378.45C1058 381.445 1056.57 383.287 1055.56 383.764C1054.25 383.694 1053.08 383.638 1052.05 383.638C1047.23 383.638 1045.48 384.991 1040.66 389.269L1039.28 390.501C1038.68 391.027 1038.37 391.793 1038.42 392.582C1038.47 393.371 1038.88 394.091 1039.54 394.536L1041.07 395.579C1041.72 396.025 1042.39 396.383 1042.98 396.701C1043.33 396.893 1043.95 397.226 1044.25 397.442C1044.34 397.644 1044.41 397.816 1044.46 397.959C1044.41 397.972 1044.36 397.987 1044.3 398C1041.77 398.615 1040.7 400.851 1039.99 402.33C1039.82 402.681 1039.65 403.039 1039.53 403.219L1038.28 405.186C1037.81 405.934 1037.75 406.877 1038.14 407.676C1038.53 408.476 1039.3 409.016 1040.18 409.108L1040.49 409.142C1037.97 410.897 1035.72 412.923 1033.76 415.206C1029.68 419.945 1026.69 425.984 1024.87 433.149C1024.73 433.715 1023.83 435.832 1018.26 439.226C1010.9 443.717 1006.74 449.986 1003.64 455.527C997.653 466.241 991.875 475.774 985.978 484.664C984.005 487.638 980.995 490.469 977.503 492.634C972.097 495.985 967.122 499.628 965.667 507.331C964.69 512.491 963.517 517.735 962.38 522.808C961.199 528.083 959.979 533.532 958.962 538.961C958.524 541.299 958.857 543.541 959.152 545.521C959.336 546.767 959.51 547.937 959.461 548.916C959.364 550.922 959.062 553.046 958.767 555.098C958.46 557.252 958.142 559.481 958.017 561.769C957.822 565.269 957.868 568.763 957.911 572.14V572.242C957.929 573.636 957.95 575.078 957.95 576.487V577.901C957.95 579.295 959.064 580.432 960.456 580.463L965.134 580.563C965.152 580.563 965.172 580.563 965.19 580.563C966.474 580.563 967.562 579.613 967.729 578.334L967.836 577.514C972.712 588.031 979.365 597.315 985.901 606.028C986.295 606.556 986.734 606.994 987.164 607.414C984.635 609.866 986.877 613.986 987.758 615.602C990.21 620.106 992.708 624.658 995.124 629.06L995.152 629.111C999.431 636.909 1003.86 644.974 1008.12 652.942C1009.2 654.943 1010.29 657.215 1010.29 658.896C1010.27 667.842 1010 676.959 1009.74 685.777C1009.65 689.041 1009.53 692.743 1009.45 696.34C1009.35 700.229 1007.31 701.18 1003.1 702.548C1001.92 701.057 1000.7 699.53 999.136 698.231C997.068 696.514 994.922 694.89 992.844 693.317L992.818 693.297C989.677 690.919 986.431 688.462 983.628 685.798C982.504 684.727 981.62 682.936 980.687 681.04C980.047 679.742 979.388 678.399 978.563 677.095C976.355 673.593 974.065 670.14 971.854 666.799L971.841 666.781L971.79 666.704C970.903 665.364 969.986 663.981 969.107 662.641L968.651 661.947C968.177 661.224 967.37 660.791 966.509 660.791C966.463 660.791 966.417 660.791 966.371 660.794L965.541 660.837C965.267 660.853 964.988 660.858 964.716 660.858C961.252 660.858 958.432 659.723 956.559 657.574C954.43 655.135 953.684 651.581 954.458 647.572C955.05 644.498 954.461 640.962 952.959 638.569C952.352 637.604 951.135 636.451 948.778 636.451C948.243 636.451 947.7 636.505 947.128 636.589C947.003 635.713 946.877 634.837 946.752 633.976C945.991 628.724 945.207 623.301 944.725 617.931C944.108 611.044 940.862 605.9 934.8 602.203C933.927 601.67 933.038 601.14 932.179 600.628L932.043 600.546C926.074 596.985 920.435 593.624 916.569 587.857C914.586 584.898 911.376 583.133 907.29 582.753C906.754 582.705 906.204 582.679 905.648 582.679C900.291 582.679 894.57 584.985 891.07 588.551C888.529 591.144 885.147 593.193 881.57 595.366C880.74 595.868 879.895 596.383 879.042 596.913C878.143 596.098 877.351 595.368 876.649 594.628C868.748 586.332 859.189 582.126 848.234 582.126C844.637 582.126 840.848 582.587 836.972 583.499C836.255 583.668 835.197 583.891 834.295 583.891C834.136 583.891 833.987 583.883 833.852 583.87C833.226 583.804 832.612 583.771 832.035 583.771C829.145 583.771 826.86 584.619 825.241 586.289C824.144 587.421 823.427 588.856 823.094 590.575C822.456 590.598 821.839 590.636 821.27 590.67C820.442 590.721 819.663 590.77 818.951 590.77C816.825 590.77 815.323 590.521 813.907 587.201L812.925 584.9C812.567 584.06 811.785 583.473 810.878 583.363C810.776 583.35 810.671 583.345 810.569 583.345C809.769 583.345 809.008 583.719 808.522 584.367L807.018 586.366C802.56 592.291 796.301 592.796 789.056 593.38L788.92 593.39C788.292 593.442 787.662 593.493 787.032 593.547C783.95 593.816 780.54 595.381 778.134 597.63C775.805 599.811 773.658 600.828 771.378 600.828C769.682 600.828 767.838 600.272 765.74 599.124C763.277 597.779 760.731 597.098 758.174 597.098C754.172 597.098 750.17 598.755 746.284 602.024L745.31 602.841C744.324 603.671 744.106 605.106 744.806 606.19L745.495 607.26C748.195 611.452 752.084 616.266 758.261 616.266C760.154 616.266 762.142 615.838 764.384 614.933C765.114 616.194 766.08 617.147 767.277 617.777C768.304 618.32 769.441 618.597 770.658 618.597C771.107 618.597 771.568 618.558 772.042 618.484C771.394 619.488 770.909 620.611 770.758 621.863C770.594 623.219 770.943 624.487 771.555 625.642C769.196 623.856 766.818 622.076 764.433 620.326C762.711 619.063 760.746 619.009 759.309 618.971H759.296C758.899 618.958 758.525 618.948 758.279 618.915L756.56 618.681C756.445 618.666 756.329 618.658 756.214 618.658C755.579 618.658 754.959 618.897 754.485 619.33C753.924 619.842 753.619 620.58 753.655 621.338L753.737 623.073C753.752 623.4 753.742 623.798 753.729 624.215C753.693 625.583 753.647 627.282 754.359 629.003C754.99 630.525 756.086 631.476 756.885 632.167C757.026 632.29 757.239 632.472 757.367 632.595C757.961 634.03 758.195 634.798 758.279 635.201C757.838 635.639 756.839 636.33 755.456 636.768C753.688 637.33 751.795 637.688 749.789 638.07C747.662 638.475 745.472 638.89 743.284 639.576C742.987 639.671 742.697 639.717 742.423 639.717C742.039 639.717 741.696 639.622 741.404 639.438C740.704 638.992 740.204 637.998 740.035 636.71C739.874 635.49 739.761 634.194 739.654 632.941V632.926C739.436 630.418 739.21 627.822 738.585 625.212C736.946 618.361 733.051 616.399 726.877 615.325L724.213 614.862C724.067 614.836 723.918 614.823 723.775 614.823C722.993 614.823 722.245 615.179 721.756 615.81C721.174 616.555 721.049 617.559 721.433 618.425L723.672 623.48C722.36 623.09 720.946 622.832 719.458 622.832C715.289 622.832 711.477 624.886 708.126 628.939C707.724 629.28 705.923 629.9 703.809 629.9C702.705 629.9 702.113 629.723 701.911 629.649C696.795 627.733 691.489 626.759 686.145 626.759C674.882 626.759 664.76 631.073 657.2 634.832C656.716 635.072 655.775 635.539 655.096 635.828C654.423 634.806 653.365 632.774 652.406 630.938L651.876 629.921C651.428 629.06 650.541 628.542 649.606 628.542C649.396 628.542 649.181 628.568 648.971 628.622L647.861 628.906C644.546 629.756 637.649 631.522 638.754 640.983C639.064 643.645 636.781 648.266 633.071 652.478C629.236 656.836 624.678 659.913 621.461 660.317C618.481 660.691 615.394 660.819 612.127 660.958C610.647 661.019 608.971 661.088 607.254 661.188L605.851 661.27C604.465 661.352 603.396 662.521 603.44 663.907L603.483 665.31C603.506 666.041 603.547 667.383 603.445 668.19C603.176 668.162 602.853 668.106 602.51 668.021C602.161 667.936 601.8 667.895 601.436 667.895C598.933 667.895 597.004 669.873 596.289 670.724C593.453 674.103 590.604 677.556 587.848 680.9L587.712 681.066C585.98 683.167 584.015 685.547 582.099 687.853C581.922 688.065 581.568 688.375 581.123 688.77L581.087 688.8C580.754 689.095 580.377 689.428 579.934 689.838L578.819 690.873C578.304 691.352 578.01 692.018 578.002 692.72C577.994 693.422 578.274 694.096 578.778 694.585L579.87 695.646C581.258 696.996 581.338 697.654 581.338 697.665C581.338 697.665 581.289 697.977 580.659 698.71C580.062 699.404 579.214 700.165 578.32 700.969C577.531 701.679 576.637 702.481 575.814 703.339L574.482 704.728C573.924 705.309 573.672 706.119 573.803 706.916C573.934 707.71 574.431 708.399 575.143 708.773L576.849 709.664C578.035 710.284 578.735 710.899 578.93 711.491C579.132 712.109 578.937 713.082 578.351 714.381C577.444 716.384 577.208 718.877 577.731 720.886C579.391 727.26 581.148 733.605 583.008 740.325C583.17 740.907 583.331 741.491 583.492 742.078L581.43 741.463C571.162 738.404 560.542 735.242 550.397 731.477C547.722 730.485 544.907 726.642 543.982 725.379C543.198 724.308 542.745 722.533 542.265 720.655C542.058 719.843 541.848 719.013 541.594 718.183C537.82 705.732 532.517 695.971 524.906 687.468C518.947 680.815 513.782 673.055 508.783 665.549C506.375 661.931 503.885 658.188 501.307 654.574C499.635 652.222 497.836 649.967 496.099 647.787L496.084 647.767C495.22 646.683 494.242 645.456 493.312 644.249C488.78 638.37 481.396 634.583 473.564 634.117C473.006 634.084 472.439 634.068 471.881 634.068C464.833 634.068 458.31 636.763 453.509 641.662C450.898 644.323 448.178 646.993 445.547 649.575L443.2 651.881C442.431 652.637 441.312 653.536 440.32 653.536C439.921 653.536 439.511 653.393 438.985 653.067C437.464 652.13 435.985 651.23 434.21 650.154C428.174 646.491 421.941 642.707 416.343 638.457C412.608 635.621 410.192 631.268 408.957 625.15C406.387 612.428 400.018 602.618 390.029 595.993C387.344 594.21 385.036 591.121 382.904 588.108C380.096 584.139 376.194 579.095 370.884 575.263C365.206 571.163 359.004 569.17 351.928 569.17C351.715 569.17 351.497 569.17 351.282 569.175C350.629 569.186 349.96 569.193 349.291 569.193C344.047 569.193 338.641 568.837 333.415 568.494C330.784 568.32 327.802 568.125 324.871 567.979L323.495 567.912C323.452 567.912 323.411 567.91 323.367 567.91C322.055 567.91 320.949 568.904 320.818 570.223L319.819 580.468C319.101 580.43 318.392 580.391 317.695 580.356L317.551 580.348C313.158 580.12 309.018 579.902 304.908 579.374H304.89C288.97 577.327 272.507 575.211 256.249 572.457C252.404 571.807 248.143 570.059 243.221 567.118C224.924 556.187 207.077 545.137 187.315 532.861C185.024 531.439 182.741 529.82 180.536 528.254C177.782 526.3 174.935 524.281 171.91 522.505C168.289 520.382 164.052 519.421 161.18 518.883C154.478 517.628 147.661 516.459 141.066 515.327L141.023 515.319L140.848 515.289C135.727 514.41 130.434 513.503 125.246 512.563C121.98 511.971 119.999 511.156 118.828 509.921C117.668 508.702 116.997 506.737 116.651 503.555C115.905 496.705 114.045 490.833 110.971 485.609C107.897 480.388 103.657 475.9 98.01 471.89C93.2114 468.483 88.7895 464.089 84.5136 459.842C81.4854 456.834 78.3547 453.724 75.0139 450.867C71.3272 447.714 67.1795 445.239 63.17 442.849C62.0684 442.19 60.9334 441.514 59.8369 440.84C58.251 439.864 56.573 439.344 55.0922 438.885L55.0281 438.865C54.6028 438.732 54.198 438.606 53.8086 438.475C49.8683 437.123 49.4789 435.57 50.0989 432.601C51.0981 427.818 50.8239 422.976 49.2612 417.801C47.9213 413.361 45.8256 409.242 43.7991 405.255C43.4122 404.497 43.0254 403.736 42.6436 402.973C38.3267 394.347 34.6657 385.157 31.6375 377.233C31.8219 376.729 32.2908 375.783 33.108 374.728C37.1713 369.491 36.5206 364.329 31.2788 360.192C26.3342 356.29 24.4486 351.781 25.5144 346.406C25.5759 346.096 26.0268 345.363 26.3573 344.831C27.0311 343.739 27.7945 342.504 28.1788 340.921C28.7783 338.464 29.0576 336.041 29.3573 333.479C29.4803 332.421 29.6084 331.324 29.7621 330.197L30.0593 328.03C30.0824 327.891 30.0926 327.75 30.0926 327.607C30.0926 326.213 28.9782 325.078 27.5922 325.045C27.5717 325.045 27.5512 325.045 27.5281 325.045C27.4846 325.045 27.441 325.045 27.3974 325.048C27.3974 325.048 27.3974 325.048 27.3949 325.048C27.3923 325.048 27.3898 325.048 27.3846 325.048C27.1541 325.06 26.9337 325.104 26.7237 325.173L24.6177 325.819C22.5246 326.459 20.8081 326.785 19.5118 326.785C18.5946 326.785 18.0643 326.613 17.8747 326.452C17.8286 326.413 16.7628 325.437 17.4648 320.334C17.8644 317.426 18.4127 313.445 16.3811 310.517C13.1581 305.877 11.5313 300.845 11.2623 294.687C11.0138 289.035 11.9284 283.161 12.8968 276.94L13.0403 276.016C13.7986 271.127 13.0659 265.727 11.1239 261.923C8.7823 257.332 7.82157 253.64 8.10082 250.302C8.37239 247.051 9.85832 244.015 12.7713 240.746C18.1565 234.705 20.6211 226.671 20.5263 215.463C20.3982 200.591 21.6126 181.336 32.2267 164.291C44.1398 145.162 52.2766 124.492 59.2938 105.007C59.6499 104.018 61.4176 102.611 63.1264 101.253C64.3639 100.27 65.7627 99.1553 67.1564 97.8308L68.7294 96.3346C69.3494 95.7428 69.6338 94.882 69.4878 94.0366C69.3392 93.1912 68.7807 92.479 67.9967 92.1331L66.0112 91.2595C65.9907 91.2518 65.9702 91.2416 65.9497 91.2339L65.8395 91.1878C65.8395 91.1878 65.8216 91.1801 65.8114 91.1775C65.0658 90.8829 64.5099 90.6216 64.1307 90.4295C67.8379 86.064 68.1248 81.2605 64.9352 76.9001C66.7644 69.6781 65.8959 62.7661 65.0556 56.0745C64.6431 52.7876 64.2178 49.3956 64.1666 46.1625C64.1384 44.3769 64.2537 42.5477 64.41 40.6493L88.231 54.2888L85.7024 57.6705C85.1439 58.4186 85.0363 59.4075 85.418 60.2581L85.769 61.0343C85.8125 61.1291 85.8535 61.2264 85.892 61.3187L85.9022 61.3443C86.0303 61.6466 86.1891 62.0181 86.4095 62.4126C86.7297 62.9865 87.05 63.5655 87.3728 64.1419C86.6862 64.4698 85.997 64.808 85.3078 65.159C84.9415 65.346 84.4701 65.5663 84.0115 65.7789C82.5409 66.4655 81.3778 67.0086 80.4632 67.7106C78.4392 69.2631 78.4495 71.1179 78.6365 72.0863C79.2206 75.1375 81.0575 77.7583 82.3898 79.462C83.95 81.4577 86.5504 81.7575 87.962 81.7575C88.3847 81.7575 88.8049 81.7293 89.1789 81.678C92.2661 81.2528 95.6991 79.2929 98.5967 76.3006C101.461 73.3442 103.4 69.8011 103.915 66.5808C103.961 66.2913 104.005 65.9864 104.049 65.6765C104.12 65.1692 104.282 64.0471 104.451 63.5629C107.384 60.8806 108.97 57.7141 109.16 54.1505C109.341 50.7534 108.23 47.4665 107.241 44.9866L107.182 44.838C106.951 44.2616 106.795 43.8414 106.687 43.5366C108.473 40.8671 109.106 38.0644 108.573 35.1899C108.429 34.4137 108.207 33.6579 107.93 32.9278C108.614 33.1225 109.275 33.3249 109.923 33.5375C182.339 57.3887 258.153 74.5637 341.695 86.0384C393.585 93.1656 446.641 96.6318 503.887 96.6318C516.062 96.6318 528.613 96.4704 541.192 96.1502C551.97 95.876 562.887 95.4021 573.444 94.9435L573.608 94.9358C579.729 94.6694 586.057 94.3953 592.272 94.1647L592.626 94.1519C595.961 94.0289 599.74 93.8906 603.173 92.5251C605.799 91.4824 607.903 89.871 609.524 87.6498C610.641 89.6327 611.694 91.3671 612.978 93.0477C614.756 95.3765 617.638 97.2877 620.884 98.2945C625.67 99.7778 630.62 101.31 635.82 101.597C636.556 101.638 637.327 101.658 638.113 101.658C641.154 101.658 644.121 101.366 646.988 101.087L647.034 101.082C648.973 100.892 650.977 100.698 652.898 100.605C653.075 100.598 653.249 100.592 653.416 100.592C653.782 100.592 654.074 100.613 654.292 100.636C657.272 104.712 661.496 107.502 666.863 108.942C671.565 110.202 676.256 110.241 680.027 110.274C681.8 110.289 683.596 110.356 685.497 110.428H685.52C687.736 110.512 690.029 110.597 692.334 110.597C693.761 110.597 695.086 110.563 696.339 110.497C689.209 115.761 684.034 122.699 678.984 129.468C675.723 133.841 672.354 138.357 668.593 142.144L667.85 142.892C667.066 143.681 666.881 144.888 667.394 145.874L669.372 149.696C669.82 150.56 670.706 151.08 671.647 151.08C671.846 151.08 672.051 151.057 672.251 151.008L689.452 146.83L689.811 149.435C689.952 150.46 690.697 151.3 691.699 151.564L692.632 151.807C694.773 152.368 696.905 152.653 698.965 152.653C707.906 152.653 714.605 147.344 720.516 142.661L720.603 142.592C721.423 141.944 722.268 141.273 723.096 140.637C726.634 137.922 729.926 134.917 733.108 132.012C734.535 130.708 735.987 129.383 737.458 128.089C736.725 130.303 736.587 132.911 737.622 136.041L738.178 137.722C738.419 138.452 738.977 139.036 739.697 139.31C739.992 139.423 740.302 139.479 740.612 139.479C741.055 139.479 741.496 139.364 741.888 139.139L743.422 138.257C744.511 137.632 745.554 137.327 746.614 137.327C748.718 137.327 750.96 138.506 753.555 139.869C753.931 140.066 754.305 140.263 754.682 140.458C756.007 141.142 757.334 141.721 758.615 142.285L758.643 142.298L758.663 142.305C759.452 142.649 760.195 142.976 760.936 143.322C763.703 144.619 767.407 146.107 771.55 146.107C776.161 146.107 780.455 144.321 784.677 140.648C788.103 137.668 792.778 135.644 797.3 133.69C798.184 133.308 799.083 132.918 799.982 132.519C801.184 134.965 802.475 137.44 804.976 138.836C806.623 139.756 808.706 140.222 811.163 140.222C812.241 140.222 813.302 140.135 814.258 140.015L813.689 141.452C810.83 140.397 808.017 139.861 805.296 139.861C799.119 139.861 793.416 142.564 788.344 147.895C788.256 147.975 787.987 148.162 787.808 148.285C787.093 148.777 786.117 149.45 785.351 150.58C783.548 153.247 781.188 153.406 776.823 153.47C775.311 153.493 773.758 153.516 772.152 153.713L771.458 153.798C770.681 153.893 769.992 154.336 769.585 155.005L769.221 155.599C765.25 162.091 761.61 169.889 758.971 177.559C756.299 185.322 754.841 192.431 754.864 197.576L754.874 199.93C754.879 200.821 755.346 201.644 756.107 202.107C756.514 202.356 756.975 202.479 757.436 202.479C757.836 202.479 758.238 202.384 758.604 202.197L760.698 201.124C762.593 200.15 764.128 198.941 765.419 197.601C764.369 203.714 763.756 209.842 763.154 215.857L763.139 216.013C762.975 217.663 762.803 219.37 762.627 221.04C762.583 221.465 762.458 222.003 762.327 222.574C761.991 224.03 761.576 225.841 761.978 227.803C762.478 230.242 762.975 232.727 763.454 235.133L763.47 235.205C765.552 245.631 767.704 256.404 770.738 266.826C771.45 269.273 773.328 272.083 775.762 274.35C777.335 275.813 780.491 278.285 783.957 278.393C784.037 278.396 784.124 278.398 784.211 278.398C786.671 278.398 789.555 277.217 792.34 275.07C794.81 273.167 796.913 270.738 798.115 268.404C802.916 259.081 805.473 250.812 805.936 243.126C806.513 233.565 803.971 224.888 798.169 216.603C797.518 215.673 797.049 214.013 797 212.47C796.944 210.613 796.867 208.758 796.79 206.962C796.514 200.419 796.229 193.656 797.059 187.323C797.333 185.235 799.052 182.798 800.874 180.216C800.979 180.068 801.084 179.919 801.192 179.765L807.674 185.586C808.15 186.014 808.762 186.242 809.385 186.242C809.674 186.242 809.966 186.193 810.248 186.091C811.135 185.773 811.775 184.994 811.916 184.064L812.318 181.418C812.528 180.034 812.7 178.779 812.851 177.675C813.164 175.379 813.412 173.568 813.815 171.846C814.094 170.66 814.581 169.415 815.098 168.096L815.106 168.078C815.423 167.268 815.751 166.431 816.051 165.554C816.089 165.442 816.143 165.303 816.197 165.157L816.207 165.127C816.604 164.086 817.271 162.347 816.715 160.436C816.364 159.229 816.505 158.33 816.653 157.928C822.751 159.173 828.922 161.069 834.889 162.903C836.739 163.472 838.63 164.051 840.531 164.617C841.161 166.259 841.894 167.824 842.608 169.349C844.671 173.758 846.454 177.565 845.239 181.787C844.327 184.956 843.052 188.176 841.819 191.291C841.266 192.687 840.692 194.132 840.146 195.587C840.057 195.828 839.888 196.164 839.706 196.52L839.698 196.535C839.075 197.768 838.222 199.456 838.427 201.503C838.712 204.354 840.054 207.16 841.932 208.827C842.734 209.542 843.782 209.919 844.963 209.919C847.755 209.919 850.714 207.823 851.634 206.865C853.222 205.215 854.611 203.46 855.956 201.764L855.966 201.751C856.927 200.537 857.921 199.282 858.928 198.152C859.72 197.263 860.268 196.84 860.58 196.646C860.773 196.858 861.052 197.222 861.38 197.796C864.931 204.029 868.397 211.082 872.283 219.989C872.476 220.43 872.77 221.235 872.586 221.675C872.509 221.857 872.189 222.349 870.892 222.951C867.362 224.593 864.623 228.741 863.744 231.989C862.02 238.356 860.575 245.429 859.197 254.247C858.677 257.583 861.334 261.559 864.057 262.888C868.136 264.879 872.299 266.365 876.431 267.303C877.192 267.474 878.012 267.561 878.873 267.561C881.107 267.561 883.538 266.959 885.544 265.911C886.159 265.589 886.779 265.271 887.399 264.951C891.782 262.686 896.312 260.344 900.186 256.996C918.627 241.051 934.81 226.635 949.659 212.924C953.144 209.709 955.301 207.062 955.303 203.819C955.303 200.675 953.215 197.939 950.484 194.688C949.798 193.871 949.475 193.32 949.321 193C949.583 192.823 950.057 192.557 950.874 192.244C951.696 191.929 952.516 191.606 953.354 191.276C957.135 189.785 961.047 188.245 964.788 187.712C980.295 185.512 991.942 177.398 1001.29 169.753L1002.46 168.793C1003 168.349 1003.34 167.701 1003.39 167.002C1003.45 166.302 1003.21 165.613 1002.74 165.091L1001.72 163.963C1000.51 162.618 999.182 161.094 998.839 160.059C998.731 159.734 998.583 159.285 999.456 158.115C1000.2 157.11 1000.46 155.85 1000.18 154.561C999.769 152.706 997.842 149.837 995.729 148.687C995.203 148.4 994.67 148.167 994.138 147.972L995.757 144.362C998.472 138.304 1001.28 132.04 1004.07 125.878C1006.17 121.223 1009.28 118.352 1014.16 116.566C1030.42 110.615 1045.36 104.909 1059.84 99.1245C1060.36 98.917 1060.88 98.7172 1061.43 98.5045L1061.53 98.4661C1066.62 96.5063 1072.93 94.075 1075.81 86.8044C1076.31 86.438 1077.5 85.877 1077.98 85.6515L1078.35 85.4799C1081.39 84.0324 1083.54 82.0393 1084.75 79.5517C1085.96 77.0615 1086.19 74.1435 1085.44 70.8822C1085.39 70.6593 1085.33 70.4339 1085.28 70.2546C1085.26 70.1854 1085.23 70.0445 1085.19 69.901C1088.34 61.5364 1087.98 53.159 1087.63 45.0507C1087.37 39.2352 1087.11 33.2224 1088.3 27.6785C1089.02 24.348 1089.81 21.0124 1090.64 17.4847L1093.62 19.3216C1094.03 19.5778 1094.5 19.7033 1094.96 19.7033C1095.56 19.7033 1096.15 19.4958 1096.62 19.091L1097.43 18.4095C1098.51 17.4873 1099.56 16.565 1100.57 15.6734C1102.8 13.7085 1104.91 11.8537 1107.14 10.2012C1109 8.8255 1110.03 8.62055 1110.48 8.62055C1110.57 8.62055 1110.66 8.62823 1110.73 8.6436C1111.43 8.77682 1112.3 9.63762 1113.19 11.0723C1115.82 15.3045 1117.86 20.1849 1119.84 24.9065L1119.87 24.9552C1120.24 25.8621 1120.63 26.7664 1121.01 27.6682C1121.25 28.2267 1121.48 28.7826 1121.71 29.3334L1121.71 29.3514C1124.08 35.0439 1126.53 40.9311 1133.92 44.856C1138.18 47.1181 1142.09 50.8252 1145.86 54.4092C1147.2 55.68 1148.57 56.9814 1149.98 58.247V60.4681L1131.84 79.8386L1128.49 76.9667C1128.02 76.5645 1127.43 76.3519 1126.83 76.3519C1126.66 76.3519 1126.49 76.3698 1126.32 76.4031C1125.54 76.5594 1124.88 77.0641 1124.53 77.7711L1123.71 79.4313C1123.49 79.8796 1123.18 80.3766 1122.89 80.8557C1122.05 82.2263 1121 83.9299 1120.9 86.0409C1120.52 93.6933 1116.35 99.1194 1111.51 105.404C1110.4 106.854 1109.24 108.352 1108.11 109.92C1103.87 115.805 1102.29 123.191 1100.77 130.333L1100.76 130.354L1100.78 130.374ZM810.881 152.325C808.737 154.654 807.984 158.304 808.852 161.991C808.811 162.104 808.767 162.216 808.742 162.285C808.657 162.506 808.568 162.741 808.483 162.985C808.235 163.71 807.94 164.466 807.653 165.196C807.056 166.72 806.441 168.296 806.031 170.038C805.814 170.97 805.634 171.898 805.475 172.851L801.784 169.536C801.31 169.11 800.7 168.88 800.072 168.88C799.942 168.88 799.808 168.89 799.678 168.91C798.917 169.028 798.251 169.484 797.861 170.148L796.967 171.677C796.196 172.992 795.253 174.329 794.341 175.62C792.04 178.881 789.66 182.255 789.13 186.306C788.21 193.323 788.51 200.44 788.8 207.321C788.874 209.099 788.953 210.931 789.007 212.734C789.102 215.893 790.055 218.988 791.62 221.224C795.999 227.475 798.094 233.88 798.03 240.807C797.964 247.876 795.666 255.713 791.005 264.764C789.443 267.797 785.502 270.41 784.229 270.41H784.216C783.891 270.392 782.682 269.882 781.173 268.466C779.833 267.205 778.762 265.694 778.449 264.615C775.513 254.526 773.395 243.925 771.345 233.673L771.296 233.421C770.825 231.062 770.338 228.623 769.846 226.225C769.803 225.931 770.013 225.008 770.154 224.401C770.325 223.661 770.518 222.82 770.612 221.913C770.792 220.21 770.966 218.483 771.132 216.81L771.145 216.682C772.298 205.143 773.489 193.213 777.814 182.33C778.424 180.793 777.98 179.465 777.768 178.828L777.758 178.794C777.714 178.666 777.678 178.553 777.65 178.441L777.161 176.435C776.963 175.623 776.379 174.959 775.6 174.654C775.301 174.536 774.986 174.48 774.67 174.48C774.171 174.48 773.674 174.626 773.246 174.913L771.529 176.061C769.085 177.695 767.343 179.822 765.929 182.025C768.12 175.241 771.335 167.929 775.032 161.56C775.662 161.535 776.307 161.527 776.94 161.517H776.953C781.485 161.45 787.677 161.358 791.905 155.245C792.017 155.158 792.22 155.017 792.363 154.92C792.858 154.579 793.531 154.116 794.151 153.462C797.702 149.727 801.356 147.913 805.319 147.913C807.533 147.913 809.925 148.49 812.434 149.627C813.205 149.976 813.95 150.096 814.555 150.137C813.154 150.49 811.888 151.239 810.884 152.33L810.881 152.325ZM779.758 631.944C780.086 632.026 780.399 632.106 780.596 632.185C782.346 632.885 783.176 633.446 783.542 633.753C783.437 633.92 783.271 634.15 783.012 634.445C782.205 633.825 781.401 633.205 780.594 632.585L780.55 632.552C780.286 632.349 780.022 632.147 779.758 631.942V631.944ZM758.328 608.29C757.346 608.29 756.206 607.978 754.534 606.087C755.791 605.46 756.996 605.15 758.171 605.15C759.404 605.15 760.621 605.488 761.891 606.179C762.276 606.389 762.657 606.587 763.037 606.774C761.013 607.804 759.491 608.29 758.325 608.29H758.328ZM88.1029 73.772C87.9364 73.5415 87.7545 73.2776 87.5751 72.9932C88.0978 72.7473 88.541 72.5398 88.9381 72.3374C90.2242 71.6841 91.5795 71.0487 92.8912 70.4339C93.0142 70.3775 93.1372 70.3186 93.2601 70.2622C91.6512 72.0761 89.6503 73.5466 88.1055 73.7746L88.1029 73.772Z" fill="black"/>
</g>
</svg>
